<?xml version="1.0" encoding="UTF-8" standalone="no"?>
<!DOCTYPE svg PUBLIC "-//W3C//DTD SVG 1.1//EN" "http://www.w3.org/Graphics/SVG/1.1/DTD/svg11.dtd">
<svg xmlns="http://www.w3.org/2000/svg" xmlns:dc="http://purl.org/dc/elements/1.1/" xmlns:xl="http://www.w3.org/1999/xlink" version="1.1" viewBox="-610 -19 809 791" width="809" height="791">
  <defs>
    <filter id="Shadow" filterUnits="userSpaceOnUse" x="-690.9" y="-98.1">
      <feGaussianBlur in="SourceAlpha" result="blur" stdDeviation="1.308"/>
      <feOffset in="blur" result="offset" dx="0" dy="2"/>
      <feFlood flood-color="black" flood-opacity=".5" result="flood"/>
      <feComposite in="flood" in2="offset" operator="in" result="color"/>
      <feMerge>
        <feMergeNode in="color"/>
        <feMergeNode in="SourceGraphic"/>
      </feMerge>
    </filter>
    <marker orient="auto" overflow="visible" markerUnits="strokeWidth" id="FilledArrow_Marker" stroke-linejoin="miter" stroke-miterlimit="10" viewBox="-1 -4 10 8" markerWidth="10" markerHeight="8" color="black">
      <g>
        <path d="M 8 0 L 0 -3 L 0 3 Z" fill="currentColor" stroke="currentColor" stroke-width="1"/>
      </g>
    </marker>
    <filter id="Shadow_2" filterUnits="userSpaceOnUse" x="-690.9" y="-98.1">
      <feOffset in="SourceAlpha" result="offset" dx="0" dy="2"/>
      <feFlood flood-color="#919191" flood-opacity=".25" result="flood"/>
      <feComposite in="flood" in2="offset" operator="in" result="color"/>
      <feMerge>
        <feMergeNode in="color"/>
        <feMergeNode in="SourceGraphic"/>
      </feMerge>
    </filter>
  </defs>
  <g id="Ex1Cred_fromJsonLd" fill="none" fill-opacity="1" stroke-opacity="1" stroke="none" stroke-dasharray="none">
    <title>Ex1Cred_fromJsonLd</title>
    <g id="Ex1Cred_fromJsonLd_Layer_1">
      <title>Layer 1</title>
      <g id="Graphic_2" filter="url(#Shadow)">
        <rect x="-606.5" y="333" width="537.5" height="433" fill="#f2f9ef"/>
        <rect x="-606.5" y="333" width="537.5" height="433" stroke="black" stroke-linecap="round" stroke-linejoin="round" stroke-width="1"/>
        <text transform="translate(-601.5 338)" fill="black">
          <tspan font-family="Helvetica Neue" font-style="italic" font-size="16" fill="black" x="0" y="15">Credential Proof Graph</tspan>
        </text>
      </g>
      <g id="Graphic_8" filter="url(#Shadow)">
        <path d="M 97.82283 297.5 L 116.9567 297.5 C 123.33465 297.5 126.52362 297.5 130.3504 298.2937 C 133.53937 299.0874 136.72835 301.07165 138.00394 303.0559 C 139.27953 305.437 139.27953 307.42126 139.27953 311.38976 L 139.27953 323.29528 C 139.27953 327.26378 139.27953 329.24803 138.00394 331.62913 C 136.72835 333.6134 133.53937 335.59764 130.3504 336.39134 C 126.52362 337.18504 123.33465 337.18504 116.9567 337.18504 L 97.82283 337.18504 C 91.44488 337.18504 88.25591 337.18504 84.42913 336.39134 C 81.24016 335.59764 78.05118 333.6134 76.77559 331.62913 C 75.5 329.24803 75.5 327.26378 75.5 323.29528 L 75.5 311.38976 C 75.5 307.42126 75.5 305.437 76.77559 303.0559 C 78.05118 301.07165 81.24016 299.0874 84.42913 298.2937 C 88.25591 297.5 91.44488 297.5 97.82283 297.5 M 97.82283 297.5" fill="white"/>
        <path d="M 97.82283 297.5 L 116.9567 297.5 C 123.33465 297.5 126.52362 297.5 130.3504 298.2937 C 133.53937 299.0874 136.72835 301.07165 138.00394 303.0559 C 139.27953 305.437 139.27953 307.42126 139.27953 311.38976 L 139.27953 323.29528 C 139.27953 327.26378 139.27953 329.24803 138.00394 331.62913 C 136.72835 333.6134 133.53937 335.59764 130.3504 336.39134 C 126.52362 337.18504 123.33465 337.18504 116.9567 337.18504 L 97.82283 337.18504 C 91.44488 337.18504 88.25591 337.18504 84.42913 336.39134 C 81.24016 335.59764 78.05118 333.6134 76.77559 331.62913 C 75.5 329.24803 75.5 327.26378 75.5 323.29528 L 75.5 311.38976 C 75.5 307.42126 75.5 305.437 76.77559 303.0559 C 78.05118 301.07165 81.24016 299.0874 84.42913 298.2937 C 88.25591 297.5 91.44488 297.5 97.82283 297.5 M 97.82283 297.5" stroke="black" stroke-linecap="round" stroke-linejoin="round" stroke-width="1"/>
        <text transform="translate(80.5 308.11852)" fill="black">
          <tspan font-family="Helvetica Neue" font-size="16" fill="black" x="4.801765" y="15">c2763</tspan>
        </text>
      </g>
      <g id="Line_10">
        <line x1="107.48998" y1="337.18504" x2="107.87842" y2="414.10013" marker-end="url(#FilledArrow_Marker)" stroke="black" stroke-linecap="round" stroke-linejoin="round" stroke-width="1"/>
      </g>
      <g id="Graphic_11" filter="url(#Shadow)">
        <rect x="21" y="424" width="174" height="28.346457" fill="white"/>
        <rect x="21" y="424" width="174" height="28.346457" stroke="black" stroke-linecap="round" stroke-linejoin="round" stroke-width="1"/>
        <text transform="translate(26 428.94923)" fill="black">
          <tspan font-family="Helvetica Neue" font-size="16" fill="black" x="13.552" y="15">Example University</tspan>
        </text>
      </g>
      <g id="Graphic_19" filter="url(#Shadow)">
        <path d="M 97.82283 157.55077 L 116.9567 157.55077 C 123.33465 157.55077 126.52362 157.55077 130.3504 158.34447 C 133.53937 159.13817 136.72835 161.12242 138.00394 163.10668 C 139.27953 165.48778 139.27953 167.47203 139.27953 171.44053 L 139.27953 183.34605 C 139.27953 187.31455 139.27953 189.2988 138.00394 191.6799 C 136.72835 193.66416 133.53937 195.6484 130.3504 196.4421 C 126.52362 197.2358 123.33465 197.2358 116.9567 197.2358 L 97.82283 197.2358 C 91.44488 197.2358 88.25591 197.2358 84.42913 196.4421 C 81.24016 195.6484 78.05118 193.66416 76.77559 191.6799 C 75.5 189.2988 75.5 187.31455 75.5 183.34605 L 75.5 171.44053 C 75.5 167.47203 75.5 165.48778 76.77559 163.10668 C 78.05118 161.12242 81.24016 159.13817 84.42913 158.34447 C 88.25591 157.55077 91.44488 157.55077 97.82283 157.55077 M 97.82283 157.55077" fill="white"/>
        <path d="M 97.82283 157.55077 L 116.9567 157.55077 C 123.33465 157.55077 126.52362 157.55077 130.3504 158.34447 C 133.53937 159.13817 136.72835 161.12242 138.00394 163.10668 C 139.27953 165.48778 139.27953 167.47203 139.27953 171.44053 L 139.27953 183.34605 C 139.27953 187.31455 139.27953 189.2988 138.00394 191.6799 C 136.72835 193.66416 133.53937 195.6484 130.3504 196.4421 C 126.52362 197.2358 123.33465 197.2358 116.9567 197.2358 L 97.82283 197.2358 C 91.44488 197.2358 88.25591 197.2358 84.42913 196.4421 C 81.24016 195.6484 78.05118 193.66416 76.77559 191.6799 C 75.5 189.2988 75.5 187.31455 75.5 183.34605 L 75.5 171.44053 C 75.5 167.47203 75.5 165.48778 76.77559 163.10668 C 78.05118 161.12242 81.24016 159.13817 84.42913 158.34447 C 88.25591 157.55077 91.44488 157.55077 97.82283 157.55077 M 97.82283 157.55077" stroke="black" stroke-linecap="round" stroke-linejoin="round" stroke-width="1"/>
        <text transform="translate(80.5 168.1693)" fill="black">
          <tspan font-family="Helvetica Neue" font-size="16" fill="black" x="1.9937648" y="15">ebfeb1</tspan>
        </text>
      </g>
      <g id="Line_21">
        <line x1="107.38976" y1="197.2358" x2="107.38976" y2="287.6" marker-end="url(#FilledArrow_Marker)" stroke="black" stroke-linecap="round" stroke-linejoin="round" stroke-width="1"/>
      </g>
      <g id="Graphic_20">
        <rect x="70.37376" y="233.89584" width="74.032" height="28.447998" fill="white"/>
        <text transform="translate(75.37376 238.89584)" fill="black">
          <tspan font-family="Helvetica Neue" font-size="16" fill="black" x="0" y="15">alumniOf</tspan>
        </text>
      </g>
      <g id="Graphic_22" filter="url(#Shadow)">
        <path d="M -211.1 156.26419 L -181.4 156.26419 C -171.5 156.26419 -166.55 156.26419 -160.61 157.05789 C -155.66 157.8516 -150.71 159.83584 -148.73 161.8201 C -146.75 164.2012 -146.75 166.18545 -146.75 170.15395 L -146.75 182.05947 C -146.75 186.02797 -146.75 188.01222 -148.73 190.39332 C -150.71 192.37758 -155.66 194.36183 -160.61 195.15553 C -166.55 195.94923 -171.5 195.94923 -181.4 195.94923 L -211.1 195.94923 C -221 195.94923 -225.95 195.94923 -231.89 195.15553 C -236.84 194.36183 -241.79 192.37758 -243.77 190.39332 C -245.75 188.01222 -245.75 186.02797 -245.75 182.05947 L -245.75 170.15395 C -245.75 166.18545 -245.75 164.2012 -243.77 161.8201 C -241.79 159.83584 -236.84 157.8516 -231.89 157.05789 C -225.95 156.26419 -221 156.26419 -211.1 156.26419 M -211.1 156.26419" fill="white"/>
        <path d="M -211.1 156.26419 L -181.4 156.26419 C -171.5 156.26419 -166.55 156.26419 -160.61 157.05789 C -155.66 157.8516 -150.71 159.83584 -148.73 161.8201 C -146.75 164.2012 -146.75 166.18545 -146.75 170.15395 L -146.75 182.05947 C -146.75 186.02797 -146.75 188.01222 -148.73 190.39332 C -150.71 192.37758 -155.66 194.36183 -160.61 195.15553 C -166.55 195.94923 -171.5 195.94923 -181.4 195.94923 L -211.1 195.94923 C -221 195.94923 -225.95 195.94923 -231.89 195.15553 C -236.84 194.36183 -241.79 192.37758 -243.77 190.39332 C -245.75 188.01222 -245.75 186.02797 -245.75 182.05947 L -245.75 170.15395 C -245.75 166.18545 -245.75 164.2012 -243.77 161.8201 C -241.79 159.83584 -236.84 157.8516 -231.89 157.05789 C -225.95 156.26419 -221 156.26419 -211.1 156.26419 M -211.1 156.26419" stroke="black" stroke-linecap="round" stroke-linejoin="round" stroke-width="1"/>
        <text transform="translate(-240.75 166.88271)" fill="black">
          <tspan font-family="Helvetica Neue" font-size="16" fill="black" x="8.628" y="15">cred:1872</tspan>
        </text>
      </g>
      <g id="Graphic_23" filter="url(#Shadow)">
        <path d="M -215.91654 273.21342 L -176.58346 273.21342 C -163.47244 273.21342 -156.91693 273.21342 -149.05032 274.00712 C -142.4948 274.80082 -135.93929 276.78507 -133.31709 278.76932 C -130.69488 281.15043 -130.69488 283.13468 -130.69488 287.1032 L -130.69488 299.0087 C -130.69488 302.9772 -130.69488 304.96145 -133.31709 307.34255 C -135.93929 309.3268 -142.4948 311.31106 -149.05032 312.10476 C -156.91693 312.89846 -163.47244 312.89846 -176.58346 312.89846 L -215.91654 312.89846 C -229.02756 312.89846 -235.58307 312.89846 -243.44968 312.10476 C -250.0052 311.31106 -256.5607 309.3268 -259.1829 307.34255 C -261.80512 304.96145 -261.80512 302.9772 -261.80512 299.0087 L -261.80512 287.1032 C -261.80512 283.13468 -261.80512 281.15043 -259.1829 278.76932 C -256.5607 276.78507 -250.0052 274.80082 -243.44968 274.00712 C -235.58307 273.21342 -229.02756 273.21342 -215.91654 273.21342 M -215.91654 273.21342" fill="white"/>
        <path d="M -215.91654 273.21342 L -176.58346 273.21342 C -163.47244 273.21342 -156.91693 273.21342 -149.05032 274.00712 C -142.4948 274.80082 -135.93929 276.78507 -133.31709 278.76932 C -130.69488 281.15043 -130.69488 283.13468 -130.69488 287.1032 L -130.69488 299.0087 C -130.69488 302.9772 -130.69488 304.96145 -133.31709 307.34255 C -135.93929 309.3268 -142.4948 311.31106 -149.05032 312.10476 C -156.91693 312.89846 -163.47244 312.89846 -176.58346 312.89846 L -215.91654 312.89846 C -229.02756 312.89846 -235.58307 312.89846 -243.44968 312.10476 C -250.0052 311.31106 -256.5607 309.3268 -259.1829 307.34255 C -261.80512 304.96145 -261.80512 302.9772 -261.80512 299.0087 L -261.80512 287.1032 C -261.80512 283.13468 -261.80512 281.15043 -259.1829 278.76932 C -256.5607 276.78507 -250.0052 274.80082 -243.44968 274.00712 C -235.58307 273.21342 -229.02756 273.21342 -215.91654 273.21342 M -215.91654 273.21342" stroke="black" stroke-linecap="round" stroke-linejoin="round" stroke-width="1"/>
        <text transform="translate(-256.80512 283.83194)" fill="black">
          <tspan font-family="Helvetica Neue" font-size="16" fill="black" x="1.7231186" y="15">exIssuer:565049</tspan>
        </text>
      </g>
      <g id="Line_26">
        <line x1="-196.25" y1="195.94923" x2="-196.25" y2="263.31342" marker-end="url(#FilledArrow_Marker)" stroke="black" stroke-linecap="round" stroke-linejoin="round" stroke-width="1"/>
      </g>
      <g id="Graphic_25">
        <rect x="-222.434" y="214.57196" width="52.368" height="28.447998" fill="white"/>
        <text transform="translate(-217.434 219.57196)" fill="black">
          <tspan font-family="Helvetica Neue" font-size="16" fill="black" x="0" y="15">issuer</tspan>
        </text>
      </g>
      <g id="Graphic_36" filter="url(#Shadow_2)">
        <title>Superclass</title>
        <rect x="-280.5" y="-18" width="160.65111" height="56" fill="white"/>
        <rect x="-280.5" y="-18" width="160.65111" height="56" stroke="#b9c0c1" stroke-linecap="round" stroke-linejoin="round" stroke-width="2"/>
        <text transform="translate(-274.5 -8)" fill="#515556">
          <tspan font-family="Avenir" font-weight="bold" font-size="13" fill="#515556" x="13.979554" y="13">VerifiableCredential</tspan>
        </text>
      </g>
      <g id="Graphic_35" filter="url(#Shadow_2)">
        <title>Subclass</title>
        <rect x="-468.91956" y="75" width="195.94492" height="38" fill="white"/>
        <rect x="-468.91956" y="75" width="195.94492" height="38" stroke="#b9c0c1" stroke-linecap="round" stroke-linejoin="round" stroke-width="2"/>
        <text transform="translate(-462.91956 85)" fill="#515556">
          <tspan font-family="Avenir" font-weight="bold" font-size="13" fill="#515556" x="13.101458" y="13">ExampleAlumniCredential</tspan>
        </text>
      </g>
      <g id="Line_38">
        <line x1="-214.79012" y1="156.26604" x2="-265.21537" y2="102.30356" marker-end="url(#FilledArrow_Marker)" stroke="black" stroke-linecap="round" stroke-linejoin="round" stroke-width="1"/>
      </g>
      <g id="Graphic_37">
        <rect x="-248.39653" y="116.0263" width="18.592" height="28.447998" fill="white"/>
        <text transform="translate(-243.39653 121.0263)" fill="black">
          <tspan font-family="Helvetica Neue" font-size="16" fill="black" x="2762235e-19" y="15">a</tspan>
        </text>
      </g>
      <g id="Line_40">
        <line x1="-245.75" y1="176.12356" x2="-413.1" y2="176.18054" marker-end="url(#FilledArrow_Marker)" stroke="black" stroke-linecap="round" stroke-linejoin="round" stroke-width="1"/>
      </g>
      <g id="Graphic_39">
        <rect x="-366.39864" y="161.92698" width="80.24" height="28.447998" fill="white"/>
        <text transform="translate(-361.39864 166.92698)" fill="black">
          <tspan font-family="Helvetica Neue" font-size="16" fill="black" x="7958079e-19" y="15">validFrom</tspan>
        </text>
      </g>
      <g id="Graphic_45" filter="url(#Shadow)">
        <rect x="-606.5" y="162.04192" width="183.5" height="28.346457" fill="white"/>
        <rect x="-606.5" y="162.04192" width="183.5" height="28.346457" stroke="black" stroke-linecap="round" stroke-linejoin="round" stroke-width="1"/>
        <text transform="translate(-601.5 166.99114)" fill="black">
          <tspan font-family="Helvetica Neue" font-size="16" fill="black" x="4.326" y="15">2010-01-01T19:23:24Z</tspan>
        </text>
      </g>
      <g id="Line_49">
        <line x1="-146.75" y1="176.31645" x2="65.60009" y2="177.21622" marker-end="url(#FilledArrow_Marker)" stroke="black" stroke-linecap="round" stroke-linejoin="round" stroke-width="1"/>
      </g>
      <g id="Graphic_48">
        <rect x="-100.20567" y="162.57454" width="134.464" height="28.447998" fill="white"/>
        <text transform="translate(-95.20567 167.57454)" fill="black">
          <tspan font-family="Helvetica Neue" font-size="16" fill="black" x="0" y="15">credentialSubject</tspan>
        </text>
      </g>
      <g id="Line_51">
        <path d="M -222.35583 195.86788 L -333.5 280 L -334.1797 323.10123" marker-end="url(#FilledArrow_Marker)" stroke="black" stroke-linecap="round" stroke-linejoin="round" stroke-width="1"/>
      </g>
      <g id="Graphic_50">
        <rect x="-297.41783" y="220.43525" width="47.632" height="28.447998" fill="white"/>
        <text transform="translate(-292.41783 225.43525)" fill="black">
          <tspan font-family="Helvetica Neue" font-size="16" fill="black" x="7176482e-19" y="15">proof</tspan>
        </text>
      </g>
      <g id="Graphic_52" filter="url(#Shadow)">
        <ellipse cx="-549.25" cy="498.6986" rx="16.2500259659058" ry="14.1986364372368" fill="white"/>
        <ellipse cx="-549.25" cy="498.6986" rx="16.2500259659058" ry="14.1986364372368" stroke="black" stroke-linecap="round" stroke-linejoin="round" stroke-width="1"/>
      </g>
      <g id="Group_62">
        <g id="Graphic_61">
          <title>Attributes</title>
          <rect x="-588.11024" y="398.53483" width="165.11024" height="14.396266" stroke="#b9c0c1" stroke-linecap="round" stroke-linejoin="round" stroke-width="2"/>
        </g>
        <g id="Graphic_60">
          <title>Class Name</title>
          <rect x="-588.11024" y="373.9311" width="165.11024" height="24.603734" stroke="#b9c0c1" stroke-linecap="round" stroke-linejoin="round" stroke-width="2"/>
          <text transform="translate(-582.11024 377.23297)" fill="#515556">
            <tspan font-family="Avenir" font-weight="bold" font-size="13" fill="#515556" x="17.691115" y="13">DataIIntegrityProof</tspan>
          </text>
        </g>
      </g>
      <g id="Line_64">
        <line x1="-544.0252" y1="485.2506" x2="-514.30837" y2="408.76284" marker-end="url(#FilledArrow_Marker)" stroke="black" stroke-linecap="round" stroke-linejoin="round" stroke-width="1"/>
      </g>
      <g id="Graphic_63">
        <rect x="-539.16375" y="434.5869" width="18.592" height="28.447998" fill="white"/>
        <text transform="translate(-534.16375 439.5869)" fill="black">
          <tspan font-family="Helvetica Neue" font-size="16" fill="black" x="2762235e-19" y="15">a</tspan>
        </text>
      </g>
      <g id="Line_67">
        <line x1="-533" y1="498.69747" x2="-290.4" y2="498.6804" marker-end="url(#FilledArrow_Marker)" stroke="black" stroke-linecap="round" stroke-linejoin="round" stroke-width="1"/>
      </g>
      <g id="Graphic_66">
        <rect x="-468.91956" y="484.4667" width="63.936" height="28.447998" fill="white"/>
        <text transform="translate(-463.91956 489.4667)" fill="black">
          <tspan font-family="Helvetica Neue" font-size="16" fill="black" x="7531753e-19" y="15">created</tspan>
        </text>
      </g>
      <g id="Graphic_65" filter="url(#Shadow)">
        <rect x="-280.5" y="484.5" width="183.5" height="28.346457" fill="white"/>
        <rect x="-280.5" y="484.5" width="183.5" height="28.346457" stroke="black" stroke-linecap="round" stroke-linejoin="round" stroke-width="1"/>
        <text transform="translate(-275.5 489.44923)" fill="black">
          <tspan font-family="Helvetica Neue" font-size="16" fill="black" x="4.326" y="15">2023-06-18T21:19:10Z</tspan>
        </text>
      </g>
      <g id="Line_69">
        <path d="M -541.33076 511.1012 L -505 568 L -385.3995 569.18965" marker-end="url(#FilledArrow_Marker)" stroke="black" stroke-linecap="round" stroke-linejoin="round" stroke-width="1"/>
      </g>
      <g id="Graphic_68">
        <rect x="-489.6384" y="554.3573" width="86.16" height="28.447998" fill="white"/>
        <text transform="translate(-484.6384 559.3573)" fill="black">
          <tspan font-family="Helvetica Neue" font-size="16" fill="black" x="0" y="15">proofValue</tspan>
        </text>
      </g>
      <g id="Graphic_70" filter="url(#Shadow)">
        <rect x="-375.5" y="528.6732" width="278.5" height="84" fill="white"/>
        <rect x="-375.5" y="528.6732" width="278.5" height="84" stroke="black" stroke-linecap="round" stroke-linejoin="round" stroke-width="1"/>
        <text transform="translate(-370.5 533.77723)" fill="black">
          <tspan font-family="Helvetica Neue" font-size="16" fill="black" x="0" y="15">zQeVbY4oey5q2M3XKaxup3tmzN4D</tspan>
          <tspan font-family="Helvetica Neue" font-size="16" fill="black" x="0" y="33.448">RFTLVqpLMweBrSxMY2xHX5XTYV8</tspan>
          <tspan font-family="Helvetica Neue" font-size="16" fill="black" x="0" y="51.895996">nQApmEcqaqA3Q1gVHMrXFkXJeV6</tspan>
          <tspan font-family="Helvetica Neue" font-size="16" fill="black" x="0" y="70.34399">doDwLWx</tspan>
        </text>
      </g>
      <g id="Line_73">
        <path d="M -545.7681 512.56925 L -512.7755 644 L -316.89982 645.1656" marker-end="url(#FilledArrow_Marker)" stroke="black" stroke-linecap="round" stroke-linejoin="round" stroke-width="1"/>
      </g>
      <g id="Graphic_72">
        <rect x="-483.84196" y="630.268" width="107.488" height="28.447998" fill="white"/>
        <text transform="translate(-478.84196 635.268)" fill="black">
          <tspan font-family="Helvetica Neue" font-size="16" fill="black" x="5968559e-19" y="15">proofPurpose</tspan>
        </text>
      </g>
      <g id="Graphic_71" filter="url(#Shadow)">
        <path d="M -233.5 628.5 L -170.5 628.5 C -149.5 628.5 -139 628.5 -126.4 629.194 C -115.9 629.88794 -105.4 631.6229 -101.2 633.3578 C -97 635.4397 -97 637.17465 -97 640.6445 L -97 651.0541 C -97 654.52396 -97 656.2589 -101.2 658.3408 C -105.4 660.0757 -115.9 661.8107 -126.4 662.50464 C -139 663.1986 -149.5 663.1986 -170.5 663.1986 L -233.5 663.1986 C -254.5 663.1986 -265 663.1986 -277.6 662.50464 C -288.1 661.8107 -298.6 660.0757 -302.8 658.3408 C -307 656.2589 -307 654.52396 -307 651.0541 L -307 640.6445 C -307 637.17465 -307 635.4397 -302.8 633.3578 C -298.6 631.6229 -288.1 629.88794 -277.6 629.194 C -265 628.5 -254.5 628.5 -233.5 628.5 M -233.5 628.5" fill="white"/>
        <path d="M -233.5 628.5 L -170.5 628.5 C -149.5 628.5 -139 628.5 -126.4 629.194 C -115.9 629.88794 -105.4 631.6229 -101.2 633.3578 C -97 635.4397 -97 637.17465 -97 640.6445 L -97 651.0541 C -97 654.52396 -97 656.2589 -101.2 658.3408 C -105.4 660.0757 -115.9 661.8107 -126.4 662.50464 C -139 663.1986 -149.5 663.1986 -170.5 663.1986 L -233.5 663.1986 C -254.5 663.1986 -265 663.1986 -277.6 662.50464 C -288.1 661.8107 -298.6 660.0757 -302.8 658.3408 C -307 656.2589 -307 654.52396 -307 651.0541 L -307 640.6445 C -307 637.17465 -307 635.4397 -302.8 633.3578 C -298.6 631.6229 -288.1 629.88794 -277.6 629.194 C -265 628.5 -254.5 628.5 -233.5 628.5 M -233.5 628.5" stroke="black" stroke-linecap="round" stroke-linejoin="round" stroke-width="1"/>
        <text transform="translate(-302 636.6253)" fill="black">
          <tspan font-family="Helvetica Neue" font-size="16" fill="black" x="25.024" y="15">sec:assertionMethod </tspan>
        </text>
      </g>
      <g id="Line_77">
        <path d="M -548.70904 512.8894 L -541.5 702 L -316.89996 702.6686" marker-end="url(#FilledArrow_Marker)" stroke="black" stroke-linecap="round" stroke-linejoin="round" stroke-width="1"/>
      </g>
      <g id="Graphic_76">
        <rect x="-506.8127" y="688.09175" width="142.752" height="28.447998" fill="white"/>
        <text transform="translate(-501.8127 693.09175)" fill="black">
          <tspan font-family="Helvetica Neue" font-size="16" fill="black" x="19895197e-20" y="15">verificationMethod</tspan>
        </text>
      </g>
      <g id="Graphic_75" filter="url(#Shadow)">
        <path d="M -233.5 685.6614 L -170.5 685.6614 C -149.5 685.6614 -139 685.6614 -126.4 686.35534 C -115.9 687.0493 -105.4 688.78424 -101.2 690.5192 C -97 692.6011 -97 694.336 -97 697.8059 L -97 708.2155 C -97 711.6853 -97 713.4203 -101.2 715.5022 C -105.4 717.2371 -115.9 718.972 -126.4 719.666 C -139 720.36 -149.5 720.36 -170.5 720.36 L -233.5 720.36 C -254.5 720.36 -265 720.36 -277.6 719.666 C -288.1 718.972 -298.6 717.2371 -302.8 715.5022 C -307 713.4203 -307 711.6853 -307 708.2155 L -307 697.8059 C -307 694.336 -307 692.6011 -302.8 690.5192 C -298.6 688.78424 -288.1 687.0493 -277.6 686.35534 C -265 685.6614 -254.5 685.6614 -233.5 685.6614 M -233.5 685.6614" fill="white"/>
        <path d="M -233.5 685.6614 L -170.5 685.6614 C -149.5 685.6614 -139 685.6614 -126.4 686.35534 C -115.9 687.0493 -105.4 688.78424 -101.2 690.5192 C -97 692.6011 -97 694.336 -97 697.8059 L -97 708.2155 C -97 711.6853 -97 713.4203 -101.2 715.5022 C -105.4 717.2371 -115.9 718.972 -126.4 719.666 C -139 720.36 -149.5 720.36 -170.5 720.36 L -233.5 720.36 C -254.5 720.36 -265 720.36 -277.6 719.666 C -288.1 718.972 -298.6 717.2371 -302.8 715.5022 C -307 713.4203 -307 711.6853 -307 708.2155 L -307 697.8059 C -307 694.336 -307 692.6011 -302.8 690.5192 C -298.6 688.78424 -288.1 687.0493 -277.6 686.35534 C -265 685.6614 -254.5 685.6614 -233.5 685.6614 M -233.5 685.6614" stroke="black" stroke-linecap="round" stroke-linejoin="round" stroke-width="1"/>
        <text transform="translate(-302 693.7867)" fill="black">
          <tspan font-family="Helvetica Neue" font-size="16" fill="black" x="29.144" y="15">ec:565049#key-123</tspan>
        </text>
      </g>
      <g id="Line_79">
        <line x1="-196.81385" y1="156.26419" x2="-199.86482" y2="48.896005" marker-end="url(#FilledArrow_Marker)" stroke="black" stroke-linecap="round" stroke-linejoin="round" stroke-width="1"/>
      </g>
      <g id="Graphic_78">
        <rect x="-207.52643" y="92.18857" width="18.592" height="28.447998" fill="white"/>
        <text transform="translate(-202.52643 97.18857)" fill="black">
          <tspan font-family="Helvetica Neue" font-size="16" fill="black" x="2762235e-19" y="15">a</tspan>
        </text>
      </g>
      <g id="Line_82">
        <path d="M -536.0209 490.4493 L -451.1832 437.54655 L -290.39997 437.1292" marker-end="url(#FilledArrow_Marker)" stroke="black" stroke-linecap="round" stroke-linejoin="round" stroke-width="1"/>
      </g>
      <g id="Graphic_81">
        <rect x="-422.9825" y="423.1329" width="89.712" height="28.447998" fill="white"/>
        <text transform="translate(-417.9825 428.1329)" fill="black">
          <tspan font-family="Helvetica Neue" font-size="16" fill="black" x="0" y="15">cryptosuite</tspan>
        </text>
      </g>
      <g id="Graphic_80" filter="url(#Shadow)">
        <rect x="-280.5" y="419.5919" width="125.02391" height="34.698614" fill="white"/>
        <rect x="-280.5" y="419.5919" width="125.02391" height="34.698614" stroke="black" stroke-linecap="round" stroke-linejoin="round" stroke-width="1"/>
        <text transform="translate(-275.5 427.7172)" fill="black">
          <tspan font-family="Helvetica Neue" font-size="16" fill="black" x="14.527955" y="15">eddsa-2022</tspan>
        </text>
      </g>
    </g>
  </g>
</svg>
