<?xml version="1.0" encoding="UTF-8" standalone="no"?>
<!DOCTYPE svg PUBLIC "-//W3C//DTD SVG 1.1//EN" "http://www.w3.org/Graphics/SVG/1.1/DTD/svg11.dtd">
<svg xmlns="http://www.w3.org/2000/svg" xmlns:dc="http://purl.org/dc/elements/1.1/" xmlns:xl="http://www.w3.org/1999/xlink" version="1.1" viewBox="-895 -37 1145 1519" width="1145" height="1519">
  <defs>
    <filter id="Shadow" filterUnits="userSpaceOnUse" x="-1009.5" y="-188.9">
      <feGaussianBlur in="SourceAlpha" result="blur" stdDeviation="1.308"/>
      <feOffset in="blur" result="offset" dx="0" dy="2"/>
      <feFlood flood-color="black" flood-opacity=".5" result="flood"/>
      <feComposite in="flood" in2="offset" operator="in" result="color"/>
      <feMerge>
        <feMergeNode in="color"/>
        <feMergeNode in="SourceGraphic"/>
      </feMerge>
    </filter>
    <marker orient="auto" overflow="visible" markerUnits="strokeWidth" id="FilledArrow_Marker" stroke-linejoin="miter" stroke-miterlimit="10" viewBox="-1 -4 10 8" markerWidth="10" markerHeight="8" color="black">
      <g>
        <path d="M 8 0 L 0 -3 L 0 3 Z" fill="currentColor" stroke="currentColor" stroke-width="1"/>
      </g>
    </marker>
    <filter id="Shadow_2" filterUnits="userSpaceOnUse" x="-1009.5" y="-188.9">
      <feOffset in="SourceAlpha" result="offset" dx="0" dy="2"/>
      <feFlood flood-color="#919191" flood-opacity=".25" result="flood"/>
      <feComposite in="flood" in2="offset" operator="in" result="color"/>
      <feMerge>
        <feMergeNode in="color"/>
        <feMergeNode in="SourceGraphic"/>
      </feMerge>
    </filter>
    <marker orient="auto" overflow="visible" markerUnits="strokeWidth" id="FilledArrow_Marker_2" stroke-linejoin="miter" stroke-miterlimit="10" viewBox="-1 -4 10 8" markerWidth="10" markerHeight="8" color="black">
      <g>
        <path d="M 8 0 L 0 -3 L 0 3 Z" fill="currentColor" stroke="currentColor" stroke-width="1"/>
      </g>
    </marker>
  </defs>
  <g id="Ex2Presentation_fromJsonLd_1" fill="none" fill-opacity="1" stroke-opacity="1" stroke="none" stroke-dasharray="none">
    <title>Ex2Presentation_fromJsonLd 1</title>
    <g id="Ex2Presentation_fromJsonLd_1_Layer_1">
      <title>Layer 1</title>
      <g id="Graphic_83" filter="url(#Shadow)">
        <rect x="-646.17444" y="-35" width="892" height="845" fill="#f2eef8"/>
        <rect x="-646.17444" y="-35" width="892" height="845" stroke="black" stroke-linecap="round" stroke-linejoin="round" stroke-width="1"/>
      </g>
      <g id="Graphic_2" filter="url(#Shadow)">
        <rect x="-614" y="351.73715" width="588.5" height="433" fill="#f2f9ef"/>
        <rect x="-614" y="351.73715" width="588.5" height="433" stroke="black" stroke-linecap="round" stroke-linejoin="round" stroke-width="1"/>
        <text transform="translate(-609 356.73715)" fill="black">
          <tspan font-family="Helvetica Neue" font-style="italic" font-size="16" fill="black" x="0" y="15">Verifiable Credential Proof Graph</tspan>
        </text>
      </g>
      <g id="Graphic_8" filter="url(#Shadow)">
        <path d="M 97.82283 297.5 L 116.9567 297.5 C 123.33465 297.5 126.52362 297.5 130.3504 298.2937 C 133.53937 299.0874 136.72835 301.07165 138.00394 303.0559 C 139.27953 305.437 139.27953 307.42126 139.27953 311.38976 L 139.27953 323.29528 C 139.27953 327.26378 139.27953 329.24803 138.00394 331.62913 C 136.72835 333.6134 133.53937 335.59764 130.3504 336.39134 C 126.52362 337.18504 123.33465 337.18504 116.9567 337.18504 L 97.82283 337.18504 C 91.44488 337.18504 88.25591 337.18504 84.42913 336.39134 C 81.24016 335.59764 78.05118 333.6134 76.77559 331.62913 C 75.5 329.24803 75.5 327.26378 75.5 323.29528 L 75.5 311.38976 C 75.5 307.42126 75.5 305.437 76.77559 303.0559 C 78.05118 301.07165 81.24016 299.0874 84.42913 298.2937 C 88.25591 297.5 91.44488 297.5 97.82283 297.5 M 97.82283 297.5" fill="white"/>
        <path d="M 97.82283 297.5 L 116.9567 297.5 C 123.33465 297.5 126.52362 297.5 130.3504 298.2937 C 133.53937 299.0874 136.72835 301.07165 138.00394 303.0559 C 139.27953 305.437 139.27953 307.42126 139.27953 311.38976 L 139.27953 323.29528 C 139.27953 327.26378 139.27953 329.24803 138.00394 331.62913 C 136.72835 333.6134 133.53937 335.59764 130.3504 336.39134 C 126.52362 337.18504 123.33465 337.18504 116.9567 337.18504 L 97.82283 337.18504 C 91.44488 337.18504 88.25591 337.18504 84.42913 336.39134 C 81.24016 335.59764 78.05118 333.6134 76.77559 331.62913 C 75.5 329.24803 75.5 327.26378 75.5 323.29528 L 75.5 311.38976 C 75.5 307.42126 75.5 305.437 76.77559 303.0559 C 78.05118 301.07165 81.24016 299.0874 84.42913 298.2937 C 88.25591 297.5 91.44488 297.5 97.82283 297.5 M 97.82283 297.5" stroke="black" stroke-linecap="round" stroke-linejoin="round" stroke-width="1"/>
        <text transform="translate(80.5 308.11852)" fill="black">
          <tspan font-family="Helvetica Neue" font-size="16" fill="black" x="4.801765" y="15">c2763</tspan>
        </text>
      </g>
      <g id="Line_10">
        <line x1="107.48998" y1="337.18504" x2="107.87842" y2="414.10013" marker-end="url(#FilledArrow_Marker)" stroke="black" stroke-linecap="round" stroke-linejoin="round" stroke-width="1"/>
      </g>
      <g id="Graphic_11" filter="url(#Shadow)">
        <rect x="21" y="424" width="174" height="28.346457" fill="white"/>
        <rect x="21" y="424" width="174" height="28.346457" stroke="black" stroke-linecap="round" stroke-linejoin="round" stroke-width="1"/>
        <text transform="translate(26 428.94923)" fill="black">
          <tspan font-family="Helvetica Neue" font-size="16" fill="black" x="13.552" y="15">Example University</tspan>
        </text>
      </g>
      <g id="Graphic_19" filter="url(#Shadow)">
        <path d="M 97.82283 157.55077 L 116.9567 157.55077 C 123.33465 157.55077 126.52362 157.55077 130.3504 158.34447 C 133.53937 159.13817 136.72835 161.12242 138.00394 163.10668 C 139.27953 165.48778 139.27953 167.47203 139.27953 171.44053 L 139.27953 183.34605 C 139.27953 187.31455 139.27953 189.2988 138.00394 191.6799 C 136.72835 193.66416 133.53937 195.6484 130.3504 196.4421 C 126.52362 197.2358 123.33465 197.2358 116.9567 197.2358 L 97.82283 197.2358 C 91.44488 197.2358 88.25591 197.2358 84.42913 196.4421 C 81.24016 195.6484 78.05118 193.66416 76.77559 191.6799 C 75.5 189.2988 75.5 187.31455 75.5 183.34605 L 75.5 171.44053 C 75.5 167.47203 75.5 165.48778 76.77559 163.10668 C 78.05118 161.12242 81.24016 159.13817 84.42913 158.34447 C 88.25591 157.55077 91.44488 157.55077 97.82283 157.55077 M 97.82283 157.55077" fill="white"/>
        <path d="M 97.82283 157.55077 L 116.9567 157.55077 C 123.33465 157.55077 126.52362 157.55077 130.3504 158.34447 C 133.53937 159.13817 136.72835 161.12242 138.00394 163.10668 C 139.27953 165.48778 139.27953 167.47203 139.27953 171.44053 L 139.27953 183.34605 C 139.27953 187.31455 139.27953 189.2988 138.00394 191.6799 C 136.72835 193.66416 133.53937 195.6484 130.3504 196.4421 C 126.52362 197.2358 123.33465 197.2358 116.9567 197.2358 L 97.82283 197.2358 C 91.44488 197.2358 88.25591 197.2358 84.42913 196.4421 C 81.24016 195.6484 78.05118 193.66416 76.77559 191.6799 C 75.5 189.2988 75.5 187.31455 75.5 183.34605 L 75.5 171.44053 C 75.5 167.47203 75.5 165.48778 76.77559 163.10668 C 78.05118 161.12242 81.24016 159.13817 84.42913 158.34447 C 88.25591 157.55077 91.44488 157.55077 97.82283 157.55077 M 97.82283 157.55077" stroke="black" stroke-linecap="round" stroke-linejoin="round" stroke-width="1"/>
        <text transform="translate(80.5 168.1693)" fill="black">
          <tspan font-family="Helvetica Neue" font-size="16" fill="black" x="1.9937648" y="15">ebfeb1</tspan>
        </text>
      </g>
      <g id="Line_21">
        <line x1="107.38976" y1="197.2358" x2="107.38976" y2="287.6" marker-end="url(#FilledArrow_Marker)" stroke="black" stroke-linecap="round" stroke-linejoin="round" stroke-width="1"/>
      </g>
      <g id="Graphic_20">
        <rect x="70.37376" y="233.89584" width="74.032" height="28.447998" fill="white"/>
        <text transform="translate(75.37376 238.89584)" fill="black">
          <tspan font-family="Helvetica Neue" font-size="16" fill="black" x="0" y="15">alumniOf</tspan>
        </text>
      </g>
      <g id="Graphic_22" filter="url(#Shadow)">
        <path d="M -211.1 156.26419 L -181.4 156.26419 C -171.5 156.26419 -166.55 156.26419 -160.61 157.05789 C -155.66 157.8516 -150.71 159.83584 -148.73 161.8201 C -146.75 164.2012 -146.75 166.18545 -146.75 170.15395 L -146.75 182.05947 C -146.75 186.02797 -146.75 188.01222 -148.73 190.39332 C -150.71 192.37758 -155.66 194.36183 -160.61 195.15553 C -166.55 195.94923 -171.5 195.94923 -181.4 195.94923 L -211.1 195.94923 C -221 195.94923 -225.95 195.94923 -231.89 195.15553 C -236.84 194.36183 -241.79 192.37758 -243.77 190.39332 C -245.75 188.01222 -245.75 186.02797 -245.75 182.05947 L -245.75 170.15395 C -245.75 166.18545 -245.75 164.2012 -243.77 161.8201 C -241.79 159.83584 -236.84 157.8516 -231.89 157.05789 C -225.95 156.26419 -221 156.26419 -211.1 156.26419 M -211.1 156.26419" fill="white"/>
        <path d="M -211.1 156.26419 L -181.4 156.26419 C -171.5 156.26419 -166.55 156.26419 -160.61 157.05789 C -155.66 157.8516 -150.71 159.83584 -148.73 161.8201 C -146.75 164.2012 -146.75 166.18545 -146.75 170.15395 L -146.75 182.05947 C -146.75 186.02797 -146.75 188.01222 -148.73 190.39332 C -150.71 192.37758 -155.66 194.36183 -160.61 195.15553 C -166.55 195.94923 -171.5 195.94923 -181.4 195.94923 L -211.1 195.94923 C -221 195.94923 -225.95 195.94923 -231.89 195.15553 C -236.84 194.36183 -241.79 192.37758 -243.77 190.39332 C -245.75 188.01222 -245.75 186.02797 -245.75 182.05947 L -245.75 170.15395 C -245.75 166.18545 -245.75 164.2012 -243.77 161.8201 C -241.79 159.83584 -236.84 157.8516 -231.89 157.05789 C -225.95 156.26419 -221 156.26419 -211.1 156.26419 M -211.1 156.26419" stroke="black" stroke-linecap="round" stroke-linejoin="round" stroke-width="1"/>
        <text transform="translate(-240.75 166.88271)" fill="black">
          <tspan font-family="Helvetica Neue" font-size="16" fill="black" x="8.628" y="15">cred:1872</tspan>
        </text>
      </g>
      <g id="Graphic_23" filter="url(#Shadow)">
        <path d="M -215.91654 273.21342 L -176.58346 273.21342 C -163.47244 273.21342 -156.91693 273.21342 -149.05032 274.00712 C -142.4948 274.80082 -135.93929 276.78507 -133.31709 278.76932 C -130.69488 281.15043 -130.69488 283.13468 -130.69488 287.1032 L -130.69488 299.0087 C -130.69488 302.9772 -130.69488 304.96145 -133.31709 307.34255 C -135.93929 309.3268 -142.4948 311.31106 -149.05032 312.10476 C -156.91693 312.89846 -163.47244 312.89846 -176.58346 312.89846 L -215.91654 312.89846 C -229.02756 312.89846 -235.58307 312.89846 -243.44968 312.10476 C -250.0052 311.31106 -256.5607 309.3268 -259.1829 307.34255 C -261.80512 304.96145 -261.80512 302.9772 -261.80512 299.0087 L -261.80512 287.1032 C -261.80512 283.13468 -261.80512 281.15043 -259.1829 278.76932 C -256.5607 276.78507 -250.0052 274.80082 -243.44968 274.00712 C -235.58307 273.21342 -229.02756 273.21342 -215.91654 273.21342 M -215.91654 273.21342" fill="white"/>
        <path d="M -215.91654 273.21342 L -176.58346 273.21342 C -163.47244 273.21342 -156.91693 273.21342 -149.05032 274.00712 C -142.4948 274.80082 -135.93929 276.78507 -133.31709 278.76932 C -130.69488 281.15043 -130.69488 283.13468 -130.69488 287.1032 L -130.69488 299.0087 C -130.69488 302.9772 -130.69488 304.96145 -133.31709 307.34255 C -135.93929 309.3268 -142.4948 311.31106 -149.05032 312.10476 C -156.91693 312.89846 -163.47244 312.89846 -176.58346 312.89846 L -215.91654 312.89846 C -229.02756 312.89846 -235.58307 312.89846 -243.44968 312.10476 C -250.0052 311.31106 -256.5607 309.3268 -259.1829 307.34255 C -261.80512 304.96145 -261.80512 302.9772 -261.80512 299.0087 L -261.80512 287.1032 C -261.80512 283.13468 -261.80512 281.15043 -259.1829 278.76932 C -256.5607 276.78507 -250.0052 274.80082 -243.44968 274.00712 C -235.58307 273.21342 -229.02756 273.21342 -215.91654 273.21342 M -215.91654 273.21342" stroke="black" stroke-linecap="round" stroke-linejoin="round" stroke-width="1"/>
        <text transform="translate(-256.80512 283.83194)" fill="black">
          <tspan font-family="Helvetica Neue" font-size="16" fill="black" x="1.7231186" y="15">exIssuer:565049</tspan>
        </text>
      </g>
      <g id="Line_26">
        <line x1="-196.25" y1="195.94923" x2="-196.25" y2="263.31342" marker-end="url(#FilledArrow_Marker)" stroke="black" stroke-linecap="round" stroke-linejoin="round" stroke-width="1"/>
      </g>
      <g id="Graphic_25">
        <rect x="-222.434" y="214.57196" width="52.368" height="28.447998" fill="white"/>
        <text transform="translate(-217.434 219.57196)" fill="black">
          <tspan font-family="Helvetica Neue" font-size="16" fill="black" x="0" y="15">issuer</tspan>
        </text>
      </g>
      <g id="Graphic_36" filter="url(#Shadow_2)">
        <title>Superclass</title>
        <rect x="-280.5" y="-18" width="160.65111" height="56" fill="white"/>
        <rect x="-280.5" y="-18" width="160.65111" height="56" stroke="#b9c0c1" stroke-linecap="round" stroke-linejoin="round" stroke-width="2"/>
        <text transform="translate(-274.5 -8)" fill="#515556">
          <tspan font-family="Avenir" font-weight="bold" font-size="13" fill="#515556" x="13.979554" y="13">VerifiableCredential</tspan>
        </text>
      </g>
      <g id="Graphic_35" filter="url(#Shadow_2)">
        <title>Subclass</title>
        <rect x="-468.91956" y="75" width="195.94492" height="38" fill="white"/>
        <rect x="-468.91956" y="75" width="195.94492" height="38" stroke="#b9c0c1" stroke-linecap="round" stroke-linejoin="round" stroke-width="2"/>
        <text transform="translate(-462.91956 85)" fill="#515556">
          <tspan font-family="Avenir" font-weight="bold" font-size="13" fill="#515556" x="13.101458" y="13">ExampleAlumniCredential</tspan>
        </text>
      </g>
      <g id="Line_38">
        <line x1="-214.79012" y1="156.26604" x2="-265.21537" y2="102.30356" marker-end="url(#FilledArrow_Marker)" stroke="black" stroke-linecap="round" stroke-linejoin="round" stroke-width="1"/>
      </g>
      <g id="Graphic_37">
        <rect x="-248.39653" y="116.0263" width="18.592" height="28.447998" fill="white"/>
        <text transform="translate(-243.39653 121.0263)" fill="black">
          <tspan font-family="Helvetica Neue" font-size="16" fill="black" x="2762235e-19" y="15">a</tspan>
        </text>
      </g>
      <g id="Line_40">
        <line x1="-245.75" y1="176.12356" x2="-413.1" y2="176.18054" marker-end="url(#FilledArrow_Marker)" stroke="black" stroke-linecap="round" stroke-linejoin="round" stroke-width="1"/>
      </g>
      <g id="Graphic_39">
        <rect x="-366.39864" y="161.92698" width="80.24" height="28.447998" fill="white"/>
        <text transform="translate(-361.39864 166.92698)" fill="black">
          <tspan font-family="Helvetica Neue" font-size="16" fill="black" x="7958079e-19" y="15">validFrom</tspan>
        </text>
      </g>
      <g id="Graphic_45" filter="url(#Shadow)">
        <rect x="-606.5" y="162.04192" width="183.5" height="28.346457" fill="white"/>
        <rect x="-606.5" y="162.04192" width="183.5" height="28.346457" stroke="black" stroke-linecap="round" stroke-linejoin="round" stroke-width="1"/>
        <text transform="translate(-601.5 166.99114)" fill="black">
          <tspan font-family="Helvetica Neue" font-size="16" fill="black" x="4.326" y="15">2010-01-01T19:23:24Z</tspan>
        </text>
      </g>
      <g id="Line_49">
        <line x1="-146.75" y1="176.31645" x2="65.60009" y2="177.21622" marker-end="url(#FilledArrow_Marker)" stroke="black" stroke-linecap="round" stroke-linejoin="round" stroke-width="1"/>
      </g>
      <g id="Graphic_48">
        <rect x="-100.20567" y="162.57454" width="134.464" height="28.447998" fill="white"/>
        <text transform="translate(-95.20567 167.57454)" fill="black">
          <tspan font-family="Helvetica Neue" font-size="16" fill="black" x="0" y="15">credentialSubject</tspan>
        </text>
      </g>
      <g id="Line_51">
        <path d="M -217.5769 195.93753 L -320.83333 291.95057 L -320.63773 341.83723" marker-end="url(#FilledArrow_Marker)" stroke="black" stroke-linecap="round" stroke-linejoin="round" stroke-width="1"/>
      </g>
      <g id="Graphic_50">
        <rect x="-290.51176" y="227.38673" width="47.632" height="28.447998" fill="white"/>
        <text transform="translate(-285.51176 232.38673)" fill="black">
          <tspan font-family="Helvetica Neue" font-size="16" fill="black" x="7176482e-19" y="15">proof</tspan>
        </text>
      </g>
      <g id="Graphic_52" filter="url(#Shadow)">
        <ellipse cx="-556.75" cy="517.43576" rx="16.2500259659058" ry="14.1986364372367" fill="white"/>
        <ellipse cx="-556.75" cy="517.43576" rx="16.2500259659058" ry="14.1986364372367" stroke="black" stroke-linecap="round" stroke-linejoin="round" stroke-width="1"/>
      </g>
      <g id="Group_62">
        <g id="Graphic_61">
          <title>Attributes</title>
          <rect x="-595.61024" y="417.272" width="165.11024" height="14.396266" stroke="#b9c0c1" stroke-linecap="round" stroke-linejoin="round" stroke-width="2"/>
        </g>
        <g id="Graphic_60">
          <title>Class Name</title>
          <rect x="-595.61024" y="392.66825" width="165.11024" height="24.603734" stroke="#b9c0c1" stroke-linecap="round" stroke-linejoin="round" stroke-width="2"/>
          <text transform="translate(-589.61024 395.9701)" fill="#515556">
            <tspan font-family="Avenir" font-weight="bold" font-size="13" fill="#515556" x="17.691115" y="13">DataIIntegrityProof</tspan>
          </text>
        </g>
      </g>
      <g id="Line_64">
        <line x1="-551.5252" y1="503.98774" x2="-521.80837" y2="427.5" marker-end="url(#FilledArrow_Marker)" stroke="black" stroke-linecap="round" stroke-linejoin="round" stroke-width="1"/>
      </g>
      <g id="Graphic_63">
        <rect x="-546.66375" y="453.32406" width="18.592" height="28.447998" fill="white"/>
        <text transform="translate(-541.66375 458.32406)" fill="black">
          <tspan font-family="Helvetica Neue" font-size="16" fill="black" x="2762235e-19" y="15">a</tspan>
        </text>
      </g>
      <g id="Line_67">
        <line x1="-540.5" y1="517.4346" x2="-297.9" y2="517.41754" marker-end="url(#FilledArrow_Marker)" stroke="black" stroke-linecap="round" stroke-linejoin="round" stroke-width="1"/>
      </g>
      <g id="Graphic_66">
        <rect x="-476.41956" y="503.20386" width="63.936" height="28.447998" fill="white"/>
        <text transform="translate(-471.41956 508.20386)" fill="black">
          <tspan font-family="Helvetica Neue" font-size="16" fill="black" x="7531753e-19" y="15">created</tspan>
        </text>
      </g>
      <g id="Graphic_65" filter="url(#Shadow)">
        <rect x="-288" y="503.23715" width="183.5" height="28.346457" fill="white"/>
        <rect x="-288" y="503.23715" width="183.5" height="28.346457" stroke="black" stroke-linecap="round" stroke-linejoin="round" stroke-width="1"/>
        <text transform="translate(-283 508.1864)" fill="black">
          <tspan font-family="Helvetica Neue" font-size="16" fill="black" x="4.326" y="15">2023-06-18T21:19:10Z</tspan>
        </text>
      </g>
      <g id="Line_69">
        <path d="M -548.83076 529.83835 L -512.5 586.73715 L -392.89905 585.07595" marker-end="url(#FilledArrow_Marker)" stroke="black" stroke-linecap="round" stroke-linejoin="round" stroke-width="1"/>
      </g>
      <g id="Graphic_68">
        <rect x="-497.1373" y="571.7014" width="86.16" height="28.447998" fill="white"/>
        <text transform="translate(-492.1373 576.7014)" fill="black">
          <tspan font-family="Helvetica Neue" font-size="16" fill="black" x="0" y="15">proofValue</tspan>
        </text>
      </g>
      <g id="Graphic_70" filter="url(#Shadow)">
        <rect x="-383" y="547.4104" width="340.5" height="70.32677" fill="white"/>
        <rect x="-383" y="547.4104" width="340.5" height="70.32677" stroke="black" stroke-linecap="round" stroke-linejoin="round" stroke-width="1"/>
        <text transform="translate(-378 554.9018)" fill="black">
          <tspan font-family="Helvetica Neue" font-size="16" fill="black" x="0" y="15">zQeVbY4oey5q2M3XKaxup3tmzN4DRFTLVq</tspan>
          <tspan font-family="Helvetica Neue" font-size="16" fill="black" x="0" y="33.448">pLMweBrSxMY2xHX5XTYV8nQApmEcqaqA3</tspan>
          <tspan font-family="Helvetica Neue" font-size="16" fill="black" x="0" y="51.895996">Q1gVHMrXFkXJeV6doDwLWx</tspan>
        </text>
      </g>
      <g id="Line_73">
        <path d="M -553.2681 531.3064 L -520.2755 662.73715 L -297.89988 661.6365" marker-end="url(#FilledArrow_Marker)" stroke="black" stroke-linecap="round" stroke-linejoin="round" stroke-width="1"/>
      </g>
      <g id="Graphic_72">
        <rect x="-474.4006" y="648.0201" width="107.488" height="28.447998" fill="white"/>
        <text transform="translate(-469.4006 653.0201)" fill="black">
          <tspan font-family="Helvetica Neue" font-size="16" fill="black" x="5968559e-19" y="15">proofPurpose</tspan>
        </text>
      </g>
      <g id="Graphic_71" filter="url(#Shadow)">
        <path d="M -214.5 643.7185 L -151.5 643.7185 C -130.5 643.7185 -120 643.7185 -107.4 644.4125 C -96.9 645.1065 -86.4 646.8414 -82.2 648.5763 C -78 650.65825 -78 652.3932 -78 655.86304 L -78 666.2726 C -78 669.7425 -78 671.4774 -82.2 673.5593 C -86.4 675.2943 -96.9 677.0292 -107.4 677.7232 C -120 678.41714 -130.5 678.41714 -151.5 678.41714 L -214.5 678.41714 C -235.5 678.41714 -246 678.41714 -258.6 677.7232 C -269.1 677.0292 -279.6 675.2943 -283.8 673.5593 C -288 671.4774 -288 669.7425 -288 666.2726 L -288 655.86304 C -288 652.3932 -288 650.65825 -283.8 648.5763 C -279.6 646.8414 -269.1 645.1065 -258.6 644.4125 C -246 643.7185 -235.5 643.7185 -214.5 643.7185 M -214.5 643.7185" fill="white"/>
        <path d="M -214.5 643.7185 L -151.5 643.7185 C -130.5 643.7185 -120 643.7185 -107.4 644.4125 C -96.9 645.1065 -86.4 646.8414 -82.2 648.5763 C -78 650.65825 -78 652.3932 -78 655.86304 L -78 666.2726 C -78 669.7425 -78 671.4774 -82.2 673.5593 C -86.4 675.2943 -96.9 677.0292 -107.4 677.7232 C -120 678.41714 -130.5 678.41714 -151.5 678.41714 L -214.5 678.41714 C -235.5 678.41714 -246 678.41714 -258.6 677.7232 C -269.1 677.0292 -279.6 675.2943 -283.8 673.5593 C -288 671.4774 -288 669.7425 -288 666.2726 L -288 655.86304 C -288 652.3932 -288 650.65825 -283.8 648.5763 C -279.6 646.8414 -269.1 645.1065 -258.6 644.4125 C -246 643.7185 -235.5 643.7185 -214.5 643.7185 M -214.5 643.7185" stroke="black" stroke-linecap="round" stroke-linejoin="round" stroke-width="1"/>
        <text transform="translate(-283 651.8438)" fill="black">
          <tspan font-family="Helvetica Neue" font-size="16" fill="black" x="25.024" y="15">sec:assertionMethod </tspan>
        </text>
      </g>
      <g id="Line_77">
        <path d="M -556.20904 531.62656 L -549 720.73715 L -297.89996 721.4305" marker-end="url(#FilledArrow_Marker)" stroke="black" stroke-linecap="round" stroke-linejoin="round" stroke-width="1"/>
      </g>
      <g id="Graphic_76">
        <rect x="-495.8448" y="706.857" width="142.752" height="28.447998" fill="white"/>
        <text transform="translate(-490.8448 711.857)" fill="black">
          <tspan font-family="Helvetica Neue" font-size="16" fill="black" x="19895197e-20" y="15">verificationMethod</tspan>
        </text>
      </g>
      <g id="Graphic_75" filter="url(#Shadow)">
        <path d="M -214.5 704.3985 L -151.5 704.3985 C -130.5 704.3985 -120 704.3985 -107.4 705.0925 C -96.9 705.7865 -86.4 707.5214 -82.2 709.2563 C -78 711.3382 -78 713.0732 -78 716.543 L -78 726.9526 C -78 730.4225 -78 732.1574 -82.2 734.2393 C -86.4 735.9743 -96.9 737.7092 -107.4 738.4032 C -120 739.0971 -130.5 739.0971 -151.5 739.0971 L -214.5 739.0971 C -235.5 739.0971 -246 739.0971 -258.6 738.4032 C -269.1 737.7092 -279.6 735.9743 -283.8 734.2393 C -288 732.1574 -288 730.4225 -288 726.9526 L -288 716.543 C -288 713.0732 -288 711.3382 -283.8 709.2563 C -279.6 707.5214 -269.1 705.7865 -258.6 705.0925 C -246 704.3985 -235.5 704.3985 -214.5 704.3985 M -214.5 704.3985" fill="white"/>
        <path d="M -214.5 704.3985 L -151.5 704.3985 C -130.5 704.3985 -120 704.3985 -107.4 705.0925 C -96.9 705.7865 -86.4 707.5214 -82.2 709.2563 C -78 711.3382 -78 713.0732 -78 716.543 L -78 726.9526 C -78 730.4225 -78 732.1574 -82.2 734.2393 C -86.4 735.9743 -96.9 737.7092 -107.4 738.4032 C -120 739.0971 -130.5 739.0971 -151.5 739.0971 L -214.5 739.0971 C -235.5 739.0971 -246 739.0971 -258.6 738.4032 C -269.1 737.7092 -279.6 735.9743 -283.8 734.2393 C -288 732.1574 -288 730.4225 -288 726.9526 L -288 716.543 C -288 713.0732 -288 711.3382 -283.8 709.2563 C -279.6 707.5214 -269.1 705.7865 -258.6 705.0925 C -246 704.3985 -235.5 704.3985 -214.5 704.3985 M -214.5 704.3985" stroke="black" stroke-linecap="round" stroke-linejoin="round" stroke-width="1"/>
        <text transform="translate(-283 712.5238)" fill="black">
          <tspan font-family="Helvetica Neue" font-size="16" fill="black" x="29.144" y="15">ec:565049#key-123</tspan>
        </text>
      </g>
      <g id="Line_79">
        <line x1="-196.81385" y1="156.26419" x2="-199.86482" y2="48.896005" marker-end="url(#FilledArrow_Marker)" stroke="black" stroke-linecap="round" stroke-linejoin="round" stroke-width="1"/>
      </g>
      <g id="Graphic_78">
        <rect x="-207.52643" y="92.18857" width="18.592" height="28.447998" fill="white"/>
        <text transform="translate(-202.52643 97.18857)" fill="black">
          <tspan font-family="Helvetica Neue" font-size="16" fill="black" x="2762235e-19" y="15">a</tspan>
        </text>
      </g>
      <g id="Line_82">
        <path d="M -543.5209 509.18643 L -458.6832 456.2837 L -297.89997 455.86634" marker-end="url(#FilledArrow_Marker)" stroke="black" stroke-linecap="round" stroke-linejoin="round" stroke-width="1"/>
      </g>
      <g id="Graphic_81">
        <rect x="-430.4825" y="441.87006" width="89.712" height="28.447998" fill="white"/>
        <text transform="translate(-425.4825 446.87006)" fill="black">
          <tspan font-family="Helvetica Neue" font-size="16" fill="black" x="0" y="15">cryptosuite</tspan>
        </text>
      </g>
      <g id="Graphic_80" filter="url(#Shadow)">
        <rect x="-288" y="438.32907" width="125.02391" height="34.698614" fill="white"/>
        <rect x="-288" y="438.32907" width="125.02391" height="34.698614" stroke="black" stroke-linecap="round" stroke-linejoin="round" stroke-width="1"/>
        <text transform="translate(-283 446.45437)" fill="black">
          <tspan font-family="Helvetica Neue" font-size="16" fill="black" x="14.527955" y="15">eddsa-2022</tspan>
        </text>
      </g>
      <g id="Graphic_84" filter="url(#Shadow)">
        <ellipse cx="-813.1526" cy="888.8425" rx="21.8474759272845" ry="19.8425515714736" fill="white"/>
        <ellipse cx="-813.1526" cy="888.8425" rx="21.8474759272845" ry="19.8425515714736" stroke="black" stroke-linecap="round" stroke-linejoin="round" stroke-width="1"/>
      </g>
      <g id="Line_88">
        <line x1="-796.9173" y1="875.564" x2="-653.83775" y2="758.5421" marker-end="url(#FilledArrow_Marker_2)" stroke="black" stroke-linecap="round" stroke-linejoin="round" stroke-width="1"/>
      </g>
      <g id="Graphic_91" filter="url(#Shadow_2)">
        <title>Superclass</title>
        <rect x="-893.4781" y="697.305" width="160.65111" height="38" fill="white"/>
        <rect x="-893.4781" y="697.305" width="160.65111" height="38" stroke="#b9c0c1" stroke-linecap="round" stroke-linejoin="round" stroke-width="2"/>
        <text transform="translate(-887.4781 707.305)" fill="#515556">
          <tspan font-family="Avenir" font-weight="bold" font-size="13" fill="#515556" x="7.135054" y="13">VerifiablePresentation</tspan>
        </text>
      </g>
      <g id="Line_90">
        <line x1="-813.1526" y1="869" x2="-813.1526" y2="746.205" marker-end="url(#FilledArrow_Marker)" stroke="black" stroke-linecap="round" stroke-linejoin="round" stroke-width="1"/>
      </g>
      <g id="Graphic_89">
        <rect x="-822.4486" y="798.3644" width="18.592" height="28.447998" fill="white"/>
        <text transform="translate(-817.4486 803.3644)" fill="black">
          <tspan font-family="Helvetica Neue" font-size="16" fill="black" x="2762235e-19" y="15">a</tspan>
        </text>
      </g>
      <g id="Graphic_92">
        <rect x="-789.0597" y="794.8483" width="146.88" height="28.447998" fill="white"/>
        <text transform="translate(-784.0597 799.8483)" fill="black">
          <tspan font-family="Helvetica Neue" font-size="16" fill="black" x="5115908e-19" y="15">verifiableCredential</tspan>
        </text>
      </g>
      <g id="Graphic_116" filter="url(#Shadow)">
        <rect x="-646.17444" y="925" width="588.5" height="551" fill="#eef6ff"/>
        <rect x="-646.17444" y="925" width="588.5" height="551" stroke="black" stroke-linecap="round" stroke-linejoin="round" stroke-width="1"/>
        <text transform="translate(-641.17444 930)" fill="black">
          <tspan font-family="Helvetica Neue" font-style="italic" font-size="16" fill="black" x="0" y="15">Verifiable Presentation Proof Graph</tspan>
        </text>
      </g>
      <g id="Line_115">
        <line x1="-795.6219" y1="900.6882" x2="-654.3773" y2="996.1289" marker-end="url(#FilledArrow_Marker)" stroke="black" stroke-linecap="round" stroke-linejoin="round" stroke-width="1"/>
      </g>
      <g id="Graphic_114">
        <rect x="-752.8315" y="931.471" width="47.632" height="28.447998" fill="white"/>
        <text transform="translate(-747.8315 936.471)" fill="black">
          <tspan font-family="Helvetica Neue" font-size="16" fill="black" x="7176482e-19" y="15">proof</tspan>
        </text>
      </g>
      <g id="Graphic_113" filter="url(#Shadow)">
        <ellipse cx="-588.92444" cy="1090.6986" rx="16.2500259659057" ry="14.198636437237" fill="white"/>
        <ellipse cx="-588.92444" cy="1090.6986" rx="16.2500259659057" ry="14.198636437237" stroke="black" stroke-linecap="round" stroke-linejoin="round" stroke-width="1"/>
      </g>
      <g id="Group_110">
        <g id="Graphic_112">
          <title>Attributes</title>
          <rect x="-627.7847" y="990.5348" width="165.11024" height="14.396266" stroke="#b9c0c1" stroke-linecap="round" stroke-linejoin="round" stroke-width="2"/>
        </g>
        <g id="Graphic_111">
          <title>Class Name</title>
          <rect x="-627.7847" y="965.9311" width="165.11024" height="24.603734" stroke="#b9c0c1" stroke-linecap="round" stroke-linejoin="round" stroke-width="2"/>
          <text transform="translate(-621.7847 969.233)" fill="#515556">
            <tspan font-family="Avenir" font-weight="bold" font-size="13" fill="#515556" x="17.691115" y="13">DataIIntegrityProof</tspan>
          </text>
        </g>
      </g>
      <g id="Line_109">
        <line x1="-583.69965" y1="1077.2506" x2="-553.9828" y2="1000.7628" marker-end="url(#FilledArrow_Marker)" stroke="black" stroke-linecap="round" stroke-linejoin="round" stroke-width="1"/>
      </g>
      <g id="Graphic_108">
        <rect x="-578.8382" y="1026.5869" width="18.592" height="28.447998" fill="white"/>
        <text transform="translate(-573.8382 1031.5869)" fill="black">
          <tspan font-family="Helvetica Neue" font-size="16" fill="black" x="2762235e-19" y="15">a</tspan>
        </text>
      </g>
      <g id="Line_107">
        <line x1="-572.67444" y1="1090.6975" x2="-321.4" y2="1090.6802" marker-end="url(#FilledArrow_Marker)" stroke="black" stroke-linecap="round" stroke-linejoin="round" stroke-width="1"/>
      </g>
      <g id="Graphic_106">
        <rect x="-505.29433" y="1076.4667" width="63.936" height="28.447998" fill="white"/>
        <text transform="translate(-500.29433 1081.4667)" fill="black">
          <tspan font-family="Helvetica Neue" font-size="16" fill="black" x="7531753e-19" y="15">created</tspan>
        </text>
      </g>
      <g id="Graphic_105" filter="url(#Shadow)">
        <rect x="-311.5" y="1076.5" width="183.5" height="28.346457" fill="white"/>
        <rect x="-311.5" y="1076.5" width="183.5" height="28.346457" stroke="black" stroke-linecap="round" stroke-linejoin="round" stroke-width="1"/>
        <text transform="translate(-306.5 1081.4492)" fill="black">
          <tspan font-family="Helvetica Neue" font-size="16" fill="black" x="4.326" y="15">2018-09-14T21:19:10Z</tspan>
        </text>
      </g>
      <g id="Line_104">
        <path d="M -584.2664 1104.3042 L -508.594 1325.3333 L -444.8961 1327.1175" marker-end="url(#FilledArrow_Marker)" stroke="black" stroke-linecap="round" stroke-linejoin="round" stroke-width="1"/>
      </g>
      <g id="Graphic_103">
        <rect x="-563.723" y="1275.9158" width="86.16" height="28.447998" fill="white"/>
        <text transform="translate(-558.723 1280.9158)" fill="black">
          <tspan font-family="Helvetica Neue" font-size="16" fill="black" x="0" y="15">proofValue</tspan>
        </text>
      </g>
      <g id="Graphic_102" filter="url(#Shadow)">
        <rect x="-435" y="1297" width="340.5" height="70.32677" fill="white"/>
        <rect x="-435" y="1297" width="340.5" height="70.32677" stroke="black" stroke-linecap="round" stroke-linejoin="round" stroke-width="1"/>
        <text transform="translate(-430 1304.4914)" fill="black">
          <tspan font-family="Helvetica Neue" font-size="16" fill="black" x="0" y="15">&quot;zqpLMweBrSxMY2xHX5XTYV8nQAJeV6doD</tspan>
          <tspan font-family="Helvetica Neue" font-size="16" fill="black" x="0" y="33.448">wLWxQeVbY4oey5q2pmEcqaqA3Q1gVHMrX</tspan>
          <tspan font-family="Helvetica Neue" font-size="16" fill="black" x="0" y="51.895996">FkXM3XKaxup3tmzN4DRFTLV</tspan>
        </text>
      </g>
      <g id="Line_101">
        <path d="M -575.5138 1098.7216 L -482 1154.6667 L -343.32405 1153.4299" marker-end="url(#FilledArrow_Marker)" stroke="black" stroke-linecap="round" stroke-linejoin="round" stroke-width="1"/>
      </g>
      <g id="Graphic_100">
        <rect x="-480.0622" y="1139.9461" width="107.488" height="28.447998" fill="white"/>
        <text transform="translate(-475.0622 1144.9461)" fill="black">
          <tspan font-family="Helvetica Neue" font-size="16" fill="black" x="5968559e-19" y="15">proofPurpose</tspan>
        </text>
      </g>
      <g id="Graphic_99" filter="url(#Shadow)">
        <path d="M -259.92444 1135.0559 L -196.92444 1135.0559 C -175.92444 1135.0559 -165.42444 1135.0559 -152.82444 1135.7499 C -142.32444 1136.4439 -131.82444 1138.1788 -127.62444 1139.9137 C -123.42444 1141.9957 -123.42444 1143.7306 -123.42444 1147.2004 L -123.42444 1157.61 C -123.42444 1161.0799 -123.42444 1162.8148 -127.62444 1164.8967 C -131.82444 1166.6317 -142.32444 1168.3666 -152.82444 1169.0606 C -165.42444 1169.7545 -175.92444 1169.7545 -196.92444 1169.7545 L -259.92444 1169.7545 C -280.92444 1169.7545 -291.42444 1169.7545 -304.02444 1169.0606 C -314.52444 1168.3666 -325.02444 1166.6317 -329.22444 1164.8967 C -333.42444 1162.8148 -333.42444 1161.0799 -333.42444 1157.61 L -333.42444 1147.2004 C -333.42444 1143.7306 -333.42444 1141.9957 -329.22444 1139.9137 C -325.02444 1138.1788 -314.52444 1136.4439 -304.02444 1135.7499 C -291.42444 1135.0559 -280.92444 1135.0559 -259.92444 1135.0559 M -259.92444 1135.0559" fill="white"/>
        <path d="M -259.92444 1135.0559 L -196.92444 1135.0559 C -175.92444 1135.0559 -165.42444 1135.0559 -152.82444 1135.7499 C -142.32444 1136.4439 -131.82444 1138.1788 -127.62444 1139.9137 C -123.42444 1141.9957 -123.42444 1143.7306 -123.42444 1147.2004 L -123.42444 1157.61 C -123.42444 1161.0799 -123.42444 1162.8148 -127.62444 1164.8967 C -131.82444 1166.6317 -142.32444 1168.3666 -152.82444 1169.0606 C -165.42444 1169.7545 -175.92444 1169.7545 -196.92444 1169.7545 L -259.92444 1169.7545 C -280.92444 1169.7545 -291.42444 1169.7545 -304.02444 1169.0606 C -314.52444 1168.3666 -325.02444 1166.6317 -329.22444 1164.8967 C -333.42444 1162.8148 -333.42444 1161.0799 -333.42444 1157.61 L -333.42444 1147.2004 C -333.42444 1143.7306 -333.42444 1141.9957 -329.22444 1139.9137 C -325.02444 1138.1788 -314.52444 1136.4439 -304.02444 1135.7499 C -291.42444 1135.0559 -280.92444 1135.0559 -259.92444 1135.0559 M -259.92444 1135.0559" stroke="black" stroke-linecap="round" stroke-linejoin="round" stroke-width="1"/>
        <text transform="translate(-328.42444 1143.1812)" fill="black">
          <tspan font-family="Helvetica Neue" font-size="16" fill="black" x="6.936" y="15">sec:authenticationMethod  </tspan>
        </text>
      </g>
      <g id="Line_98">
        <path d="M -588.3903 1104.8896 L -578.8382 1358.6667 L -394.11325 1401.7513" marker-end="url(#FilledArrow_Marker)" stroke="black" stroke-linecap="round" stroke-linejoin="round" stroke-width="1"/>
      </g>
      <g id="Graphic_97">
        <rect x="-604.1465" y="1355.1873" width="142.752" height="28.447998" fill="white"/>
        <text transform="translate(-599.1465 1360.1873)" fill="black">
          <tspan font-family="Helvetica Neue" font-size="16" fill="black" x="19895197e-20" y="15">verificationMethod</tspan>
        </text>
      </g>
      <g id="Graphic_96" filter="url(#Shadow)">
        <path d="M -379.7134 1404 L -240.46106 1404 C -194.0436 1404 -170.83489 1404 -142.98442 1404.694 C -119.7757 1405.388 -96.56698 1407.1229 -87.28349 1408.8578 C -78 1410.9397 -78 1412.6747 -78 1416.1445 L -78 1426.5541 C -78 1430.024 -78 1431.7589 -87.28349 1433.8408 C -96.56698 1435.5757 -119.7757 1437.3107 -142.98442 1438.0046 C -170.83489 1438.6986 -194.0436 1438.6986 -240.46106 1438.6986 L -379.7134 1438.6986 C -426.13083 1438.6986 -449.33956 1438.6986 -477.19 1438.0046 C -500.39874 1437.3107 -523.60747 1435.5757 -532.89095 1433.8408 C -542.17444 1431.7589 -542.17444 1430.024 -542.17444 1426.5541 L -542.17444 1416.1445 C -542.17444 1412.6747 -542.17444 1410.9397 -532.89095 1408.8578 C -523.60747 1407.1229 -500.39874 1405.388 -477.19 1404.694 C -449.33956 1404 -426.13083 1404 -379.7134 1404 M -379.7134 1404" fill="white"/>
        <path d="M -379.7134 1404 L -240.46106 1404 C -194.0436 1404 -170.83489 1404 -142.98442 1404.694 C -119.7757 1405.388 -96.56698 1407.1229 -87.28349 1408.8578 C -78 1410.9397 -78 1412.6747 -78 1416.1445 L -78 1426.5541 C -78 1430.024 -78 1431.7589 -87.28349 1433.8408 C -96.56698 1435.5757 -119.7757 1437.3107 -142.98442 1438.0046 C -170.83489 1438.6986 -194.0436 1438.6986 -240.46106 1438.6986 L -379.7134 1438.6986 C -426.13083 1438.6986 -449.33956 1438.6986 -477.19 1438.0046 C -500.39874 1437.3107 -523.60747 1435.5757 -532.89095 1433.8408 C -542.17444 1431.7589 -542.17444 1430.024 -542.17444 1426.5541 L -542.17444 1416.1445 C -542.17444 1412.6747 -542.17444 1410.9397 -532.89095 1408.8578 C -523.60747 1407.1229 -500.39874 1405.388 -477.19 1404.694 C -449.33956 1404 -426.13083 1404 -379.7134 1404 M -379.7134 1404" stroke="black" stroke-linecap="round" stroke-linejoin="round" stroke-width="1"/>
        <text transform="translate(-537.17444 1412.1253)" fill="black">
          <tspan font-family="Helvetica Neue" font-size="16" fill="black" x="39.01522" y="15">did:example:ebfeb1f712ebc6f1c276e12ec21#keys-1</tspan>
        </text>
      </g>
      <g id="Line_95">
        <path d="M -575.69536 1082.4493 L -490.85764 1029.5466 L -321.39997 1029.1224" marker-end="url(#FilledArrow_Marker)" stroke="black" stroke-linecap="round" stroke-linejoin="round" stroke-width="1"/>
      </g>
      <g id="Graphic_94">
        <rect x="-457.11133" y="1015.1258" width="89.712" height="28.447998" fill="white"/>
        <text transform="translate(-452.11133 1020.1258)" fill="black">
          <tspan font-family="Helvetica Neue" font-size="16" fill="black" x="0" y="15">cryptosuite</tspan>
        </text>
      </g>
      <g id="Graphic_93" filter="url(#Shadow)">
        <rect x="-311.5" y="1011.5919" width="125.02391" height="34.698614" fill="white"/>
        <rect x="-311.5" y="1011.5919" width="125.02391" height="34.698614" stroke="black" stroke-linecap="round" stroke-linejoin="round" stroke-width="1"/>
        <text transform="translate(-306.5 1019.7172)" fill="black">
          <tspan font-family="Helvetica Neue" font-size="16" fill="black" x="14.527955" y="15">eddsa-2022</tspan>
        </text>
      </g>
      <g id="Line_119">
        <path d="M -578.5636 1101.6381 L -462.67444 1224 L -321.3999 1224.666" marker-end="url(#FilledArrow_Marker)" stroke="black" stroke-linecap="round" stroke-linejoin="round" stroke-width="1"/>
      </g>
      <g id="Graphic_118">
        <rect x="-444.9326" y="1210.009" width="63.36" height="28.447998" fill="white"/>
        <text transform="translate(-439.9326 1215.009)" fill="black">
          <tspan font-family="Helvetica Neue" font-size="16" fill="black" x="2877698e-19" y="15">domain</tspan>
        </text>
      </g>
      <g id="Graphic_117" filter="url(#Shadow)">
        <rect x="-311.5" y="1210.972" width="183.5" height="28.346457" fill="white"/>
        <rect x="-311.5" y="1210.972" width="183.5" height="28.346457" stroke="black" stroke-linecap="round" stroke-linejoin="round" stroke-width="1"/>
        <text transform="translate(-306.5 1215.9213)" fill="black">
          <tspan font-family="Helvetica Neue" font-size="16" fill="black" x="40.054" y="15">4jt78h47fh47</tspan>
        </text>
      </g>
    </g>
  </g>
</svg>
