<?xml version="1.0" encoding="UTF-8" standalone="no"?>
<!DOCTYPE svg PUBLIC "-//W3C//DTD SVG 1.1//EN" "http://www.w3.org/Graphics/SVG/1.1/DTD/svg11.dtd">
<svg xmlns="http://www.w3.org/2000/svg" xmlns:dc="http://purl.org/dc/elements/1.1/" xmlns:xl="http://www.w3.org/1999/xlink" version="1.1" viewBox="-636 -83 1063 781" width="1063" height="781">
  <defs>
    <filter id="Shadow" filterUnits="userSpaceOnUse" x="-742.3" y="-161.1">
      <feGaussianBlur in="SourceAlpha" result="blur" stdDeviation="1.308"/>
      <feOffset in="blur" result="offset" dx="0" dy="2"/>
      <feFlood flood-color="black" flood-opacity=".5" result="flood"/>
      <feComposite in="flood" in2="offset" operator="in" result="color"/>
      <feMerge>
        <feMergeNode in="color"/>
        <feMergeNode in="SourceGraphic"/>
      </feMerge>
    </filter>
    <marker orient="auto" overflow="visible" markerUnits="strokeWidth" id="FilledArrow_Marker" stroke-linejoin="miter" stroke-miterlimit="10" viewBox="-1 -4 10 8" markerWidth="10" markerHeight="8" color="black">
      <g>
        <path d="M 8 0 L 0 -3 L 0 3 Z" fill="currentColor" stroke="currentColor" stroke-width="1"/>
      </g>
    </marker>
    <filter id="Shadow_2" filterUnits="userSpaceOnUse" x="-742.3" y="-161.1">
      <feOffset in="SourceAlpha" result="offset" dx="0" dy="2"/>
      <feFlood flood-color="#919191" flood-opacity=".25" result="flood"/>
      <feComposite in="flood" in2="offset" operator="in" result="color"/>
      <feMerge>
        <feMergeNode in="color"/>
        <feMergeNode in="SourceGraphic"/>
      </feMerge>
    </filter>
  </defs>
  <metadata> Produced by OmniGraffle 7.21.5\n2023-08-25 19:36:58 +0000</metadata>
  <g id="Intermediate" fill="none" fill-opacity="1" stroke-opacity="1" stroke="none" stroke-dasharray="none">
    <title>Intermediate</title>
    <rect fill="white" x="-636" y="-83" width="1063" height="781"/>
    <g id="Intermediate_Layer_1">
      <title>Layer 1</title>
      <g id="Graphic_2" filter="url(#Shadow)">
        <rect x="-631.8051" y="-81" width="1054.8338" height="423.6574" fill="#f9eef2"/>
        <rect x="-631.8051" y="-81" width="1054.8338" height="423.6574" stroke="black" stroke-linecap="round" stroke-linejoin="round" stroke-width="1"/>
        <text transform="translate(-626.8051 -76)" fill="black">
          <tspan font-family="Helvetica Neue" font-style="italic" font-size="16" fill="black" x="0" y="15">Credential Graph</tspan>
        </text>
      </g>
      <g id="Graphic_81" filter="url(#Shadow)">
        <rect x="-16.359562" y="-40.5" width="416.35956" height="353.39846" fill="#ffffc0"/>
        <rect x="-16.359562" y="-40.5" width="416.35956" height="353.39846" stroke="black" stroke-linecap="round" stroke-linejoin="round" stroke-width="1"/>
        <text transform="translate(-11.359562 -35.5)" fill="black">
          <tspan font-family="Helvetica Neue" font-style="italic" font-size="16" fill="black" x="0" y="15">Claim</tspan>
        </text>
      </g>
      <g id="Graphic_8" filter="url(#Shadow)">
        <path d="M 33.822835 161.9081 L 52.956693 161.9081 C 59.334646 161.9081 62.52362 161.9081 66.350394 162.7018 C 69.53937 163.4955 72.72835 165.47975 74.00394 167.464 C 75.27953 169.8451 75.27953 171.82936 75.27953 175.79786 L 75.27953 187.70337 C 75.27953 191.67188 75.27953 193.65613 74.00394 196.03723 C 72.72835 198.02148 69.53937 200.00573 66.350394 200.79943 C 62.52362 201.59314 59.334646 201.59314 52.956693 201.59314 L 33.822835 201.59314 C 27.444882 201.59314 24.255906 201.59314 20.429134 200.79943 C 17.240158 200.00573 14.051181 198.02148 12.77559 196.03723 C 11.5 193.65613 11.5 191.67188 11.5 187.70337 L 11.5 175.79786 C 11.5 171.82936 11.5 169.8451 12.77559 167.464 C 14.051181 165.47975 17.240158 163.4955 20.429134 162.7018 C 24.255906 161.9081 27.444882 161.9081 33.822835 161.9081 M 33.822835 161.9081" fill="white"/>
        <path d="M 33.822835 161.9081 L 52.956693 161.9081 C 59.334646 161.9081 62.52362 161.9081 66.350394 162.7018 C 69.53937 163.4955 72.72835 165.47975 74.00394 167.464 C 75.27953 169.8451 75.27953 171.82936 75.27953 175.79786 L 75.27953 187.70337 C 75.27953 191.67188 75.27953 193.65613 74.00394 196.03723 C 72.72835 198.02148 69.53937 200.00573 66.350394 200.79943 C 62.52362 201.59314 59.334646 201.59314 52.956693 201.59314 L 33.822835 201.59314 C 27.444882 201.59314 24.255906 201.59314 20.429134 200.79943 C 17.240158 200.00573 14.051181 198.02148 12.77559 196.03723 C 11.5 193.65613 11.5 191.67188 11.5 187.70337 L 11.5 175.79786 C 11.5 171.82936 11.5 169.8451 12.77559 167.464 C 14.051181 165.47975 17.240158 163.4955 20.429134 162.7018 C 24.255906 161.9081 27.444882 161.9081 33.822835 161.9081 M 33.822835 161.9081" stroke="black" stroke-linecap="round" stroke-linejoin="round" stroke-width="1"/>
        <text transform="translate(16.5 172.52662)" fill="black">
          <tspan font-family="Helvetica Neue" font-size="16" fill="black" x="4.801765" y="15">c2763</tspan>
        </text>
      </g>
      <g id="Line_10">
        <path d="M 60.3494 201.50582 L 114 264 L 161.1 264.05666" marker-end="url(#FilledArrow_Marker)" stroke="black" stroke-linecap="round" stroke-linejoin="round" stroke-width="1"/>
      </g>
      <g id="Group_41">
        <g id="Graphic_11" filter="url(#Shadow)">
          <rect x="171" y="250" width="174" height="28.346457" fill="white"/>
          <rect x="171" y="250" width="174" height="28.346457" stroke="black" stroke-linecap="round" stroke-linejoin="round" stroke-width="1"/>
          <text transform="translate(176 254.94923)" fill="black">
            <tspan font-family="Helvetica Neue" font-size="16" fill="black" x="13.552" y="15">Example University</tspan>
          </text>
        </g>
        <g id="Graphic_13" filter="url(#Shadow)">
          <rect x="345" y="250.05077" width="36" height="28.346457" fill="white"/>
          <rect x="345" y="250.05077" width="36" height="28.346457" stroke="black" stroke-linecap="round" stroke-linejoin="round" stroke-width="1"/>
          <text transform="translate(350 255)" fill="black">
            <tspan font-family="Helvetica Neue" font-size="16" fill="black" x="4.256" y="15">en</tspan>
          </text>
        </g>
      </g>
      <g id="Line_17">
        <line x1="75.27953" y1="181.74684" x2="161.1" y2="181.7367" marker-end="url(#FilledArrow_Marker)" stroke="black" stroke-linecap="round" stroke-linejoin="round" stroke-width="1"/>
      </g>
      <g id="Group_42">
        <g id="Graphic_15" filter="url(#Shadow)">
          <rect x="171" y="167.552" width="174" height="28.346457" fill="white"/>
          <rect x="171" y="167.552" width="174" height="28.346457" stroke="black" stroke-linecap="round" stroke-linejoin="round" stroke-width="1"/>
          <text transform="translate(176 172.50123)" fill="black">
            <tspan font-family="Helvetica Neue" font-size="16" fill="black" x="6.288" y="15">Exemple d&apos;Université</tspan>
          </text>
        </g>
        <g id="Graphic_14" filter="url(#Shadow)">
          <rect x="345" y="167.60277" width="36" height="28.346457" fill="white"/>
          <rect x="345" y="167.60277" width="36" height="28.346457" stroke="black" stroke-linecap="round" stroke-linejoin="round" stroke-width="1"/>
          <text transform="translate(350 172.552)" fill="black">
            <tspan font-family="Helvetica Neue" font-size="16" fill="black" x="7.968" y="15">fr</tspan>
          </text>
        </g>
      </g>
      <g id="Graphic_19" filter="url(#Shadow)">
        <path d="M 33.822835 -.5 L 52.956693 -.5 C 59.334646 -.5 62.52362 -.5 66.350394 .2937008 C 69.53937 1.0874016 72.72835 3.0716536 74.00394 5.0559056 C 75.27953 7.437008 75.27953 9.42126 75.27953 13.389764 L 75.27953 25.295276 C 75.27953 29.26378 75.27953 31.24803 74.00394 33.629134 C 72.72835 35.613386 69.53937 37.59764 66.350394 38.39134 C 62.52362 39.18504 59.334646 39.18504 52.956693 39.18504 L 33.822835 39.18504 C 27.444882 39.18504 24.255906 39.18504 20.429134 38.39134 C 17.240158 37.59764 14.051181 35.613386 12.77559 33.629134 C 11.5 31.24803 11.5 29.26378 11.5 25.295276 L 11.5 13.389764 C 11.5 9.42126 11.5 7.437008 12.77559 5.0559056 C 14.051181 3.0716536 17.240158 1.0874016 20.429134 .2937008 C 24.255906 -.5 27.444882 -.5 33.822835 -.5 M 33.822835 -.5" fill="white"/>
        <path d="M 33.822835 -.5 L 52.956693 -.5 C 59.334646 -.5 62.52362 -.5 66.350394 .2937008 C 69.53937 1.0874016 72.72835 3.0716536 74.00394 5.0559056 C 75.27953 7.437008 75.27953 9.42126 75.27953 13.389764 L 75.27953 25.295276 C 75.27953 29.26378 75.27953 31.24803 74.00394 33.629134 C 72.72835 35.613386 69.53937 37.59764 66.350394 38.39134 C 62.52362 39.18504 59.334646 39.18504 52.956693 39.18504 L 33.822835 39.18504 C 27.444882 39.18504 24.255906 39.18504 20.429134 38.39134 C 17.240158 37.59764 14.051181 35.613386 12.77559 33.629134 C 11.5 31.24803 11.5 29.26378 11.5 25.295276 L 11.5 13.389764 C 11.5 9.42126 11.5 7.437008 12.77559 5.0559056 C 14.051181 3.0716536 17.240158 1.0874016 20.429134 .2937008 C 24.255906 -.5 27.444882 -.5 33.822835 -.5 M 33.822835 -.5" stroke="black" stroke-linecap="round" stroke-linejoin="round" stroke-width="1"/>
        <text transform="translate(16.5 10.118521)" fill="black">
          <tspan font-family="Helvetica Neue" font-size="16" fill="black" x="1.9937648" y="15">ebfeb1</tspan>
        </text>
      </g>
      <g id="Line_21">
        <line x1="43.389764" y1="39.18504" x2="43.389764" y2="152.0081" marker-end="url(#FilledArrow_Marker)" stroke="black" stroke-linecap="round" stroke-linejoin="round" stroke-width="1"/>
      </g>
      <g id="Graphic_22" filter="url(#Shadow)">
        <path d="M -211.1 156.26419 L -181.4 156.26419 C -171.5 156.26419 -166.55 156.26419 -160.61 157.05789 C -155.66 157.8516 -150.71 159.83584 -148.73 161.8201 C -146.75 164.2012 -146.75 166.18545 -146.75 170.15395 L -146.75 182.05947 C -146.75 186.02797 -146.75 188.01222 -148.73 190.39332 C -150.71 192.37758 -155.66 194.36183 -160.61 195.15553 C -166.55 195.94923 -171.5 195.94923 -181.4 195.94923 L -211.1 195.94923 C -221 195.94923 -225.95 195.94923 -231.89 195.15553 C -236.84 194.36183 -241.79 192.37758 -243.77 190.39332 C -245.75 188.01222 -245.75 186.02797 -245.75 182.05947 L -245.75 170.15395 C -245.75 166.18545 -245.75 164.2012 -243.77 161.8201 C -241.79 159.83584 -236.84 157.8516 -231.89 157.05789 C -225.95 156.26419 -221 156.26419 -211.1 156.26419 M -211.1 156.26419" fill="white"/>
        <path d="M -211.1 156.26419 L -181.4 156.26419 C -171.5 156.26419 -166.55 156.26419 -160.61 157.05789 C -155.66 157.8516 -150.71 159.83584 -148.73 161.8201 C -146.75 164.2012 -146.75 166.18545 -146.75 170.15395 L -146.75 182.05947 C -146.75 186.02797 -146.75 188.01222 -148.73 190.39332 C -150.71 192.37758 -155.66 194.36183 -160.61 195.15553 C -166.55 195.94923 -171.5 195.94923 -181.4 195.94923 L -211.1 195.94923 C -221 195.94923 -225.95 195.94923 -231.89 195.15553 C -236.84 194.36183 -241.79 192.37758 -243.77 190.39332 C -245.75 188.01222 -245.75 186.02797 -245.75 182.05947 L -245.75 170.15395 C -245.75 166.18545 -245.75 164.2012 -243.77 161.8201 C -241.79 159.83584 -236.84 157.8516 -231.89 157.05789 C -225.95 156.26419 -221 156.26419 -211.1 156.26419 M -211.1 156.26419" stroke="black" stroke-linecap="round" stroke-linejoin="round" stroke-width="1"/>
        <text transform="translate(-240.75 166.88271)" fill="black">
          <tspan font-family="Helvetica Neue" font-size="16" fill="black" x="8.628" y="15">cred:1872</tspan>
        </text>
      </g>
      <g id="Graphic_23" filter="url(#Shadow)">
        <path d="M -215.91654 273.21342 L -176.58346 273.21342 C -163.47244 273.21342 -156.91693 273.21342 -149.05032 274.00712 C -142.4948 274.80082 -135.93929 276.78507 -133.31709 278.76932 C -130.69488 281.15043 -130.69488 283.13468 -130.69488 287.1032 L -130.69488 299.0087 C -130.69488 302.9772 -130.69488 304.96145 -133.31709 307.34255 C -135.93929 309.3268 -142.4948 311.31106 -149.05032 312.10476 C -156.91693 312.89846 -163.47244 312.89846 -176.58346 312.89846 L -215.91654 312.89846 C -229.02756 312.89846 -235.58307 312.89846 -243.44968 312.10476 C -250.0052 311.31106 -256.5607 309.3268 -259.1829 307.34255 C -261.80512 304.96145 -261.80512 302.9772 -261.80512 299.0087 L -261.80512 287.1032 C -261.80512 283.13468 -261.80512 281.15043 -259.1829 278.76932 C -256.5607 276.78507 -250.0052 274.80082 -243.44968 274.00712 C -235.58307 273.21342 -229.02756 273.21342 -215.91654 273.21342 M -215.91654 273.21342" fill="white"/>
        <path d="M -215.91654 273.21342 L -176.58346 273.21342 C -163.47244 273.21342 -156.91693 273.21342 -149.05032 274.00712 C -142.4948 274.80082 -135.93929 276.78507 -133.31709 278.76932 C -130.69488 281.15043 -130.69488 283.13468 -130.69488 287.1032 L -130.69488 299.0087 C -130.69488 302.9772 -130.69488 304.96145 -133.31709 307.34255 C -135.93929 309.3268 -142.4948 311.31106 -149.05032 312.10476 C -156.91693 312.89846 -163.47244 312.89846 -176.58346 312.89846 L -215.91654 312.89846 C -229.02756 312.89846 -235.58307 312.89846 -243.44968 312.10476 C -250.0052 311.31106 -256.5607 309.3268 -259.1829 307.34255 C -261.80512 304.96145 -261.80512 302.9772 -261.80512 299.0087 L -261.80512 287.1032 C -261.80512 283.13468 -261.80512 281.15043 -259.1829 278.76932 C -256.5607 276.78507 -250.0052 274.80082 -243.44968 274.00712 C -235.58307 273.21342 -229.02756 273.21342 -215.91654 273.21342 M -215.91654 273.21342" stroke="black" stroke-linecap="round" stroke-linejoin="round" stroke-width="1"/>
        <text transform="translate(-256.80512 283.83194)" fill="black">
          <tspan font-family="Helvetica Neue" font-size="16" fill="black" x="1.7231186" y="15">exIssuer:565049</tspan>
        </text>
      </g>
      <g id="Line_26">
        <line x1="-196.25" y1="195.94923" x2="-196.25" y2="263.31342" marker-end="url(#FilledArrow_Marker)" stroke="black" stroke-linecap="round" stroke-linejoin="round" stroke-width="1"/>
      </g>
      <g id="Graphic_36" filter="url(#Shadow_2)">
        <title>Superclass</title>
        <rect x="-276.57556" y="-49" width="160.65111" height="56" fill="white"/>
        <rect x="-276.57556" y="-49" width="160.65111" height="56" stroke="#b9c0c1" stroke-linecap="round" stroke-linejoin="round" stroke-width="2"/>
        <text transform="translate(-270.57556 -39)" fill="#515556">
          <tspan font-family="Avenir" font-weight="bold" font-size="13" fill="#515556" x="13.979554" y="13">VerifiableCredential</tspan>
        </text>
      </g>
      <g id="Graphic_35" filter="url(#Shadow_2)">
        <title>Subclass</title>
        <rect x="-392" y="48" width="160.65111" height="38" fill="white"/>
        <rect x="-392" y="48" width="160.65111" height="38" stroke="#b9c0c1" stroke-linecap="round" stroke-linejoin="round" stroke-width="2"/>
        <text transform="translate(-386 58)" fill="#515556">
          <tspan font-family="Avenir" font-weight="bold" font-size="13" fill="#515556" x="21.578054" y="13">AlumniCredential</tspan>
        </text>
      </g>
      <g id="Line_38">
        <line x1="-221.58722" y1="156.32707" x2="-302.58978" y2="93.09199" marker-end="url(#FilledArrow_Marker)" stroke="black" stroke-linecap="round" stroke-linejoin="round" stroke-width="1"/>
      </g>
      <g id="Line_40">
        <line x1="-245.75" y1="175.73757" x2="-400.60028" y2="174.5828" marker-end="url(#FilledArrow_Marker)" stroke="black" stroke-linecap="round" stroke-linejoin="round" stroke-width="1"/>
      </g>
      <g id="Graphic_45" filter="url(#Shadow)">
        <rect x="-594" y="159.65153" width="183.5" height="28.346457" fill="white"/>
        <rect x="-594" y="159.65153" width="183.5" height="28.346457" stroke="black" stroke-linecap="round" stroke-linejoin="round" stroke-width="1"/>
        <text transform="translate(-589 164.60076)" fill="black">
          <tspan font-family="Helvetica Neue" font-size="16" fill="black" x="4.326" y="15">2010-01-01T19:23:24Z</tspan>
        </text>
      </g>
      <g id="Line_49">
        <line x1="-166.2907" y1="156.50835" x2="8.308504" y2="42.29149" marker-end="url(#FilledArrow_Marker)" stroke="black" stroke-linecap="round" stroke-linejoin="round" stroke-width="1"/>
      </g>
      <g id="Line_51">
        <line x1="-103.02899" y1="342.6574" x2="-102.36522" y2="446.1004" marker-end="url(#FilledArrow_Marker)" stroke="black" stroke-linecap="round" stroke-linejoin="round" stroke-width="1"/>
      </g>
      <g id="Graphic_52" filter="url(#Shadow)">
        <ellipse cx="-102.21059" cy="470.1986" rx="16.2500259659058" ry="14.1986364372367" fill="white"/>
        <ellipse cx="-102.21059" cy="470.1986" rx="16.2500259659058" ry="14.1986364372367" stroke="black" stroke-linecap="round" stroke-linejoin="round" stroke-width="1"/>
      </g>
      <g id="Group_62">
        <g id="Graphic_61">
          <title>Attributes</title>
          <rect x="-392" y="480.60373" width="165.11024" height="14.396266" stroke="#b9c0c1" stroke-linecap="round" stroke-linejoin="round" stroke-width="2"/>
        </g>
        <g id="Graphic_60">
          <title>Class Name</title>
          <rect x="-392" y="456" width="165.11024" height="24.603734" stroke="#b9c0c1" stroke-linecap="round" stroke-linejoin="round" stroke-width="2"/>
          <text transform="translate(-386 459.30187)" fill="#515556">
            <tspan font-family="Avenir" font-weight="bold" font-size="13" fill="#515556" x="19.504615" y="13">RSASignature2018</tspan>
          </text>
        </g>
      </g>
      <g id="Line_64">
        <line x1="-118.45971" y1="470.0499" x2="-215.99018" y2="469.1572" marker-end="url(#FilledArrow_Marker)" stroke="black" stroke-linecap="round" stroke-linejoin="round" stroke-width="1"/>
      </g>
      <g id="Line_67">
        <line x1="-85.96058" y1="470.19747" x2="156.6394" y2="470.1804" marker-end="url(#FilledArrow_Marker)" stroke="black" stroke-linecap="round" stroke-linejoin="round" stroke-width="1"/>
      </g>
      <g id="Graphic_65" filter="url(#Shadow)">
        <rect x="166.5394" y="456" width="183.5" height="28.346457" fill="white"/>
        <rect x="166.5394" y="456" width="183.5" height="28.346457" stroke="black" stroke-linecap="round" stroke-linejoin="round" stroke-width="1"/>
        <text transform="translate(171.5394 460.94923)" fill="black">
          <tspan font-family="Helvetica Neue" font-size="16" fill="black" x="4.326" y="15">2017-06-18T21:19:10Z</tspan>
        </text>
      </g>
      <g id="Line_69">
        <path d="M -94.29135 482.6012 L -57.96059 539.5 L 61.63968 538.61824" marker-end="url(#FilledArrow_Marker)" stroke="black" stroke-linecap="round" stroke-linejoin="round" stroke-width="1"/>
      </g>
      <g id="Graphic_70" filter="url(#Shadow)">
        <rect x="71.53941" y="507.5" width="278.5" height="60.037245" fill="white"/>
        <rect x="71.53941" y="507.5" width="278.5" height="60.037245" stroke="black" stroke-linecap="round" stroke-linejoin="round" stroke-width="1"/>
        <text transform="translate(76.53941 519.0706)" fill="black">
          <tspan font-family="Helvetica Neue" font-size="16" fill="black" x="0" y="15">eyJhbGciOiJSUzI1NiIsImI2NCI6ZmF</tspan>
          <tspan font-family="Helvetica Neue" font-size="16" fill="black" x="0" y="33.448">sc2UsImNyaXQiOlsiYjY…</tspan>
        </text>
      </g>
      <g id="Line_73">
        <path d="M -98.7287 484.06925 L -65.73609 615.5 L 130.13958 616.6656" marker-end="url(#FilledArrow_Marker)" stroke="black" stroke-linecap="round" stroke-linejoin="round" stroke-width="1"/>
      </g>
      <g id="Graphic_71" filter="url(#Shadow)">
        <path d="M 213.5394 600 L 276.5394 600 C 297.5394 600 308.0394 600 320.6394 600.694 C 331.1394 601.38794 341.6394 603.1229 345.8394 604.8578 C 350.0394 606.9397 350.0394 608.67465 350.0394 612.1445 L 350.0394 622.5541 C 350.0394 626.02396 350.0394 627.7589 345.8394 629.8408 C 341.6394 631.57574 331.1394 633.3107 320.6394 634.00464 C 308.0394 634.6986 297.5394 634.6986 276.5394 634.6986 L 213.5394 634.6986 C 192.5394 634.6986 182.0394 634.6986 169.4394 634.00464 C 158.9394 633.3107 148.4394 631.57574 144.2394 629.8408 C 140.0394 627.7589 140.0394 626.02396 140.0394 622.5541 L 140.0394 612.1445 C 140.0394 608.67465 140.0394 606.9397 144.2394 604.8578 C 148.4394 603.1229 158.9394 601.38794 169.4394 600.694 C 182.0394 600 192.5394 600 213.5394 600 M 213.5394 600" fill="white"/>
        <path d="M 213.5394 600 L 276.5394 600 C 297.5394 600 308.0394 600 320.6394 600.694 C 331.1394 601.38794 341.6394 603.1229 345.8394 604.8578 C 350.0394 606.9397 350.0394 608.67465 350.0394 612.1445 L 350.0394 622.5541 C 350.0394 626.02396 350.0394 627.7589 345.8394 629.8408 C 341.6394 631.57574 331.1394 633.3107 320.6394 634.00464 C 308.0394 634.6986 297.5394 634.6986 276.5394 634.6986 L 213.5394 634.6986 C 192.5394 634.6986 182.0394 634.6986 169.4394 634.00464 C 158.9394 633.3107 148.4394 631.57574 144.2394 629.8408 C 140.0394 627.7589 140.0394 626.02396 140.0394 622.5541 L 140.0394 612.1445 C 140.0394 608.67465 140.0394 606.9397 144.2394 604.8578 C 148.4394 603.1229 158.9394 601.38794 169.4394 600.694 C 182.0394 600 192.5394 600 213.5394 600 M 213.5394 600" stroke="black" stroke-linecap="round" stroke-linejoin="round" stroke-width="1"/>
        <text transform="translate(145.0394 608.1253)" fill="black">
          <tspan font-family="Helvetica Neue" font-size="16" fill="black" x="29.024" y="15">ec:assertionMethod </tspan>
        </text>
      </g>
      <g id="Line_77">
        <path d="M -101.66963 484.3894 L -94.46059 673.5 L 130.13945 674.1686" marker-end="url(#FilledArrow_Marker)" stroke="black" stroke-linecap="round" stroke-linejoin="round" stroke-width="1"/>
      </g>
      <g id="Graphic_75" filter="url(#Shadow)">
        <path d="M 213.5394 657.1614 L 276.5394 657.1614 C 297.5394 657.1614 308.0394 657.1614 320.6394 657.85534 C 331.1394 658.5493 341.6394 660.28424 345.8394 662.0192 C 350.0394 664.1011 350.0394 665.836 350.0394 669.3059 L 350.0394 679.7155 C 350.0394 683.1853 350.0394 684.9203 345.8394 687.0022 C 341.6394 688.7371 331.1394 690.472 320.6394 691.166 C 308.0394 691.86 297.5394 691.86 276.5394 691.86 L 213.5394 691.86 C 192.5394 691.86 182.0394 691.86 169.4394 691.166 C 158.9394 690.472 148.4394 688.7371 144.2394 687.0022 C 140.0394 684.9203 140.0394 683.1853 140.0394 679.7155 L 140.0394 669.3059 C 140.0394 665.836 140.0394 664.1011 144.2394 662.0192 C 148.4394 660.28424 158.9394 658.5493 169.4394 657.85534 C 182.0394 657.1614 192.5394 657.1614 213.5394 657.1614 M 213.5394 657.1614" fill="white"/>
        <path d="M 213.5394 657.1614 L 276.5394 657.1614 C 297.5394 657.1614 308.0394 657.1614 320.6394 657.85534 C 331.1394 658.5493 341.6394 660.28424 345.8394 662.0192 C 350.0394 664.1011 350.0394 665.836 350.0394 669.3059 L 350.0394 679.7155 C 350.0394 683.1853 350.0394 684.9203 345.8394 687.0022 C 341.6394 688.7371 331.1394 690.472 320.6394 691.166 C 308.0394 691.86 297.5394 691.86 276.5394 691.86 L 213.5394 691.86 C 192.5394 691.86 182.0394 691.86 169.4394 691.166 C 158.9394 690.472 148.4394 688.7371 144.2394 687.0022 C 140.0394 684.9203 140.0394 683.1853 140.0394 679.7155 L 140.0394 669.3059 C 140.0394 665.836 140.0394 664.1011 144.2394 662.0192 C 148.4394 660.28424 158.9394 658.5493 169.4394 657.85534 C 182.0394 657.1614 192.5394 657.1614 213.5394 657.1614 M 213.5394 657.1614" stroke="black" stroke-linecap="round" stroke-linejoin="round" stroke-width="1"/>
        <text transform="translate(145.0394 665.2867)" fill="black">
          <tspan font-family="Helvetica Neue" font-size="16" fill="black" x="38.04" y="15">ec:565049#key-1</tspan>
        </text>
      </g>
      <g id="Line_80">
        <line x1="-196.25" y1="156.26419" x2="-196.25" y2="17.9" marker-end="url(#FilledArrow_Marker)" stroke="black" stroke-linecap="round" stroke-linejoin="round" stroke-width="1"/>
      </g>
      <g id="Graphic_16">
        <rect x="85.12286" y="159.54999" width="49.728" height="28.447998" fill="white"/>
        <text transform="translate(90.12286 164.54999)" fill="black">
          <tspan font-family="Helvetica Neue" font-size="16" fill="black" x="0" y="15">name</tspan>
        </text>
      </g>
      <g id="Graphic_20">
        <rect x="14.342514" y="87.24294" width="74.032" height="28.447998" fill="white"/>
        <text transform="translate(19.342513 92.24294)" fill="black">
          <tspan font-family="Helvetica Neue" font-size="16" fill="black" x="0" y="15">alumniOf</tspan>
        </text>
      </g>
      <g id="Graphic_25">
        <rect x="-214.46525" y="214.57196" width="52.368" height="28.447998" fill="white"/>
        <text transform="translate(-209.46525 219.57196)" fill="black">
          <tspan font-family="Helvetica Neue" font-size="16" fill="black" x="0" y="15">issuer</tspan>
        </text>
      </g>
      <g id="Graphic_37">
        <rect x="-263.73314" y="106.34921" width="18.592" height="28.447998" fill="white"/>
        <text transform="translate(-258.73314 111.34921)" fill="black">
          <tspan font-family="Helvetica Neue" font-size="16" fill="black" x="2762235e-19" y="15">a</tspan>
        </text>
      </g>
      <g id="Graphic_39">
        <rect x="-373.8442" y="152.98686" width="106.608" height="28.447998" fill="white"/>
        <text transform="translate(-368.8442 157.98686)" fill="black">
          <tspan font-family="Helvetica Neue" font-size="16" fill="black" x="8526513e-20" y="15">issuanceDate</tspan>
        </text>
      </g>
      <g id="Graphic_48">
        <rect x="-162.6886" y="95.94709" width="134.464" height="28.447998" fill="white"/>
        <text transform="translate(-157.6886 100.94709)" fill="black">
          <tspan font-family="Helvetica Neue" font-size="16" fill="black" x="0" y="15">credentialSubject</tspan>
        </text>
      </g>
      <g id="Graphic_50">
        <rect x="-118.63345" y="366.24456" width="47.632" height="28.447998" fill="white"/>
        <text transform="translate(-113.63345 371.24456)" fill="black">
          <tspan font-family="Helvetica Neue" font-size="16" fill="black" x="7176482e-19" y="15">proof</tspan>
        </text>
      </g>
      <g id="Graphic_63">
        <rect x="-173.3537" y="447.43946" width="18.592" height="28.447998" fill="white"/>
        <text transform="translate(-168.3537 452.43946)" fill="black">
          <tspan font-family="Helvetica Neue" font-size="16" fill="black" x="2762235e-19" y="15">a</tspan>
        </text>
      </g>
      <g id="Graphic_66">
        <rect x="-21.880717" y="447.99796" width="63.936" height="28.447998" fill="white"/>
        <text transform="translate(-16.880717 452.99796)" fill="black">
          <tspan font-family="Helvetica Neue" font-size="16" fill="black" x="7531753e-19" y="15">created</tspan>
        </text>
      </g>
      <g id="Graphic_68">
        <rect x="-16.41831" y="516.8766" width="33.68" height="28.447998" fill="white"/>
        <text transform="translate(-11.41831 521.8766)" fill="black">
          <tspan font-family="Helvetica Neue" font-size="16" fill="black" x="14566126e-20" y="15">jws</tspan>
        </text>
      </g>
      <g id="Graphic_72">
        <rect x="-36.75513" y="593.7994" width="107.488" height="28.447998" fill="white"/>
        <text transform="translate(-31.75513 598.7994)" fill="black">
          <tspan font-family="Helvetica Neue" font-size="16" fill="black" x="5968559e-19" y="15">proofPurpose</tspan>
        </text>
      </g>
      <g id="Graphic_76">
        <rect x="-59.74955" y="651.623" width="142.752" height="28.447998" fill="white"/>
        <text transform="translate(-54.74955 656.623)" fill="black">
          <tspan font-family="Helvetica Neue" font-size="16" fill="black" x="19895197e-20" y="15">verificationMethod</tspan>
        </text>
      </g>
      <g id="Graphic_79">
        <rect x="-213.51475" y="79.00978" width="18.592" height="28.447998" fill="white"/>
        <text transform="translate(-208.51475 84.00978)" fill="black">
          <tspan font-family="Helvetica Neue" font-size="16" fill="black" x="2762235e-19" y="15">a</tspan>
        </text>
      </g>
    </g>
  </g>
</svg>
