<?xml version="1.0" encoding="UTF-8" standalone="no"?>
<!DOCTYPE svg PUBLIC "-//W3C//DTD SVG 1.1//EN" "http://www.w3.org/Graphics/SVG/1.1/DTD/svg11.dtd">
<svg xmlns:dc="http://purl.org/dc/elements/1.1/" xmlns="http://www.w3.org/2000/svg" xmlns:xl="http://www.w3.org/1999/xlink" version="1.1" viewBox="167 -88 1346 1507" width="1346" height="1507">
  <defs>
    <filter id="Shadow" filterUnits="userSpaceOnUse" x="32.4" y="-238.7">
      <feGaussianBlur in="SourceAlpha" result="blur" stdDeviation="1.308"/>
      <feOffset in="blur" result="offset" dx="0" dy="2"/>
      <feFlood flood-color="black" flood-opacity=".5" result="flood"/>
      <feComposite in="flood" in2="offset" operator="in"/>
    </filter>
    <marker orient="auto" overflow="visible" markerUnits="strokeWidth" id="FilledArrow_Marker" stroke-linejoin="miter" stroke-miterlimit="10" viewBox="-9 -4 10 8" markerWidth="10" markerHeight="8" color="black">
      <g>
        <path d="M -8 0 L 0 3 L 0 -3 Z" fill="currentColor" stroke="currentColor" stroke-width="1"/>
      </g>
    </marker>
    <filter id="Shadow_2" filterUnits="userSpaceOnUse" x="32.4" y="-238.7">
      <feGaussianBlur in="SourceAlpha" result="blur" stdDeviation="1.308"/>
      <feOffset in="blur" result="offset" dx="0" dy="2"/>
      <feFlood flood-color="black" flood-opacity=".5" result="flood"/>
      <feComposite in="flood" in2="offset" operator="in" result="color"/>
      <feMerge>
        <feMergeNode in="color"/>
        <feMergeNode in="SourceGraphic"/>
      </feMerge>
    </filter>
    <marker orient="auto" overflow="visible" markerUnits="strokeWidth" id="FilledArrow_Marker_2" stroke-linejoin="miter" stroke-miterlimit="10" viewBox="-6 -3 7 6" markerWidth="7" markerHeight="6" color="black">
      <g>
        <path d="M -4.8 0 L 0 1.8 L 0 -1.8 Z" fill="currentColor" stroke="currentColor" stroke-width="1"/>
      </g>
    </marker>
    <marker orient="auto" overflow="visible" markerUnits="strokeWidth" id="FilledArrow_Marker_3" stroke-linejoin="miter" stroke-miterlimit="10" viewBox="-1 -3 6 6" markerWidth="6" markerHeight="6" color="#011fae">
      <g>
        <path d="M 3.2 0 L 0 -1.2 L 0 1.2 Z" fill="currentColor" stroke="currentColor" stroke-width="1"/>
      </g>
    </marker>
  </defs>
  <g id="Extended_Network" stroke="none" fill-opacity="1" stroke-opacity="1" stroke-dasharray="none" fill="none">
    <title>ExtendedNetwork</title>
    <g id="Extended_Network_Layer_1">
      <title>Layer 1</title>
      <g id="Graphic_64_shadow" filter="url(#Shadow)">
        <path d="M 264.38522 509.4921 L 264.38522 197.64213 L 321.11176 162.99213 L 831.6506 162.99213 L 831.6506 474.8421 L 774.9241 509.4921 Z" fill="white"/>
        <path d="M 264.38522 509.4921 L 264.38522 197.64213 L 321.11176 162.99213 L 831.6506 162.99213 L 831.6506 474.8421 L 774.9241 509.4921 L 264.38522 509.4921 M 264.38522 197.64213 L 774.9241 197.64213 L 831.6506 162.99213 M 774.9241 197.64213 L 774.9241 509.4921" stroke="black" stroke-linecap="round" stroke-linejoin="round" stroke-width="1"/>
      </g>
      <g id="Graphic_63_shadow" filter="url(#Shadow)">
        <rect x="548.2219" y="298.73952" width="117.74598" height="24" fill="white"/>
        <rect x="548.2219" y="298.73952" width="117.74598" height="24" stroke="black" stroke-linecap="round" stroke-linejoin="round" stroke-width="1"/>
      </g>
      <g id="Graphic_62_shadow" filter="url(#Shadow)">
        <path d="M 321.3525 272.49213 L 698.3525 272.49213 L 698.3525 415.69213 C 585.2525 397.79213 434.4525 469.3921 321.3525 433.59213 Z" fill="white"/>
        <path d="M 321.3525 272.49213 L 698.3525 272.49213 L 698.3525 415.69213 C 585.2525 397.79213 434.4525 469.3921 321.3525 433.59213 Z" stroke="black" stroke-linecap="round" stroke-linejoin="round" stroke-width="1"/>
      </g>
      <g id="Graphic_60_shadow" filter="url(#Shadow)">
        <ellipse cx="375.15587" cy="319.3288" rx="11.3505306370055" ry="10.9014393329366" fill="white"/>
        <ellipse cx="375.15587" cy="319.3288" rx="11.3505306370055" ry="10.9014393329366" stroke="black" stroke-linecap="round" stroke-linejoin="round" stroke-width="1"/>
      </g>
      <g id="Graphic_51_shadow" filter="url(#Shadow)">
        <rect x="548.2219" y="298.73952" width="117.74598" height="24" fill="white"/>
        <rect x="548.2219" y="298.73952" width="117.74598" height="24" stroke="black" stroke-linecap="round" stroke-linejoin="round" stroke-width="1"/>
      </g>
      <g id="Graphic_47_shadow" filter="url(#Shadow)">
        <path d="M 606.41444 362.83465 L 647.724 362.83465 C 652.61034 362.83465 656.57606 368.21065 656.57606 374.83465 C 656.57606 381.45865 652.61034 386.83465 647.724 386.83465 L 606.41444 386.83465 C 601.5281 386.83465 597.5624 381.45865 597.5624 374.83465 C 597.5624 368.21065 601.5281 362.83465 606.41444 362.83465 Z" fill="white"/>
        <path d="M 606.41444 362.83465 L 647.724 362.83465 C 652.61034 362.83465 656.57606 368.21065 656.57606 374.83465 C 656.57606 381.45865 652.61034 386.83465 647.724 386.83465 L 606.41444 386.83465 C 601.5281 386.83465 597.5624 381.45865 597.5624 374.83465 C 597.5624 368.21065 601.5281 362.83465 606.41444 362.83465 Z" stroke="black" stroke-linecap="round" stroke-linejoin="round" stroke-width="1"/>
      </g>
      <g id="Graphic_42_shadow" filter="url(#Shadow)">
        <path d="M 264.38522 1348.7962 L 264.38522 733.5093 L 321.76503 665.14414 L 838.1834 665.14414 L 838.1834 1280.431 L 780.8035 1348.7962 Z" fill="white"/>
        <path d="M 264.38522 1348.7962 L 264.38522 733.5093 L 321.76503 665.14414 L 838.1834 665.14414 L 838.1834 1280.431 L 780.8035 1348.7962 L 264.38522 1348.7962 M 264.38522 733.5093 L 780.8035 733.5093 L 838.1834 665.14414 M 780.8035 733.5093 L 780.8035 1348.7962" stroke="black" stroke-linecap="round" stroke-linejoin="round" stroke-width="1"/>
      </g>
      <g id="Graphic_41_shadow" filter="url(#Shadow)">
        <rect x="554.7546" y="800.8915" width="117.74598" height="24" fill="white"/>
        <rect x="554.7546" y="800.8915" width="117.74598" height="24" stroke="black" stroke-linecap="round" stroke-linejoin="round" stroke-width="1"/>
      </g>
      <g id="Graphic_40_shadow" filter="url(#Shadow)">
        <path d="M 327.8852 774.6441 L 756.3852 774.6441 L 756.3852 917.8441 C 627.8352 899.9441 456.4352 971.5441 327.8852 935.7441 Z" fill="white"/>
        <path d="M 327.8852 774.6441 L 756.3852 774.6441 L 756.3852 917.8441 C 627.8352 899.9441 456.4352 971.5441 327.8852 935.7441 Z" stroke="black" stroke-linecap="round" stroke-linejoin="round" stroke-width="1"/>
      </g>
      <g id="Graphic_38_shadow" filter="url(#Shadow)">
        <ellipse cx="381.6886" cy="821.4808" rx="11.3505306370054" ry="10.9014393329366" fill="white"/>
        <ellipse cx="381.6886" cy="821.4808" rx="11.3505306370054" ry="10.9014393329366" stroke="black" stroke-linecap="round" stroke-linejoin="round" stroke-width="1"/>
      </g>
      <g id="Graphic_29_shadow" filter="url(#Shadow)">
        <rect x="591.8931" y="799.6784" width="117.74598" height="24" fill="white"/>
        <rect x="591.8931" y="799.6784" width="117.74598" height="24" stroke="black" stroke-linecap="round" stroke-linejoin="round" stroke-width="1"/>
      </g>
      <g id="Graphic_24_shadow" filter="url(#Shadow)">
        <rect x="363.3852" y="1121.6441" width="309.5" height="113" fill="white"/>
        <rect x="363.3852" y="1121.6441" width="309.5" height="113" stroke="black" stroke-linecap="round" stroke-linejoin="round" stroke-width="1"/>
      </g>
      <g id="Graphic_25_shadow" filter="url(#Shadow)">
        <path d="M 327.8852 1016.6441 L 704.8852 1016.6441 L 704.8852 1254.6441 C 591.7852 1224.8941 440.9852 1343.8941 327.8852 1284.3941 Z" fill="white"/>
        <path d="M 327.8852 1016.6441 L 704.8852 1016.6441 L 704.8852 1254.6441 C 591.7852 1224.8941 440.9852 1343.8941 327.8852 1284.3941 Z" stroke="black" stroke-linecap="round" stroke-linejoin="round" stroke-width="1"/>
      </g>
      <g id="Graphic_15_shadow" filter="url(#Shadow)">
        <rect x="597.5624" y="852.1441" width="117.74598" height="24" fill="white"/>
        <rect x="597.5624" y="852.1441" width="117.74598" height="24" stroke="black" stroke-linecap="round" stroke-linejoin="round" stroke-width="1"/>
      </g>
      <g id="Graphic_203_shadow" filter="url(#Shadow)">
        <ellipse cx="1249.0996" cy="907.6255" rx="3.3070916372184" ry="2.62787467337476" fill="white"/>
        <ellipse cx="1249.0996" cy="907.6255" rx="3.3070916372184" ry="2.62787467337476" stroke="black" stroke-linecap="round" stroke-linejoin="round" stroke-width="1"/>
      </g>
      <g id="Graphic_205_shadow" filter="url(#Shadow)">
        <path d="M 1199.4652 888.6614 L 1276.0006 888.6614 L 1276.0006 942.029 C 1253.04 935.3581 1222.4258 962.0418 1199.4652 948.7 Z" fill="white"/>
        <path d="M 1199.4652 888.6614 L 1276.0006 888.6614 L 1276.0006 942.029 C 1253.04 935.3581 1222.4258 962.0418 1199.4652 948.7 Z" stroke="black" stroke-linecap="round" stroke-linejoin="round" stroke-width="1"/>
      </g>
      <g id="Graphic_206_shadow" filter="url(#Shadow)">
        <path d="M 1188.1266 962.3622 L 1188.1266 861.5906 L 1200.1888 850.3937 L 1308.7486 850.3937 L 1308.7486 951.1654 L 1296.6864 962.3622 Z" fill="white"/>
        <path d="M 1188.1266 962.3622 L 1188.1266 861.5906 L 1200.1888 850.3937 L 1308.7486 850.3937 L 1308.7486 951.1654 L 1296.6864 962.3622 L 1188.1266 962.3622 M 1188.1266 861.5906 L 1296.6864 861.5906 L 1308.7486 850.3937 M 1296.6864 861.5906 L 1296.6864 962.3622" stroke="black" stroke-linecap="round" stroke-linejoin="round" stroke-width="1"/>
      </g>
      <g id="Graphic_190_shadow" filter="url(#Shadow)">
        <path d="M 1188.1266 1102.6772 L 1188.1266 1001.9055 L 1200.1888 990.7087 L 1308.7486 990.7087 L 1308.7486 1091.4803 L 1296.6864 1102.6772 Z" fill="white"/>
        <path d="M 1188.1266 1102.6772 L 1188.1266 1001.9055 L 1200.1888 990.7087 L 1308.7486 990.7087 L 1308.7486 1091.4803 L 1296.6864 1102.6772 L 1188.1266 1102.6772 M 1188.1266 1001.9055 L 1296.6864 1001.9055 L 1308.7486 990.7087 M 1296.6864 1001.9055 L 1296.6864 1102.6772" stroke="black" stroke-linecap="round" stroke-linejoin="round" stroke-width="1"/>
      </g>
      <g id="Graphic_187_shadow" filter="url(#Shadow)">
        <ellipse cx="1249.0996" cy="1047.9404" rx="3.30709163721852" ry="2.62787467337482" fill="white"/>
        <ellipse cx="1249.0996" cy="1047.9404" rx="3.30709163721852" ry="2.62787467337482" stroke="black" stroke-linecap="round" stroke-linejoin="round" stroke-width="1"/>
      </g>
      <g id="Graphic_189_shadow" filter="url(#Shadow)">
        <path d="M 1199.4652 1028.9764 L 1276.0006 1028.9764 L 1276.0006 1082.344 C 1253.04 1075.673 1222.4258 1102.3568 1199.4652 1089.0149 Z" fill="white"/>
        <path d="M 1199.4652 1028.9764 L 1276.0006 1028.9764 L 1276.0006 1082.344 C 1253.04 1075.673 1222.4258 1102.3568 1199.4652 1089.0149 Z" stroke="black" stroke-linecap="round" stroke-linejoin="round" stroke-width="1"/>
      </g>
      <g id="Graphic_175_shadow" filter="url(#Shadow)">
        <path d="M 1188.1266 1242.9921 L 1188.1266 1142.2205 L 1200.1888 1131.0236 L 1308.7486 1131.0236 L 1308.7486 1231.7953 L 1296.6864 1242.9921 Z" fill="white"/>
        <path d="M 1188.1266 1242.9921 L 1188.1266 1142.2205 L 1200.1888 1131.0236 L 1308.7486 1131.0236 L 1308.7486 1231.7953 L 1296.6864 1242.9921 L 1188.1266 1242.9921 M 1188.1266 1142.2205 L 1296.6864 1142.2205 L 1308.7486 1131.0236 M 1296.6864 1142.2205 L 1296.6864 1242.9921" stroke="black" stroke-linecap="round" stroke-linejoin="round" stroke-width="1"/>
      </g>
      <g id="Graphic_172_shadow" filter="url(#Shadow)">
        <ellipse cx="1249.0996" cy="1188.2554" rx="3.30709163721852" ry="2.62787467337479" fill="white"/>
        <ellipse cx="1249.0996" cy="1188.2554" rx="3.30709163721852" ry="2.62787467337479" stroke="black" stroke-linecap="round" stroke-linejoin="round" stroke-width="1"/>
      </g>
      <g id="Graphic_174_shadow" filter="url(#Shadow)">
        <path d="M 1199.4652 1169.2913 L 1276.0006 1169.2913 L 1276.0006 1222.6589 C 1253.04 1215.988 1222.4258 1242.6718 1199.4652 1229.3299 Z" fill="white"/>
        <path d="M 1199.4652 1169.2913 L 1276.0006 1169.2913 L 1276.0006 1222.6589 C 1253.04 1215.988 1222.4258 1242.6718 1199.4652 1229.3299 Z" stroke="black" stroke-linecap="round" stroke-linejoin="round" stroke-width="1"/>
      </g>
      <g id="Graphic_160_shadow" filter="url(#Shadow)">
        <path d="M 1188.1266 1382.9921 L 1188.1266 1282.2205 L 1200.1888 1271.0236 L 1308.7486 1271.0236 L 1308.7486 1371.7953 L 1296.6864 1382.9921 Z" fill="white"/>
        <path d="M 1188.1266 1382.9921 L 1188.1266 1282.2205 L 1200.1888 1271.0236 L 1308.7486 1271.0236 L 1308.7486 1371.7953 L 1296.6864 1382.9921 L 1188.1266 1382.9921 M 1188.1266 1282.2205 L 1296.6864 1282.2205 L 1308.7486 1271.0236 M 1296.6864 1282.2205 L 1296.6864 1382.9921" stroke="black" stroke-linecap="round" stroke-linejoin="round" stroke-width="1"/>
      </g>
      <g id="Graphic_157_shadow" filter="url(#Shadow)">
        <ellipse cx="1249.0996" cy="1328.2554" rx="3.30709163721852" ry="2.62787467337479" fill="white"/>
        <ellipse cx="1249.0996" cy="1328.2554" rx="3.30709163721852" ry="2.62787467337479" stroke="black" stroke-linecap="round" stroke-linejoin="round" stroke-width="1"/>
      </g>
      <g id="Graphic_159_shadow" filter="url(#Shadow)">
        <path d="M 1199.4652 1309.2913 L 1276.0006 1309.2913 L 1276.0006 1362.659 C 1253.04 1355.988 1222.4258 1382.6718 1199.4652 1369.3299 Z" fill="white"/>
        <path d="M 1199.4652 1309.2913 L 1276.0006 1309.2913 L 1276.0006 1362.659 C 1253.04 1355.988 1222.4258 1382.6718 1199.4652 1369.3299 Z" stroke="black" stroke-linecap="round" stroke-linejoin="round" stroke-width="1"/>
      </g>
      <g id="Graphic_145_shadow" filter="url(#Shadow)">
        <path d="M 1366.7093 902.8347 L 1366.7093 802.063 L 1378.7715 790.86615 L 1487.3313 790.86615 L 1487.3313 891.6378 L 1475.2691 902.8347 Z" fill="white"/>
        <path d="M 1366.7093 902.8347 L 1366.7093 802.063 L 1378.7715 790.86615 L 1487.3313 790.86615 L 1487.3313 891.6378 L 1475.2691 902.8347 L 1366.7093 902.8347 M 1366.7093 802.063 L 1475.2691 802.063 L 1487.3313 790.86615 M 1475.2691 802.063 L 1475.2691 902.8347" stroke="black" stroke-linecap="round" stroke-linejoin="round" stroke-width="1"/>
      </g>
      <g id="Graphic_142_shadow" filter="url(#Shadow)">
        <ellipse cx="1427.6823" cy="848.0979" rx="3.30709163721828" ry="2.62787467337476" fill="white"/>
        <ellipse cx="1427.6823" cy="848.0979" rx="3.30709163721828" ry="2.62787467337476" stroke="black" stroke-linecap="round" stroke-linejoin="round" stroke-width="1"/>
      </g>
      <g id="Graphic_144_shadow" filter="url(#Shadow)">
        <path d="M 1378.0479 829.1339 L 1454.5833 829.1339 L 1454.5833 882.5014 C 1431.6227 875.8305 1401.0085 902.5143 1378.0479 889.1724 Z" fill="white"/>
        <path d="M 1378.0479 829.1339 L 1454.5833 829.1339 L 1454.5833 882.5014 C 1431.6227 875.8305 1401.0085 902.5143 1378.0479 889.1724 Z" stroke="black" stroke-linecap="round" stroke-linejoin="round" stroke-width="1"/>
      </g>
      <g id="Graphic_130_shadow" filter="url(#Shadow)">
        <path d="M 1366.7093 1067.2441 L 1366.7093 966.4724 L 1378.7715 955.2756 L 1487.3313 955.2756 L 1487.3313 1056.0473 L 1475.2691 1067.2441 Z" fill="white"/>
        <path d="M 1366.7093 1067.2441 L 1366.7093 966.4724 L 1378.7715 955.2756 L 1487.3313 955.2756 L 1487.3313 1056.0473 L 1475.2691 1067.2441 L 1366.7093 1067.2441 M 1366.7093 966.4724 L 1475.2691 966.4724 L 1487.3313 955.2756 M 1475.2691 966.4724 L 1475.2691 1067.2441" stroke="black" stroke-linecap="round" stroke-linejoin="round" stroke-width="1"/>
      </g>
      <g id="Graphic_127_shadow" filter="url(#Shadow)">
        <ellipse cx="1427.6823" cy="1012.5074" rx="3.30709163721852" ry="2.62787467337473" fill="white"/>
        <ellipse cx="1427.6823" cy="1012.5074" rx="3.30709163721852" ry="2.62787467337473" stroke="black" stroke-linecap="round" stroke-linejoin="round" stroke-width="1"/>
      </g>
      <g id="Graphic_129_shadow" filter="url(#Shadow)">
        <path d="M 1378.0479 993.5433 L 1454.5833 993.5433 L 1454.5833 1046.9109 C 1431.6227 1040.24 1401.0085 1066.9237 1378.0479 1053.5818 Z" fill="white"/>
        <path d="M 1378.0479 993.5433 L 1454.5833 993.5433 L 1454.5833 1046.9109 C 1431.6227 1040.24 1401.0085 1066.9237 1378.0479 1053.5818 Z" stroke="black" stroke-linecap="round" stroke-linejoin="round" stroke-width="1"/>
      </g>
      <g id="Graphic_115_shadow" filter="url(#Shadow)">
        <path d="M 1367.6738 1413.0709 L 1367.6738 1312.2992 L 1379.736 1301.1024 L 1488.2959 1301.1024 L 1488.2959 1401.874 L 1476.2337 1413.0709 Z" fill="white"/>
        <path d="M 1367.6738 1413.0709 L 1367.6738 1312.2992 L 1379.736 1301.1024 L 1488.2959 1301.1024 L 1488.2959 1401.874 L 1476.2337 1413.0709 L 1367.6738 1413.0709 M 1367.6738 1312.2992 L 1476.2337 1312.2992 L 1488.2959 1301.1024 M 1476.2337 1312.2992 L 1476.2337 1413.0709" stroke="black" stroke-linecap="round" stroke-linejoin="round" stroke-width="1"/>
      </g>
      <g id="Graphic_112_shadow" filter="url(#Shadow)">
        <ellipse cx="1428.6468" cy="1358.3341" rx="3.30709163721846" ry="2.62787467337485" fill="white"/>
        <ellipse cx="1428.6468" cy="1358.3341" rx="3.30709163721846" ry="2.62787467337485" stroke="black" stroke-linecap="round" stroke-linejoin="round" stroke-width="1"/>
      </g>
      <g id="Graphic_114_shadow" filter="url(#Shadow)">
        <path d="M 1379.0124 1339.3701 L 1455.5479 1339.3701 L 1455.5479 1392.7377 C 1432.5872 1386.0667 1401.973 1412.7505 1379.0124 1399.4086 Z" fill="white"/>
        <path d="M 1379.0124 1339.3701 L 1455.5479 1339.3701 L 1455.5479 1392.7377 C 1432.5872 1386.0667 1401.973 1412.7505 1379.0124 1399.4086 Z" stroke="black" stroke-linecap="round" stroke-linejoin="round" stroke-width="1"/>
      </g>
      <g id="Graphic_97_shadow" filter="url(#Shadow)">
        <ellipse cx="1433.0484" cy="1175.4995" rx="3.30709163721834" ry="2.62787467337479" fill="white"/>
        <ellipse cx="1433.0484" cy="1175.4995" rx="3.30709163721834" ry="2.62787467337479" stroke="black" stroke-linecap="round" stroke-linejoin="round" stroke-width="1"/>
      </g>
      <g id="Graphic_99_shadow" filter="url(#Shadow)">
        <path d="M 1383.414 1156.5354 L 1459.9494 1156.5354 L 1459.9494 1209.903 C 1436.9888 1203.2321 1406.3746 1229.9159 1383.414 1216.574 Z" fill="white"/>
        <path d="M 1383.414 1156.5354 L 1459.9494 1156.5354 L 1459.9494 1209.903 C 1436.9888 1203.2321 1406.3746 1229.9159 1383.414 1216.574 Z" stroke="black" stroke-linecap="round" stroke-linejoin="round" stroke-width="1"/>
      </g>
      <g id="Graphic_100_shadow" filter="url(#Shadow)">
        <path d="M 1367.6738 1236.0008 L 1367.6738 1113.4584 L 1379.736 1099.8425 L 1488.2959 1099.8425 L 1488.2959 1222.385 L 1476.2337 1236.0008 Z" fill="white"/>
        <path d="M 1367.6738 1236.0008 L 1367.6738 1113.4584 L 1379.736 1099.8425 L 1488.2959 1099.8425 L 1488.2959 1222.385 L 1476.2337 1236.0008 L 1367.6738 1236.0008 M 1367.6738 1113.4584 L 1476.2337 1113.4584 L 1488.2959 1099.8425 M 1476.2337 1113.4584 L 1476.2337 1236.0008" stroke="black" stroke-linecap="round" stroke-linejoin="round" stroke-width="1"/>
      </g>
      <g id="Graphic_223_shadow" filter="url(#Shadow)">
        <rect x="1232.4107" y="62.69882" width="84.84191" height="24" fill="white"/>
        <rect x="1232.4107" y="62.69882" width="84.84191" height="24" stroke="black" stroke-linecap="round" stroke-linejoin="round" stroke-width="1"/>
      </g>
      <g id="Graphic_219_shadow" filter="url(#Shadow)">
        <ellipse cx="1074.1266" cy="72.947765" rx="11.3505306370053" ry="10.9014393329366" fill="white"/>
        <ellipse cx="1074.1266" cy="72.947765" rx="11.3505306370053" ry="10.9014393329366" stroke="black" stroke-linecap="round" stroke-linejoin="round" stroke-width="1"/>
      </g>
      <g id="Graphic_210_shadow" filter="url(#Shadow)">
        <path d="M 1023.0742 32.93504 L 1375.0742 32.93504 L 1375.0742 176.13504 C 1269.4742 158.23504 1128.6742 229.83504 1023.0742 194.03504 Z" fill="white"/>
        <path d="M 1023.0742 32.93504 L 1375.0742 32.93504 L 1375.0742 176.13504 C 1269.4742 158.23504 1128.6742 229.83504 1023.0742 194.03504 Z" stroke="black" stroke-linecap="round" stroke-linejoin="round" stroke-width="1"/>
      </g>
      <g id="Graphic_5_shadow" filter="url(#Shadow)">
        <path d="M 1194.4065 421.656 L 1318.225 421.656 C 1332.8709 421.656 1344.7574 427.032 1344.7574 433.656 C 1344.7574 440.28 1332.8709 445.656 1318.225 445.656 L 1194.4065 445.656 C 1179.7606 445.656 1167.874 440.28 1167.874 433.656 C 1167.874 427.032 1179.7606 421.656 1194.4065 421.656 Z" fill="white"/>
        <path d="M 1194.4065 421.656 L 1318.225 421.656 C 1332.8709 421.656 1344.7574 427.032 1344.7574 433.656 C 1344.7574 440.28 1332.8709 445.656 1318.225 445.656 L 1194.4065 445.656 C 1179.7606 445.656 1167.874 440.28 1167.874 433.656 C 1167.874 427.032 1179.7606 421.656 1194.4065 421.656 Z" stroke="black" stroke-linecap="round" stroke-linejoin="round" stroke-width="1"/>
      </g>
      <g id="Graphic_11_shadow" filter="url(#Shadow)">
        <path d="M 1214.9609 370.485 L 1317.0985 370.485 C 1329.18 370.485 1338.9852 375.861 1338.9852 382.485 C 1338.9852 389.109 1329.18 394.485 1317.0985 394.485 L 1214.9609 394.485 C 1202.8794 394.485 1193.0742 389.109 1193.0742 382.485 C 1193.0742 375.861 1202.8794 370.485 1214.9609 370.485 Z" fill="white"/>
        <path d="M 1214.9609 370.485 L 1317.0985 370.485 C 1329.18 370.485 1338.9852 375.861 1338.9852 382.485 C 1338.9852 389.109 1329.18 394.485 1317.0985 394.485 L 1214.9609 394.485 C 1202.8794 394.485 1193.0742 389.109 1193.0742 382.485 C 1193.0742 375.861 1202.8794 370.485 1214.9609 370.485 Z" stroke="black" stroke-linecap="round" stroke-linejoin="round" stroke-width="1"/>
      </g>
      <g id="Graphic_69_shadow" filter="url(#Shadow)">
        <path d="M 1139.4609 262.909 L 1206.5985 262.909 C 1214.54 262.909 1220.9852 268.285 1220.9852 274.909 C 1220.9852 281.533 1214.54 286.909 1206.5985 286.909 L 1139.4609 286.909 C 1131.5194 286.909 1125.0742 281.533 1125.0742 274.909 C 1125.0742 268.285 1131.5194 262.909 1139.4609 262.909 Z" fill="white"/>
        <path d="M 1139.4609 262.909 L 1206.5985 262.909 C 1214.54 262.909 1220.9852 268.285 1220.9852 274.909 C 1220.9852 281.533 1214.54 286.909 1206.5985 286.909 L 1139.4609 286.909 C 1131.5194 286.909 1125.0742 281.533 1125.0742 274.909 C 1125.0742 268.285 1131.5194 262.909 1139.4609 262.909 Z" stroke="black" stroke-linecap="round" stroke-linejoin="round" stroke-width="1"/>
      </g>
      <g id="Graphic_73_shadow" filter="url(#Shadow)">
        <path d="M 1023.0742 231.06102 L 1375.0742 231.06102 L 1375.0742 473.3394 C 1269.4742 443.0546 1128.6742 564.1938 1023.0742 503.6242 Z" fill="white"/>
        <path d="M 1023.0742 231.06102 L 1375.0742 231.06102 L 1375.0742 473.3394 C 1269.4742 443.0546 1128.6742 564.1938 1023.0742 503.6242 Z" stroke="black" stroke-linecap="round" stroke-linejoin="round" stroke-width="1"/>
      </g>
      <g id="Graphic_74_shadow" filter="url(#Shadow)">
        <path d="M 1023.0742 558.69316 L 1375.0742 558.69316 L 1375.0742 701.89316 C 1269.4742 683.99316 1128.6742 755.5932 1023.0742 719.79316 Z" fill="#ebebeb"/>
        <path d="M 1023.0742 558.69316 L 1375.0742 558.69316 L 1375.0742 701.89316 C 1269.4742 683.99316 1128.6742 755.5932 1023.0742 719.79316 Z" stroke="black" stroke-linecap="round" stroke-linejoin="round" stroke-width="1"/>
      </g>
      <g id="Graphic_75_shadow" filter="url(#Shadow)">
        <path d="M 905.6693 758.6043 L 905.6693 -1.6476394 L 966.0473 -86.12008 L 1509.4488 -86.12008 L 1509.4488 674.1319 L 1449.0709 758.6043 Z" fill="white"/>
        <path d="M 905.6693 758.6043 L 905.6693 -1.6476394 L 966.0473 -86.12008 L 1509.4488 -86.12008 L 1509.4488 674.1319 L 1449.0709 758.6043 L 905.6693 758.6043 M 905.6693 -1.6476394 L 1449.0709 -1.6476394 L 1509.4488 -86.12008 M 1449.0709 -1.6476394 L 1449.0709 758.6043" stroke="black" stroke-linecap="round" stroke-linejoin="round" stroke-width="1"/>
      </g>
      <g id="Graphic_64">
        <a xl:href="http://www.photoethnography.com/blog/images/apache-logo.jpg">
          <path d="M 264.38522 509.4921 L 264.38522 197.64213 L 321.11176 162.99213 L 831.6506 162.99213 L 831.6506 474.8421 L 774.9241 509.4921 Z" fill="white"/>
          <path d="M 264.38522 509.4921 L 264.38522 197.64213 L 321.11176 162.99213 L 831.6506 162.99213 L 831.6506 474.8421 L 774.9241 509.4921 L 264.38522 509.4921 M 264.38522 197.64213 L 774.9241 197.64213 L 831.6506 162.99213 M 774.9241 197.64213 L 774.9241 509.4921" stroke="black" stroke-linecap="round" stroke-linejoin="round" stroke-width="1"/>
          <text transform="translate(269.38522 197.64213)" fill="black">
            <tspan font-family="Helvetica" font-size="16" fill="black" x="0" y="15">alice.name</tspan>
          </text>
        </a>
      </g>
      <g id="Graphic_63">
        <rect x="548.2219" y="298.73952" width="117.74598" height="24" fill="white"/>
        <rect x="548.2219" y="298.73952" width="117.74598" height="24" stroke="black" stroke-linecap="round" stroke-linejoin="round" stroke-width="1"/>
        <text transform="translate(553.2219 303.73952)" fill="black">
          <tspan font-family="Helvetica" font-size="12" fill="black" x="9.743107" y="11">Tim Berners Lee</tspan>
        </text>
      </g>
      <g id="Graphic_62">
        <path d="M 321.3525 272.49213 L 698.3525 272.49213 L 698.3525 415.69213 C 585.2525 397.79213 434.4525 469.3921 321.3525 433.59213 Z" fill="white"/>
        <path d="M 321.3525 272.49213 L 698.3525 272.49213 L 698.3525 415.69213 C 585.2525 397.79213 434.4525 469.3921 321.3525 433.59213 Z" stroke="black" stroke-linecap="round" stroke-linejoin="round" stroke-width="1"/>
        <text transform="translate(326.3525 272.49213)" fill="black">
          <tspan font-family="Helvetica" font-size="17" fill="black" x="0" y="16">/card</tspan>
        </text>
      </g>
      <g id="Group_52">
        <g id="Graphic_61"/>
        <g id="Group_54">
          <g id="Graphic_60">
            <ellipse cx="375.15587" cy="319.3288" rx="11.3505306370055" ry="10.9014393329366" fill="white"/>
            <ellipse cx="375.15587" cy="319.3288" rx="11.3505306370055" ry="10.9014393329366" stroke="black" stroke-linecap="round" stroke-linejoin="round" stroke-width="1"/>
          </g>
          <g id="Line_59">
            <line x1="375.1558" y1="330.23125" x2="375.1558" y2="362.9352" stroke="black" stroke-linecap="round" stroke-linejoin="round" stroke-width="1"/>
          </g>
          <g id="Line_58">
            <line x1="375.15576" y1="362.9352" x2="363.80534" y2="395.63907" stroke="black" stroke-linecap="round" stroke-linejoin="round" stroke-width="1"/>
          </g>
          <g id="Line_57">
            <line x1="375.1558" y1="362.9352" x2="386.5062" y2="395.63907" stroke="black" stroke-linecap="round" stroke-linejoin="round" stroke-width="1"/>
          </g>
          <g id="Line_56">
            <line x1="375.1558" y1="341.13225" x2="352.45398" y2="341.13225" stroke="black" stroke-linecap="round" stroke-linejoin="round" stroke-width="1"/>
          </g>
          <g id="Line_55">
            <line x1="397.8566" y1="341.13225" x2="375.15576" y2="341.13225" stroke="black" stroke-linecap="round" stroke-linejoin="round" stroke-width="1"/>
          </g>
        </g>
        <g id="Graphic_53">
          <text transform="translate(346.1035 398.9353)" fill="black">
            <tspan font-family="Helvetica" font-weight="bold" font-size="12" fill="black" x="17.042751" y="11">#me</tspan>
          </text>
        </g>
      </g>
      <g id="Graphic_51">
        <rect x="548.2219" y="298.73952" width="117.74598" height="24" fill="white"/>
        <rect x="548.2219" y="298.73952" width="117.74598" height="24" stroke="black" stroke-linecap="round" stroke-linejoin="round" stroke-width="1"/>
        <text transform="translate(553.2219 303.73952)" fill="black">
          <tspan font-family="Helvetica" font-size="12" fill="black" x="40.868107" y="11">Alice</tspan>
        </text>
      </g>
      <g id="Line_50">
        <path d="M 537.82155 311.04856 C 520.53856 311.45867 503.04783 311.486 486.3525 312.99213 C 466.45955 314.78672 443.10036 316.8368 428.3525 321.52636 C 413.60466 326.2159 408.02087 334.5976 397.8566 341.13225" marker-start="url(#FilledArrow_Marker)" stroke="black" stroke-linecap="round" stroke-linejoin="round" stroke-width="1"/>
      </g>
      <g id="Graphic_49">
        <rect x="442.5819" y="300.15153" width="73" height="27" fill="white"/>
        <text transform="translate(447.951 305.15153)" fill="black">
          <tspan font-family="Helvetica" font-size="14" fill="black" x="0" y="14">foaf:name</tspan>
        </text>
      </g>
      <g id="Graphic_47">
        <path d="M 606.41444 362.83465 L 647.724 362.83465 C 652.61034 362.83465 656.57606 368.21065 656.57606 374.83465 C 656.57606 381.45865 652.61034 386.83465 647.724 386.83465 L 606.41444 386.83465 C 601.5281 386.83465 597.5624 381.45865 597.5624 374.83465 C 597.5624 368.21065 601.5281 362.83465 606.41444 362.83465 Z" fill="white"/>
        <path d="M 606.41444 362.83465 L 647.724 362.83465 C 652.61034 362.83465 656.57606 368.21065 656.57606 374.83465 C 656.57606 381.45865 652.61034 386.83465 647.724 386.83465 L 606.41444 386.83465 C 601.5281 386.83465 597.5624 381.45865 597.5624 374.83465 C 597.5624 368.21065 601.5281 362.83465 606.41444 362.83465 Z" stroke="black" stroke-linecap="round" stroke-linejoin="round" stroke-width="1"/>
        <text transform="translate(608.46376 367.83465)" fill="black">
          <tspan font-family="Helvetica" font-size="12" fill="black" x="16.938477" y="11">/</tspan>
        </text>
      </g>
      <g id="Graphic_42">
        <a xl:href="http://www.photoethnography.com/blog/images/apache-logo.jpg">
          <path d="M 264.38522 1348.7962 L 264.38522 733.5093 L 321.76503 665.14414 L 838.1834 665.14414 L 838.1834 1280.431 L 780.8035 1348.7962 Z" fill="white"/>
          <path d="M 264.38522 1348.7962 L 264.38522 733.5093 L 321.76503 665.14414 L 838.1834 665.14414 L 838.1834 1280.431 L 780.8035 1348.7962 L 264.38522 1348.7962 M 264.38522 733.5093 L 780.8035 733.5093 L 838.1834 665.14414 M 780.8035 733.5093 L 780.8035 1348.7962" stroke="black" stroke-linecap="round" stroke-linejoin="round" stroke-width="1"/>
          <text transform="translate(269.38522 733.5093)" fill="black">
            <tspan font-family="Helvetica" font-size="16" fill="black" x="0" y="15">smith.name</tspan>
          </text>
        </a>
      </g>
      <g id="Graphic_41">
        <rect x="554.7546" y="800.8915" width="117.74598" height="24" fill="white"/>
        <rect x="554.7546" y="800.8915" width="117.74598" height="24" stroke="black" stroke-linecap="round" stroke-linejoin="round" stroke-width="1"/>
        <text transform="translate(559.7546 805.8915)" fill="black">
          <tspan font-family="Helvetica" font-size="12" fill="black" x="9.743107" y="11">Tim Berners Lee</tspan>
        </text>
      </g>
      <g id="Graphic_40">
        <path d="M 327.8852 774.6441 L 756.3852 774.6441 L 756.3852 917.8441 C 627.8352 899.9441 456.4352 971.5441 327.8852 935.7441 Z" fill="white"/>
        <path d="M 327.8852 774.6441 L 756.3852 774.6441 L 756.3852 917.8441 C 627.8352 899.9441 456.4352 971.5441 327.8852 935.7441 Z" stroke="black" stroke-linecap="round" stroke-linejoin="round" stroke-width="1"/>
        <text transform="translate(332.8852 774.6441)" fill="black">
          <tspan font-family="Helvetica" font-size="17" fill="black" x="0" y="16">/caroline</tspan>
        </text>
      </g>
      <g id="Group_30">
        <g id="Graphic_39"/>
        <g id="Group_32">
          <g id="Graphic_38">
            <ellipse cx="381.6886" cy="821.4808" rx="11.3505306370054" ry="10.9014393329366" fill="white"/>
            <ellipse cx="381.6886" cy="821.4808" rx="11.3505306370054" ry="10.9014393329366" stroke="black" stroke-linecap="round" stroke-linejoin="round" stroke-width="1"/>
          </g>
          <g id="Line_37">
            <line x1="381.6885" y1="832.3833" x2="381.6885" y2="865.0872" stroke="black" stroke-linecap="round" stroke-linejoin="round" stroke-width="1"/>
          </g>
          <g id="Line_36">
            <line x1="381.68847" y1="865.0872" x2="370.33805" y2="897.7911" stroke="black" stroke-linecap="round" stroke-linejoin="round" stroke-width="1"/>
          </g>
          <g id="Line_35">
            <line x1="381.6885" y1="865.0872" x2="393.0389" y2="897.7911" stroke="black" stroke-linecap="round" stroke-linejoin="round" stroke-width="1"/>
          </g>
          <g id="Line_34">
            <line x1="381.6885" y1="843.2843" x2="358.9867" y2="843.2843" stroke="black" stroke-linecap="round" stroke-linejoin="round" stroke-width="1"/>
          </g>
          <g id="Line_33">
            <line x1="404.3893" y1="843.2843" x2="381.68847" y2="843.2843" stroke="black" stroke-linecap="round" stroke-linejoin="round" stroke-width="1"/>
          </g>
        </g>
        <g id="Graphic_31">
          <text transform="translate(352.63623 901.0873)" fill="black">
            <tspan font-family="Helvetica" font-weight="bold" font-size="12" fill="black" x="17.042751" y="11">#me</tspan>
          </text>
        </g>
      </g>
      <g id="Graphic_29">
        <rect x="591.8931" y="799.6784" width="117.74598" height="24" fill="white"/>
        <rect x="591.8931" y="799.6784" width="117.74598" height="24" stroke="black" stroke-linecap="round" stroke-linejoin="round" stroke-width="1"/>
        <text transform="translate(596.8931 804.6784)" fill="black">
          <tspan font-family="Helvetica" font-size="12" fill="black" x="31.528263" y="11">Caroline</tspan>
        </text>
      </g>
      <g id="Line_28">
        <path d="M 581.9986 811.9965 C 551.20474 812.9108 516.4826 813.3406 492.8852 815.1441 C 466.71986 817.1439 449.63306 818.9888 434.8852 823.6784 C 420.13737 828.3679 414.5536 836.7496 404.3893 843.2843" marker-start="url(#FilledArrow_Marker)" stroke="black" stroke-linecap="round" stroke-linejoin="round" stroke-width="1"/>
      </g>
      <g id="Graphic_27">
        <rect x="468.4733" y="800.878" width="73" height="27" fill="white"/>
        <text transform="translate(473.84246 805.878)" fill="black">
          <tspan font-family="Helvetica" font-size="14" fill="black" x="0" y="14">foaf:name</tspan>
        </text>
      </g>
      <g id="Group_20">
        <g id="Graphic_25">
          <path d="M 327.8852 1016.6441 L 704.8852 1016.6441 L 704.8852 1254.6441 C 591.7852 1224.8941 440.9852 1343.8941 327.8852 1284.3941 Z" fill="white"/>
          <path d="M 327.8852 1016.6441 L 704.8852 1016.6441 L 704.8852 1254.6441 C 591.7852 1224.8941 440.9852 1343.8941 327.8852 1284.3941 Z" stroke="black" stroke-linecap="round" stroke-linejoin="round" stroke-width="1"/>
          <text transform="translate(332.8852 1016.6441)" fill="black">
            <tspan font-family="Helvetica" font-size="17" fill="black" x="0" y="16">/keys</tspan>
          </text>
        </g>
        <g id="Graphic_24">
          <rect x="363.3852" y="1121.6441" width="309.5" height="113" fill="white"/>
          <rect x="363.3852" y="1121.6441" width="309.5" height="113" stroke="black" stroke-linecap="round" stroke-linejoin="round" stroke-width="1"/>
          <text transform="translate(368.3852 1122.1441)" fill="black">
            <tspan font-family="Courier New" font-size="14" fill="black" x="0" y="12">{ </tspan>
            <tspan font-family="Courier New" font-size="14" fill="black" x="0" y="28">  &quot;alg&quot;:&quot;PS512&quot;,</tspan>
            <tspan font-family="Courier New" font-size="14" fill="black" x="0" y="44">  &quot;e&quot;:&quot;AQAB&quot;,</tspan>
            <tspan font-family="Courier New" font-size="14" fill="black" x="0" y="60">  &quot;kid&quot;:&quot;2021-04-01-laptop&quot;,</tspan>
            <tspan font-family="Courier New" font-size="14" fill="black" x="0" y="76">  &quot;kty&quot;:&quot;RSA&quot;,</tspan>
            <tspan font-family="Courier New" font-size="14" fill="black" x="0" y="92">  “n”: “AcR874L8cn…w” </tspan>
            <tspan font-family="Courier New" font-size="14" fill="black" x="0" y="108">}</tspan>
          </text>
        </g>
        <g id="Line_23">
          <path d="M 394.6405 1111.2583 C 392.3542 1090.493 376.95495 1065.253 407.3852 1055.6441 C 442.87565 1044.4375 540.72583 1054.4859 607.38614 1053.9069" marker-start="url(#FilledArrow_Marker)" stroke="black" stroke-linecap="round" stroke-linejoin="round" stroke-width="1"/>
        </g>
        <g id="Graphic_22">
          <rect x="405.0787" y="1036.9153" width="146.9375" height="27" fill="white"/>
          <text transform="translate(410.0787 1041.9153)" fill="black">
            <tspan font-family="Helvetica" font-size="14" fill="black" x="0" y="14">security:publicKeyJwk</tspan>
          </text>
        </g>
        <g id="Graphic_21" filter="url(#Shadow_2)">
          <path d="M 616.8102 1035.6441 L 658.4602 1035.6441 C 663.3868 1035.6441 667.3852 1043.7081 667.3852 1053.6441 C 667.3852 1063.5801 663.3868 1071.6441 658.4602 1071.6441 L 616.8102 1071.6441 C 611.8836 1071.6441 607.8852 1063.5801 607.8852 1053.6441 C 607.8852 1043.7081 611.8836 1035.6441 616.8102 1035.6441 Z" fill="white"/>
          <path d="M 616.8102 1035.6441 L 658.4602 1035.6441 C 663.3868 1035.6441 667.3852 1043.7081 667.3852 1053.6441 C 667.3852 1063.5801 663.3868 1071.6441 658.4602 1071.6441 L 616.8102 1071.6441 C 611.8836 1071.6441 607.8852 1063.5801 607.8852 1053.6441 C 607.8852 1043.7081 611.8836 1035.6441 616.8102 1035.6441 Z" stroke="black" stroke-linecap="round" stroke-linejoin="round" stroke-width="1"/>
          <text transform="translate(618.8352 1044.4201)" fill="black">
            <tspan font-family="Helvetica Neue" font-size="16" fill="black" x="5.751999" y="15">#k1</tspan>
          </text>
        </g>
      </g>
      <g id="Line_19">
        <path d="M 629.0836 1025.5184 C 626.26896 1004.9075 632.27345 981.3961 608.11754 967.7962 C 580.0821 952.012 498.8971 952.1233 463.05423 940.4569 C 427.2114 928.7906 416.375 912.0116 393.0389 897.7911" marker-start="url(#FilledArrow_Marker)" stroke="black" stroke-linecap="round" stroke-linejoin="round" stroke-width="1"/>
      </g>
      <g id="Graphic_18">
        <rect x="486.7259" y="936.4422" width="59.01367" height="27" fill="white"/>
        <text transform="translate(491.7259 941.4422)" fill="black">
          <tspan font-family="Helvetica" font-size="14" fill="black" x="0" y="14">cert:key</tspan>
        </text>
      </g>
      <g id="Graphic_15">
        <rect x="597.5624" y="852.1441" width="117.74598" height="24" fill="white"/>
        <rect x="597.5624" y="852.1441" width="117.74598" height="24" stroke="black" stroke-linecap="round" stroke-linejoin="round" stroke-width="1"/>
        <text transform="translate(602.5624 857.1441)" fill="black">
          <tspan font-family="Helvetica" font-size="12" fill="black" x="38.536076" y="11">Smith</tspan>
        </text>
      </g>
      <g id="Line_14">
        <path d="M 587.6624 864.1291 L 503.3713 864.001 L 381.6885 865.0872" marker-start="url(#FilledArrow_Marker)" stroke="black" stroke-linecap="round" stroke-linejoin="round" stroke-width="1"/>
      </g>
      <g id="Line_12">
        <path d="M 350.90654 837.5701 C 336.2674 827.0224 323.13622 816.6926 304.44444 805.5556 C 282.3933 792.4169 241.85033 821.1054 226.66667 764.4444 C 211.483 707.78345 196.46526 528.88255 213.33333 465.55556 C 230.2014 402.22856 304.70076 405.1796 327.8852 384.44444 C 351.06967 363.7093 344.2652 355.5682 352.45398 341.13225" marker-start="url(#FilledArrow_Marker)" stroke="black" stroke-linecap="round" stroke-linejoin="round" stroke-width="1"/>
      </g>
      <g id="Group_191">
        <g id="Graphic_206">
          <a xl:href="http://www.photoethnography.com/blog/images/apache-logo.jpg">
            <path d="M 1188.1266 962.3622 L 1188.1266 861.5906 L 1200.1888 850.3937 L 1308.7486 850.3937 L 1308.7486 951.1654 L 1296.6864 962.3622 Z" fill="white"/>
            <path d="M 1188.1266 962.3622 L 1188.1266 861.5906 L 1200.1888 850.3937 L 1308.7486 850.3937 L 1308.7486 951.1654 L 1296.6864 962.3622 L 1188.1266 962.3622 M 1188.1266 861.5906 L 1296.6864 861.5906 L 1308.7486 850.3937 M 1296.6864 861.5906 L 1296.6864 962.3622" stroke="black" stroke-linecap="round" stroke-linejoin="round" stroke-width="1"/>
            <text transform="translate(1193.1266 861.5906)" fill="black">
              <tspan font-family="Helvetica" font-size="16" fill="black" x="0" y="15">danbri.org</tspan>
            </text>
          </a>
        </g>
        <g id="Group_192">
          <g id="Graphic_205">
            <path d="M 1199.4652 888.6614 L 1276.0006 888.6614 L 1276.0006 942.029 C 1253.04 935.3581 1222.4258 962.0418 1199.4652 948.7 Z" fill="white"/>
            <path d="M 1199.4652 888.6614 L 1276.0006 888.6614 L 1276.0006 942.029 C 1253.04 935.3581 1222.4258 962.0418 1199.4652 948.7 Z" stroke="black" stroke-linecap="round" stroke-linejoin="round" stroke-width="1"/>
            <text transform="translate(1204.4652 888.6614)" fill="black">
              <tspan font-family="Helvetica" font-size="17" fill="black" x="0" y="16">…</tspan>
            </text>
          </g>
          <g id="Group_193">
            <g id="Group_195">
              <g id="Graphic_204"/>
              <g id="Group_197">
                <g id="Graphic_203">
                  <ellipse cx="1249.0996" cy="907.6255" rx="3.3070916372184" ry="2.62787467337476" fill="white"/>
                  <ellipse cx="1249.0996" cy="907.6255" rx="3.3070916372184" ry="2.62787467337476" stroke="black" stroke-linecap="round" stroke-linejoin="round" stroke-width="1"/>
                </g>
                <g id="Line_202">
                  <line x1="1249.0996" y1="910.2536" x2="1249.0996" y2="918.1371" stroke="black" stroke-linecap="round" stroke-linejoin="round" stroke-width="1"/>
                </g>
                <g id="Line_201">
                  <line x1="1249.0996" y1="918.1371" x2="1245.7925" y2="926.0206" stroke="black" stroke-linecap="round" stroke-linejoin="round" stroke-width="1"/>
                </g>
                <g id="Line_200">
                  <line x1="1249.0996" y1="918.1371" x2="1252.4066" y2="926.0206" stroke="black" stroke-linecap="round" stroke-linejoin="round" stroke-width="1"/>
                </g>
                <g id="Line_199">
                  <line x1="1249.0996" y1="912.8814" x2="1242.4852" y2="912.8814" stroke="black" stroke-linecap="round" stroke-linejoin="round" stroke-width="1"/>
                </g>
                <g id="Line_198">
                  <line x1="1255.7137" y1="912.8814" x2="1249.0996" y2="912.8814" stroke="black" stroke-linecap="round" stroke-linejoin="round" stroke-width="1"/>
                </g>
              </g>
              <g id="Graphic_196"/>
            </g>
            <g id="Graphic_194">
              <path d="M 1242.1063 901.5126 L 1255.771 901.5126 C 1257.3874 901.5126 1258.6992 908.1797 1258.6992 916.3945 C 1258.6992 924.6093 1257.3874 931.2764 1255.771 931.2764 L 1242.1063 931.2764 C 1240.4899 931.2764 1239.1781 924.6093 1239.1781 916.3945 C 1239.1781 908.1797 1240.4899 901.5126 1242.1063 901.5126 Z" fill="#ffc75a" fill-opacity=".42"/>
            </g>
          </g>
        </g>
      </g>
      <g id="Graphic_190">
        <a xl:href="http://www.photoethnography.com/blog/images/apache-logo.jpg">
          <path d="M 1188.1266 1102.6772 L 1188.1266 1001.9055 L 1200.1888 990.7087 L 1308.7486 990.7087 L 1308.7486 1091.4803 L 1296.6864 1102.6772 Z" fill="white"/>
          <path d="M 1188.1266 1102.6772 L 1188.1266 1001.9055 L 1200.1888 990.7087 L 1308.7486 990.7087 L 1308.7486 1091.4803 L 1296.6864 1102.6772 L 1188.1266 1102.6772 M 1188.1266 1001.9055 L 1296.6864 1001.9055 L 1308.7486 990.7087 M 1296.6864 1001.9055 L 1296.6864 1102.6772" stroke="black" stroke-linecap="round" stroke-linejoin="round" stroke-width="1"/>
          <text transform="translate(1193.1266 1001.9055)" fill="black">
            <tspan font-family="Helvetica" font-size="16" fill="black" x="0" y="15">bblfish.net</tspan>
          </text>
        </a>
      </g>
      <g id="Group_176">
        <g id="Graphic_189">
          <path d="M 1199.4652 1028.9764 L 1276.0006 1028.9764 L 1276.0006 1082.344 C 1253.04 1075.673 1222.4258 1102.3568 1199.4652 1089.0149 Z" fill="white"/>
          <path d="M 1199.4652 1028.9764 L 1276.0006 1028.9764 L 1276.0006 1082.344 C 1253.04 1075.673 1222.4258 1102.3568 1199.4652 1089.0149 Z" stroke="black" stroke-linecap="round" stroke-linejoin="round" stroke-width="1"/>
          <text transform="translate(1204.4652 1028.9764)" fill="black">
            <tspan font-family="Helvetica" font-size="17" fill="black" x="0" y="16">…</tspan>
          </text>
        </g>
        <g id="Group_177">
          <g id="Group_179">
            <g id="Graphic_188"/>
            <g id="Group_181">
              <g id="Graphic_187">
                <ellipse cx="1249.0996" cy="1047.9404" rx="3.30709163721852" ry="2.62787467337482" fill="white"/>
                <ellipse cx="1249.0996" cy="1047.9404" rx="3.30709163721852" ry="2.62787467337482" stroke="black" stroke-linecap="round" stroke-linejoin="round" stroke-width="1"/>
              </g>
              <g id="Line_186">
                <line x1="1249.0996" y1="1050.5685" x2="1249.0996" y2="1058.4521" stroke="black" stroke-linecap="round" stroke-linejoin="round" stroke-width="1"/>
              </g>
              <g id="Line_185">
                <line x1="1249.0996" y1="1058.4521" x2="1245.7925" y2="1066.3356" stroke="black" stroke-linecap="round" stroke-linejoin="round" stroke-width="1"/>
              </g>
              <g id="Line_184">
                <line x1="1249.0996" y1="1058.4521" x2="1252.4066" y2="1066.3356" stroke="black" stroke-linecap="round" stroke-linejoin="round" stroke-width="1"/>
              </g>
              <g id="Line_183">
                <line x1="1249.0996" y1="1053.1963" x2="1242.4852" y2="1053.1963" stroke="black" stroke-linecap="round" stroke-linejoin="round" stroke-width="1"/>
              </g>
              <g id="Line_182">
                <line x1="1255.7137" y1="1053.1963" x2="1249.0996" y2="1053.1963" stroke="black" stroke-linecap="round" stroke-linejoin="round" stroke-width="1"/>
              </g>
            </g>
            <g id="Graphic_180"/>
          </g>
          <g id="Graphic_178">
            <path d="M 1242.1063 1041.8276 L 1255.771 1041.8276 C 1257.3874 1041.8276 1258.6992 1048.4947 1258.6992 1056.7095 C 1258.6992 1064.9243 1257.3874 1071.5914 1255.771 1071.5914 L 1242.1063 1071.5914 C 1240.4899 1071.5914 1239.1781 1064.9243 1239.1781 1056.7095 C 1239.1781 1048.4947 1240.4899 1041.8276 1242.1063 1041.8276 Z" fill="#ffc75a" fill-opacity=".42"/>
          </g>
        </g>
      </g>
      <g id="Graphic_175">
        <a xl:href="http://www.photoethnography.com/blog/images/apache-logo.jpg">
          <path d="M 1188.1266 1242.9921 L 1188.1266 1142.2205 L 1200.1888 1131.0236 L 1308.7486 1131.0236 L 1308.7486 1231.7953 L 1296.6864 1242.9921 Z" fill="white"/>
          <path d="M 1188.1266 1242.9921 L 1188.1266 1142.2205 L 1200.1888 1131.0236 L 1308.7486 1131.0236 L 1308.7486 1231.7953 L 1296.6864 1242.9921 L 1188.1266 1242.9921 M 1188.1266 1142.2205 L 1296.6864 1142.2205 L 1308.7486 1131.0236 M 1296.6864 1142.2205 L 1296.6864 1242.9921" stroke="black" stroke-linecap="round" stroke-linejoin="round" stroke-width="1"/>
          <text transform="translate(1193.1266 1142.2205)" fill="black">
            <tspan font-family="Helvetica" font-size="16" fill="black" x="0" y="15">web.mit.edu</tspan>
          </text>
        </a>
      </g>
      <g id="Group_161">
        <g id="Graphic_174">
          <path d="M 1199.4652 1169.2913 L 1276.0006 1169.2913 L 1276.0006 1222.6589 C 1253.04 1215.988 1222.4258 1242.6718 1199.4652 1229.3299 Z" fill="white"/>
          <path d="M 1199.4652 1169.2913 L 1276.0006 1169.2913 L 1276.0006 1222.6589 C 1253.04 1215.988 1222.4258 1242.6718 1199.4652 1229.3299 Z" stroke="black" stroke-linecap="round" stroke-linejoin="round" stroke-width="1"/>
          <text transform="translate(1204.4652 1169.2913)" fill="black">
            <tspan font-family="Helvetica" font-size="17" fill="black" x="0" y="16">…</tspan>
          </text>
        </g>
        <g id="Group_162">
          <g id="Group_164">
            <g id="Graphic_173"/>
            <g id="Group_166">
              <g id="Graphic_172">
                <ellipse cx="1249.0996" cy="1188.2554" rx="3.30709163721852" ry="2.62787467337479" fill="white"/>
                <ellipse cx="1249.0996" cy="1188.2554" rx="3.30709163721852" ry="2.62787467337479" stroke="black" stroke-linecap="round" stroke-linejoin="round" stroke-width="1"/>
              </g>
              <g id="Line_171">
                <line x1="1249.0996" y1="1190.8835" x2="1249.0996" y2="1198.767" stroke="black" stroke-linecap="round" stroke-linejoin="round" stroke-width="1"/>
              </g>
              <g id="Line_170">
                <line x1="1249.0996" y1="1198.767" x2="1245.7925" y2="1206.6506" stroke="black" stroke-linecap="round" stroke-linejoin="round" stroke-width="1"/>
              </g>
              <g id="Line_169">
                <line x1="1249.0996" y1="1198.767" x2="1252.4066" y2="1206.6506" stroke="black" stroke-linecap="round" stroke-linejoin="round" stroke-width="1"/>
              </g>
              <g id="Line_168">
                <line x1="1249.0996" y1="1193.5113" x2="1242.4852" y2="1193.5113" stroke="black" stroke-linecap="round" stroke-linejoin="round" stroke-width="1"/>
              </g>
              <g id="Line_167">
                <line x1="1255.7137" y1="1193.5113" x2="1249.0996" y2="1193.5113" stroke="black" stroke-linecap="round" stroke-linejoin="round" stroke-width="1"/>
              </g>
            </g>
            <g id="Graphic_165"/>
          </g>
          <g id="Graphic_163">
            <path d="M 1242.1063 1182.1426 L 1255.771 1182.1426 C 1257.3874 1182.1426 1258.6992 1188.8096 1258.6992 1197.0244 C 1258.6992 1205.2392 1257.3874 1211.9063 1255.771 1211.9063 L 1242.1063 1211.9063 C 1240.4899 1211.9063 1239.1781 1205.2392 1239.1781 1197.0244 C 1239.1781 1188.8096 1240.4899 1182.1426 1242.1063 1182.1426 Z" fill="#ffc75a" fill-opacity=".42"/>
          </g>
        </g>
      </g>
      <g id="Graphic_160">
        <a xl:href="http://www.photoethnography.com/blog/images/apache-logo.jpg">
          <path d="M 1188.1266 1382.9921 L 1188.1266 1282.2205 L 1200.1888 1271.0236 L 1308.7486 1271.0236 L 1308.7486 1371.7953 L 1296.6864 1382.9921 Z" fill="white"/>
          <path d="M 1188.1266 1382.9921 L 1188.1266 1282.2205 L 1200.1888 1271.0236 L 1308.7486 1271.0236 L 1308.7486 1371.7953 L 1296.6864 1382.9921 L 1188.1266 1382.9921 M 1188.1266 1282.2205 L 1296.6864 1282.2205 L 1308.7486 1271.0236 M 1296.6864 1282.2205 L 1296.6864 1382.9921" stroke="black" stroke-linecap="round" stroke-linejoin="round" stroke-width="1"/>
          <text transform="translate(1193.1266 1282.2205)" fill="black">
            <tspan font-family="Helvetica" font-size="16" fill="black" x="0" y="15">lassila.org</tspan>
          </text>
        </a>
      </g>
      <g id="Group_146">
        <g id="Graphic_159">
          <path d="M 1199.4652 1309.2913 L 1276.0006 1309.2913 L 1276.0006 1362.659 C 1253.04 1355.988 1222.4258 1382.6718 1199.4652 1369.3299 Z" fill="white"/>
          <path d="M 1199.4652 1309.2913 L 1276.0006 1309.2913 L 1276.0006 1362.659 C 1253.04 1355.988 1222.4258 1382.6718 1199.4652 1369.3299 Z" stroke="black" stroke-linecap="round" stroke-linejoin="round" stroke-width="1"/>
          <text transform="translate(1204.4652 1309.2913)" fill="black">
            <tspan font-family="Helvetica" font-size="17" fill="black" x="0" y="16">…</tspan>
          </text>
        </g>
        <g id="Group_147">
          <g id="Group_149">
            <g id="Graphic_158"/>
            <g id="Group_151">
              <g id="Graphic_157">
                <ellipse cx="1249.0996" cy="1328.2554" rx="3.30709163721852" ry="2.62787467337479" fill="white"/>
                <ellipse cx="1249.0996" cy="1328.2554" rx="3.30709163721852" ry="2.62787467337479" stroke="black" stroke-linecap="round" stroke-linejoin="round" stroke-width="1"/>
              </g>
              <g id="Line_156">
                <line x1="1249.0996" y1="1330.8835" x2="1249.0996" y2="1338.767" stroke="black" stroke-linecap="round" stroke-linejoin="round" stroke-width="1"/>
              </g>
              <g id="Line_155">
                <line x1="1249.0996" y1="1338.767" x2="1245.7925" y2="1346.6506" stroke="black" stroke-linecap="round" stroke-linejoin="round" stroke-width="1"/>
              </g>
              <g id="Line_154">
                <line x1="1249.0996" y1="1338.767" x2="1252.4066" y2="1346.6506" stroke="black" stroke-linecap="round" stroke-linejoin="round" stroke-width="1"/>
              </g>
              <g id="Line_153">
                <line x1="1249.0996" y1="1333.5113" x2="1242.4852" y2="1333.5113" stroke="black" stroke-linecap="round" stroke-linejoin="round" stroke-width="1"/>
              </g>
              <g id="Line_152">
                <line x1="1255.7137" y1="1333.5113" x2="1249.0996" y2="1333.5113" stroke="black" stroke-linecap="round" stroke-linejoin="round" stroke-width="1"/>
              </g>
            </g>
            <g id="Graphic_150"/>
          </g>
          <g id="Graphic_148">
            <path d="M 1242.1063 1322.1426 L 1255.771 1322.1426 C 1257.3874 1322.1426 1258.6992 1328.8096 1258.6992 1337.0244 C 1258.6992 1345.2392 1257.3874 1351.9063 1255.771 1351.9063 L 1242.1063 1351.9063 C 1240.4899 1351.9063 1239.1781 1345.2392 1239.1781 1337.0244 C 1239.1781 1328.8096 1240.4899 1322.1426 1242.1063 1322.1426 Z" fill="#ffc75a" fill-opacity=".42"/>
          </g>
        </g>
      </g>
      <g id="Graphic_145">
        <a xl:href="http://www.photoethnography.com/blog/images/apache-logo.jpg">
          <path d="M 1366.7093 902.8347 L 1366.7093 802.063 L 1378.7715 790.86615 L 1487.3313 790.86615 L 1487.3313 891.6378 L 1475.2691 902.8347 Z" fill="white"/>
          <path d="M 1366.7093 902.8347 L 1366.7093 802.063 L 1378.7715 790.86615 L 1487.3313 790.86615 L 1487.3313 891.6378 L 1475.2691 902.8347 L 1366.7093 902.8347 M 1366.7093 802.063 L 1475.2691 802.063 L 1487.3313 790.86615 M 1475.2691 802.063 L 1475.2691 902.8347" stroke="black" stroke-linecap="round" stroke-linejoin="round" stroke-width="1"/>
          <text transform="translate(1371.7093 802.063)" fill="black">
            <tspan font-family="Helvetica" font-size="16" fill="black" x="0" y="15">www.isi.edu</tspan>
          </text>
        </a>
      </g>
      <g id="Group_131">
        <g id="Graphic_144">
          <path d="M 1378.0479 829.1339 L 1454.5833 829.1339 L 1454.5833 882.5014 C 1431.6227 875.8305 1401.0085 902.5143 1378.0479 889.1724 Z" fill="white"/>
          <path d="M 1378.0479 829.1339 L 1454.5833 829.1339 L 1454.5833 882.5014 C 1431.6227 875.8305 1401.0085 902.5143 1378.0479 889.1724 Z" stroke="black" stroke-linecap="round" stroke-linejoin="round" stroke-width="1"/>
          <text transform="translate(1383.0479 829.1339)" fill="black">
            <tspan font-family="Helvetica" font-size="17" fill="black" x="0" y="16">…</tspan>
          </text>
        </g>
        <g id="Group_132">
          <g id="Group_134">
            <g id="Graphic_143"/>
            <g id="Group_136">
              <g id="Graphic_142">
                <ellipse cx="1427.6823" cy="848.0979" rx="3.30709163721828" ry="2.62787467337476" fill="white"/>
                <ellipse cx="1427.6823" cy="848.0979" rx="3.30709163721828" ry="2.62787467337476" stroke="black" stroke-linecap="round" stroke-linejoin="round" stroke-width="1"/>
              </g>
              <g id="Line_141">
                <line x1="1427.6823" y1="850.726" x2="1427.6823" y2="858.6096" stroke="black" stroke-linecap="round" stroke-linejoin="round" stroke-width="1"/>
              </g>
              <g id="Line_140">
                <line x1="1427.6822" y1="858.6096" x2="1424.3752" y2="866.4931" stroke="black" stroke-linecap="round" stroke-linejoin="round" stroke-width="1"/>
              </g>
              <g id="Line_139">
                <line x1="1427.6823" y1="858.6096" x2="1430.9893" y2="866.4931" stroke="black" stroke-linecap="round" stroke-linejoin="round" stroke-width="1"/>
              </g>
              <g id="Line_138">
                <line x1="1427.6823" y1="853.3538" x2="1421.0679" y2="853.3538" stroke="black" stroke-linecap="round" stroke-linejoin="round" stroke-width="1"/>
              </g>
              <g id="Line_137">
                <line x1="1434.2964" y1="853.3538" x2="1427.6822" y2="853.3538" stroke="black" stroke-linecap="round" stroke-linejoin="round" stroke-width="1"/>
              </g>
            </g>
            <g id="Graphic_135"/>
          </g>
          <g id="Graphic_133">
            <path d="M 1420.689 841.9851 L 1434.3537 841.9851 C 1435.9701 841.9851 1437.2819 848.6522 1437.2819 856.867 C 1437.2819 865.0818 1435.9701 871.7488 1434.3537 871.7488 L 1420.689 871.7488 C 1419.0726 871.7488 1417.7608 865.0818 1417.7608 856.867 C 1417.7608 848.6522 1419.0726 841.9851 1420.689 841.9851 Z" fill="#ffc75a" fill-opacity=".42"/>
          </g>
        </g>
      </g>
      <g id="Graphic_130">
        <a xl:href="http://www.photoethnography.com/blog/images/apache-logo.jpg">
          <path d="M 1366.7093 1067.2441 L 1366.7093 966.4724 L 1378.7715 955.2756 L 1487.3313 955.2756 L 1487.3313 1056.0473 L 1475.2691 1067.2441 Z" fill="white"/>
          <path d="M 1366.7093 1067.2441 L 1366.7093 966.4724 L 1378.7715 955.2756 L 1487.3313 955.2756 L 1487.3313 1056.0473 L 1475.2691 1067.2441 L 1366.7093 1067.2441 M 1366.7093 966.4724 L 1475.2691 966.4724 L 1487.3313 955.2756 M 1475.2691 966.4724 L 1475.2691 1067.2441" stroke="black" stroke-linecap="round" stroke-linejoin="round" stroke-width="1"/>
          <text transform="translate(1371.7093 966.4724)" fill="black">
            <tspan font-family="Helvetica" font-size="16" fill="black" x="0" y="15">heddley.com</tspan>
          </text>
        </a>
      </g>
      <g id="Group_116">
        <g id="Graphic_129">
          <path d="M 1378.0479 993.5433 L 1454.5833 993.5433 L 1454.5833 1046.9109 C 1431.6227 1040.24 1401.0085 1066.9237 1378.0479 1053.5818 Z" fill="white"/>
          <path d="M 1378.0479 993.5433 L 1454.5833 993.5433 L 1454.5833 1046.9109 C 1431.6227 1040.24 1401.0085 1066.9237 1378.0479 1053.5818 Z" stroke="black" stroke-linecap="round" stroke-linejoin="round" stroke-width="1"/>
          <text transform="translate(1383.0479 993.5433)" fill="black">
            <tspan font-family="Helvetica" font-size="17" fill="black" x="0" y="16">…</tspan>
          </text>
        </g>
        <g id="Group_117">
          <g id="Group_119">
            <g id="Graphic_128"/>
            <g id="Group_121">
              <g id="Graphic_127">
                <ellipse cx="1427.6823" cy="1012.5074" rx="3.30709163721852" ry="2.62787467337473" fill="white"/>
                <ellipse cx="1427.6823" cy="1012.5074" rx="3.30709163721852" ry="2.62787467337473" stroke="black" stroke-linecap="round" stroke-linejoin="round" stroke-width="1"/>
              </g>
              <g id="Line_126">
                <line x1="1427.6823" y1="1015.1355" x2="1427.6823" y2="1023.019" stroke="black" stroke-linecap="round" stroke-linejoin="round" stroke-width="1"/>
              </g>
              <g id="Line_125">
                <line x1="1427.6822" y1="1023.019" x2="1424.3752" y2="1030.9025" stroke="black" stroke-linecap="round" stroke-linejoin="round" stroke-width="1"/>
              </g>
              <g id="Line_124">
                <line x1="1427.6823" y1="1023.019" x2="1430.9893" y2="1030.9025" stroke="black" stroke-linecap="round" stroke-linejoin="round" stroke-width="1"/>
              </g>
              <g id="Line_123">
                <line x1="1427.6823" y1="1017.7632" x2="1421.0679" y2="1017.7632" stroke="black" stroke-linecap="round" stroke-linejoin="round" stroke-width="1"/>
              </g>
              <g id="Line_122">
                <line x1="1434.2964" y1="1017.7632" x2="1427.6822" y2="1017.7632" stroke="black" stroke-linecap="round" stroke-linejoin="round" stroke-width="1"/>
              </g>
            </g>
            <g id="Graphic_120"/>
          </g>
          <g id="Graphic_118">
            <path d="M 1420.689 1006.3945 L 1434.3537 1006.3945 C 1435.9701 1006.3945 1437.2819 1013.0616 1437.2819 1021.2764 C 1437.2819 1029.4912 1435.9701 1036.1583 1434.3537 1036.1583 L 1420.689 1036.1583 C 1419.0726 1036.1583 1417.7608 1029.4912 1417.7608 1021.2764 C 1417.7608 1013.0616 1419.0726 1006.3945 1420.689 1006.3945 Z" fill="#ffc75a" fill-opacity=".42"/>
          </g>
        </g>
      </g>
      <g id="Graphic_115">
        <a xl:href="http://www.photoethnography.com/blog/images/apache-logo.jpg">
          <path d="M 1367.6738 1413.0709 L 1367.6738 1312.2992 L 1379.736 1301.1024 L 1488.2959 1301.1024 L 1488.2959 1401.874 L 1476.2337 1413.0709 Z" fill="white"/>
          <path d="M 1367.6738 1413.0709 L 1367.6738 1312.2992 L 1379.736 1301.1024 L 1488.2959 1301.1024 L 1488.2959 1401.874 L 1476.2337 1413.0709 L 1367.6738 1413.0709 M 1367.6738 1312.2992 L 1476.2337 1312.2992 L 1488.2959 1301.1024 M 1476.2337 1312.2992 L 1476.2337 1413.0709" stroke="black" stroke-linecap="round" stroke-linejoin="round" stroke-width="1"/>
          <text transform="translate(1372.6738 1312.2992)" fill="black">
            <tspan font-family="Helvetica" font-size="16" fill="black" x="0" y="15">eikeon.com</tspan>
          </text>
        </a>
      </g>
      <g id="Group_101">
        <g id="Graphic_114">
          <path d="M 1379.0124 1339.3701 L 1455.5479 1339.3701 L 1455.5479 1392.7377 C 1432.5872 1386.0667 1401.973 1412.7505 1379.0124 1399.4086 Z" fill="white"/>
          <path d="M 1379.0124 1339.3701 L 1455.5479 1339.3701 L 1455.5479 1392.7377 C 1432.5872 1386.0667 1401.973 1412.7505 1379.0124 1399.4086 Z" stroke="black" stroke-linecap="round" stroke-linejoin="round" stroke-width="1"/>
          <text transform="translate(1384.0124 1339.3701)" fill="black">
            <tspan font-family="Helvetica" font-size="17" fill="black" x="0" y="16">…</tspan>
          </text>
        </g>
        <g id="Group_102">
          <g id="Group_104">
            <g id="Graphic_113"/>
            <g id="Group_106">
              <g id="Graphic_112">
                <ellipse cx="1428.6468" cy="1358.3341" rx="3.30709163721846" ry="2.62787467337485" fill="white"/>
                <ellipse cx="1428.6468" cy="1358.3341" rx="3.30709163721846" ry="2.62787467337485" stroke="black" stroke-linecap="round" stroke-linejoin="round" stroke-width="1"/>
              </g>
              <g id="Line_111">
                <line x1="1428.6468" y1="1360.9623" x2="1428.6468" y2="1368.8458" stroke="black" stroke-linecap="round" stroke-linejoin="round" stroke-width="1"/>
              </g>
              <g id="Line_110">
                <line x1="1428.6468" y1="1368.8458" x2="1425.3398" y2="1376.7293" stroke="black" stroke-linecap="round" stroke-linejoin="round" stroke-width="1"/>
              </g>
              <g id="Line_109">
                <line x1="1428.6468" y1="1368.8458" x2="1431.9539" y2="1376.7293" stroke="black" stroke-linecap="round" stroke-linejoin="round" stroke-width="1"/>
              </g>
              <g id="Line_108">
                <line x1="1428.6468" y1="1363.59" x2="1422.0324" y2="1363.59" stroke="black" stroke-linecap="round" stroke-linejoin="round" stroke-width="1"/>
              </g>
              <g id="Line_107">
                <line x1="1435.261" y1="1363.59" x2="1428.6468" y2="1363.59" stroke="black" stroke-linecap="round" stroke-linejoin="round" stroke-width="1"/>
              </g>
            </g>
            <g id="Graphic_105"/>
          </g>
          <g id="Graphic_103">
            <path d="M 1421.6535 1352.2213 L 1435.3183 1352.2213 C 1436.9347 1352.2213 1438.2465 1358.8884 1438.2465 1367.1032 C 1438.2465 1375.318 1436.9347 1381.985 1435.3183 1381.985 L 1421.6535 1381.985 C 1420.0372 1381.985 1418.7254 1375.318 1418.7254 1367.1032 C 1418.7254 1358.8884 1420.0372 1352.2213 1421.6535 1352.2213 Z" fill="#ffc75a" fill-opacity=".42"/>
          </g>
        </g>
      </g>
      <g id="Group_85">
        <g id="Graphic_100">
          <a xl:href="http://www.photoethnography.com/blog/images/apache-logo.jpg">
            <path d="M 1367.6738 1236.0008 L 1367.6738 1113.4584 L 1379.736 1099.8425 L 1488.2959 1099.8425 L 1488.2959 1222.385 L 1476.2337 1236.0008 Z" fill="white"/>
            <path d="M 1367.6738 1236.0008 L 1367.6738 1113.4584 L 1379.736 1099.8425 L 1488.2959 1099.8425 L 1488.2959 1222.385 L 1476.2337 1236.0008 L 1367.6738 1236.0008 M 1367.6738 1113.4584 L 1476.2337 1113.4584 L 1488.2959 1099.8425 M 1476.2337 1113.4584 L 1476.2337 1236.0008" stroke="black" stroke-linecap="round" stroke-linejoin="round" stroke-width="1"/>
            <text transform="translate(1372.6738 1113.4584)" fill="black">
              <tspan font-family="Helvetica" font-size="16" fill="black" x="0" y="15">ivan-</tspan>
              <tspan font-family="Helvetica" font-size="16" fill="black" x="0" y="34">herman.net</tspan>
            </text>
          </a>
        </g>
        <g id="Group_86">
          <g id="Graphic_99">
            <path d="M 1383.414 1156.5354 L 1459.9494 1156.5354 L 1459.9494 1209.903 C 1436.9888 1203.2321 1406.3746 1229.9159 1383.414 1216.574 Z" fill="white"/>
            <path d="M 1383.414 1156.5354 L 1459.9494 1156.5354 L 1459.9494 1209.903 C 1436.9888 1203.2321 1406.3746 1229.9159 1383.414 1216.574 Z" stroke="black" stroke-linecap="round" stroke-linejoin="round" stroke-width="1"/>
            <text transform="translate(1388.414 1156.5354)" fill="black">
              <tspan font-family="Helvetica" font-size="17" fill="black" x="0" y="16">…</tspan>
            </text>
          </g>
          <g id="Group_87">
            <g id="Group_89">
              <g id="Graphic_98"/>
              <g id="Group_91">
                <g id="Graphic_97">
                  <ellipse cx="1433.0484" cy="1175.4995" rx="3.30709163721834" ry="2.62787467337479" fill="white"/>
                  <ellipse cx="1433.0484" cy="1175.4995" rx="3.30709163721834" ry="2.62787467337479" stroke="black" stroke-linecap="round" stroke-linejoin="round" stroke-width="1"/>
                </g>
                <g id="Line_96">
                  <line x1="1433.0484" y1="1178.1276" x2="1433.0484" y2="1186.0111" stroke="black" stroke-linecap="round" stroke-linejoin="round" stroke-width="1"/>
                </g>
                <g id="Line_95">
                  <line x1="1433.0484" y1="1186.0111" x2="1429.7413" y2="1193.8947" stroke="black" stroke-linecap="round" stroke-linejoin="round" stroke-width="1"/>
                </g>
                <g id="Line_94">
                  <line x1="1433.0484" y1="1186.0111" x2="1436.3555" y2="1193.8947" stroke="black" stroke-linecap="round" stroke-linejoin="round" stroke-width="1"/>
                </g>
                <g id="Line_93">
                  <line x1="1433.0484" y1="1180.7554" x2="1426.434" y2="1180.7554" stroke="black" stroke-linecap="round" stroke-linejoin="round" stroke-width="1"/>
                </g>
                <g id="Line_92">
                  <line x1="1439.6625" y1="1180.7554" x2="1433.0484" y2="1180.7554" stroke="black" stroke-linecap="round" stroke-linejoin="round" stroke-width="1"/>
                </g>
              </g>
              <g id="Graphic_90"/>
            </g>
            <g id="Graphic_88">
              <path d="M 1426.0551 1169.3866 L 1439.7199 1169.3866 C 1441.3362 1169.3866 1442.648 1176.0537 1442.648 1184.2685 C 1442.648 1192.4833 1441.3362 1199.1504 1439.7199 1199.1504 L 1426.0551 1199.1504 C 1424.4387 1199.1504 1423.127 1192.4833 1423.127 1184.2685 C 1423.127 1176.0537 1424.4387 1169.3866 1426.0551 1169.3866 Z" fill="#ffc75a" fill-opacity=".42"/>
            </g>
          </g>
        </g>
      </g>
      <g id="Line_84">
        <path d="M 1238.454 916.8808 C 1182.2627 921.8252 1119.2017 912.2376 1072.8995 938.1417 C 1023.6233 965.7095 996.6894 1078.575 953.5035 1081.1584 C 910.3177 1083.7419 897.1349 983.3618 813.7585 953.6441 C 730.3821 923.9265 525.19954 917.5927 453.1951 902.8347 C 381.1906 888.0766 405.52164 877.6684 381.6885 865.0872" marker-start="url(#FilledArrow_Marker_2)" stroke="black" stroke-linecap="round" stroke-linejoin="round" stroke-width="2"/>
      </g>
      <g id="Graphic_83">
        <rect x="549.4063" y="905.1029" width="77" height="27" fill="white"/>
        <text transform="translate(554.4444 910.1029)" fill="black">
          <tspan font-family="Helvetica" font-size="14" fill="black" x="0" y="14">foaf:knows</tspan>
        </text>
      </g>
      <g id="Line_82">
        <path d="M 1228.3908 1056.7817 C 1195.1774 1058.044 1156.355 1059.983 1133.5203 1059.9921 C 1108.1594 1060.0022 1116.9981 1052.9243 1086.9983 1056.4517 C 1056.9985 1059.979 997.9973 1072.9237 953.5035 1081.1584" marker-start="url(#FilledArrow_Marker_2)" stroke="black" stroke-linecap="round" stroke-linejoin="round" stroke-width="2"/>
      </g>
      <g id="Line_81">
        <path d="M 1228.999 1189.7547 C 1192.5982 1178.626 1147.0347 1169.1822 1126.3867 1155.1507 C 1103.7393 1139.7604 1132.1976 1113.0205 1103.3867 1100.6897 C 1074.5757 1088.3589 1003.4596 1087.6682 953.5035 1081.1584" marker-start="url(#FilledArrow_Marker_2)" stroke="black" stroke-linecap="round" stroke-linejoin="round" stroke-width="2"/>
      </g>
      <g id="Line_80">
        <path d="M 1239.4795 1331.6439 C 1187.0202 1306.9628 1116.462 1285.6443 1089.9386 1256.1337 C 1061.7396 1224.7587 1102.7155 1177.2559 1079.9786 1148.0963 C 1057.2417 1118.9367 995.6577 1103.4688 953.5035 1081.1584" marker-start="url(#FilledArrow_Marker_2)" stroke="black" stroke-linecap="round" stroke-linejoin="round" stroke-width="2"/>
      </g>
      <g id="Line_79">
        <path d="M 1407.6722 1013.6961 C 1369.3756 999.8913 1329.9242 981.6199 1293.5203 975.1796 C 1253.876 968.1661 1216.7451 981.352 1179.9786 975.1796 C 1143.2122 969.0072 1108.589 950.4864 1072.8995 938.1417" marker-start="url(#FilledArrow_Marker_2)" stroke="black" stroke-linecap="round" stroke-linejoin="round" stroke-width="2"/>
      </g>
      <g id="Line_78">
        <path d="M 1414.9197 880.605 C 1408.9349 893.5744 1404.0973 906.7403 1393.5203 918.9296 C 1380.299 934.1663 1357.0603 952.9882 1340.3953 962.3622 C 1323.7303 971.7363 1309.1437 970.9076 1293.5203 975.1796" marker-start="url(#FilledArrow_Marker_2)" stroke="black" stroke-linecap="round" stroke-linejoin="round" stroke-width="2"/>
      </g>
      <g id="Line_77">
        <path d="M 1414.6749 1196.5283 C 1388.24 1217.9347 1372.5338 1247.4232 1326.8536 1254.3463 C 1276.399 1261.993 1154.0114 1252.5318 1120.6036 1236.0008 C 1087.1958 1219.4699 1124.4592 1182.098 1126.3867 1155.1507" marker-start="url(#FilledArrow_Marker_2)" stroke="black" stroke-linecap="round" stroke-linejoin="round" stroke-width="2"/>
      </g>
      <g id="Line_76">
        <path d="M 1429.2772 1341.4269 C 1430.2737 1318.992 1432.8083 1293.0401 1429.9786 1279.3463 C 1426.6799 1263.3826 1426.331 1260.5959 1409.1453 1256.4296 C 1391.9595 1252.2634 1354.2814 1255.0407 1326.8536 1254.3463" marker-start="url(#FilledArrow_Marker_2)" stroke="black" stroke-linecap="round" stroke-linejoin="round" stroke-width="2"/>
      </g>
      <g id="Graphic_16">
        <rect x="447.86" y="850.5872" width="91.70996" height="27" fill="white"/>
        <text transform="translate(452.86 855.5872)" fill="black">
          <tspan font-family="Helvetica" font-size="14" fill="black" x="0" y="14">foaf:surname</tspan>
        </text>
      </g>
      <g id="Graphic_13">
        <rect x="167.50068" y="549.4862" width="76.92383" height="27" fill="white"/>
        <text transform="translate(172.50068 554.4862)" fill="black">
          <tspan font-family="Helvetica" font-size="14" fill="black" x="0" y="14">foaf:knows</tspan>
        </text>
      </g>
      <g id="Line_208">
        <path d="M 587.6723 375.2797 C 555.0069 376.83463 518.4812 379.29995 492.645 379.2423 C 464.1652 379.17872 442.46315 380.80427 426.66667 374.45324 C 410.8702 368.1022 407.459 352.23813 397.8566 341.13225" marker-start="url(#FilledArrow_Marker)" stroke="black" stroke-linecap="round" stroke-linejoin="round" stroke-width="1"/>
      </g>
      <g id="Graphic_207">
        <rect x="462.04304" y="365.67193" width="79.28223" height="27" fill="white"/>
        <text transform="translate(467.04304 370.67193)" fill="black">
          <tspan font-family="Helvetica" font-size="14" fill="black" x="0" y="14">foaf:openid</tspan>
        </text>
      </g>
      <g id="Graphic_2">
        <rect x="646.8133" y="97.78124" width="76.92383" height="27" fill="white"/>
        <text transform="translate(651.8133 102.78124)" fill="black">
          <tspan font-family="Helvetica" font-size="14" fill="black" x="0" y="14">foaf:knows</tspan>
        </text>
      </g>
      <g id="Group_226">
        <g id="Graphic_75">
          <a xl:href="http://www.photoethnography.com/blog/images/apache-logo.jpg">
            <path d="M 905.6693 758.6043 L 905.6693 -1.6476394 L 966.0473 -86.12008 L 1509.4488 -86.12008 L 1509.4488 674.1319 L 1449.0709 758.6043 Z" fill="white"/>
            <path d="M 905.6693 758.6043 L 905.6693 -1.6476394 L 966.0473 -86.12008 L 1509.4488 -86.12008 L 1509.4488 674.1319 L 1449.0709 758.6043 L 905.6693 758.6043 M 905.6693 -1.6476394 L 1449.0709 -1.6476394 L 1509.4488 -86.12008 M 1449.0709 -1.6476394 L 1449.0709 758.6043" stroke="black" stroke-linecap="round" stroke-linejoin="round" stroke-width="1"/>
            <text transform="translate(910.6693 -1.6476394)" fill="black">
              <tspan font-family="Helvetica" font-size="16" fill="black" x="0" y="15">bob.name</tspan>
            </text>
          </a>
        </g>
        <g id="Graphic_74">
          <path d="M 1023.0742 558.69316 L 1375.0742 558.69316 L 1375.0742 701.89316 C 1269.4742 683.99316 1128.6742 755.5932 1023.0742 719.79316 Z" fill="#ebebeb"/>
          <path d="M 1023.0742 558.69316 L 1375.0742 558.69316 L 1375.0742 701.89316 C 1269.4742 683.99316 1128.6742 755.5932 1023.0742 719.79316 Z" stroke="black" stroke-linecap="round" stroke-linejoin="round" stroke-width="1"/>
          <text transform="translate(1028.0742 558.69316)" fill="black">
            <tspan font-family="Helvetica" font-size="17" fill="black" x="0" y="16">/blog/2023/05/19/comments</tspan>
          </text>
        </g>
        <g id="Graphic_73">
          <path d="M 1023.0742 231.06102 L 1375.0742 231.06102 L 1375.0742 473.3394 C 1269.4742 443.0546 1128.6742 564.1938 1023.0742 503.6242 Z" fill="white"/>
          <path d="M 1023.0742 231.06102 L 1375.0742 231.06102 L 1375.0742 473.3394 C 1269.4742 443.0546 1128.6742 564.1938 1023.0742 503.6242 Z" stroke="black" stroke-linecap="round" stroke-linejoin="round" stroke-width="1"/>
          <text transform="translate(1028.0742 231.06102)" fill="black">
            <tspan font-family="Helvetica" font-size="17" fill="black" x="0" y="16">/blog/2023/05/19.acl</tspan>
          </text>
        </g>
        <g id="Line_72">
          <line x1="1287.0742" y1="558.69316" x2="1285.4835" y2="489.3564" marker-end="url(#FilledArrow_Marker_3)" stroke="#011fae" stroke-linecap="round" stroke-linejoin="round" stroke-width="4"/>
        </g>
        <g id="Graphic_71">
          <rect x="1267.0488" y="500.2198" width="39.401367" height="38" fill="white"/>
          <text transform="translate(1272.0488 505.2198)" fill="black">
            <tspan font-family="Helvetica" font-size="23" fill="black" x="0" y="23">acl</tspan>
          </text>
        </g>
        <g id="Graphic_70">
          <ellipse cx="1335.0929" cy="334.909" rx="13.518680135863" ry="12.0000191748228" fill="white"/>
          <ellipse cx="1335.0929" cy="334.909" rx="13.518680135863" ry="12.0000191748228" stroke="black" stroke-linecap="round" stroke-linejoin="round" stroke-width="1"/>
        </g>
        <g id="Graphic_69">
          <path d="M 1139.4609 262.909 L 1206.5985 262.909 C 1214.54 262.909 1220.9852 268.285 1220.9852 274.909 C 1220.9852 281.533 1214.54 286.909 1206.5985 286.909 L 1139.4609 286.909 C 1131.5194 286.909 1125.0742 281.533 1125.0742 274.909 C 1125.0742 268.285 1131.5194 262.909 1139.4609 262.909 Z" fill="white"/>
          <path d="M 1139.4609 262.909 L 1206.5985 262.909 C 1214.54 262.909 1220.9852 268.285 1220.9852 274.909 C 1220.9852 281.533 1214.54 286.909 1206.5985 286.909 L 1139.4609 286.909 C 1131.5194 286.909 1125.0742 281.533 1125.0742 274.909 C 1125.0742 268.285 1131.5194 262.909 1139.4609 262.909 Z" stroke="black" stroke-linecap="round" stroke-linejoin="round" stroke-width="1"/>
          <text transform="translate(1139.6653 267.909)" fill="black">
            <tspan font-family="Helvetica" font-size="12" fill="black" x="7.134903" y="11">wac:Write</tspan>
          </text>
        </g>
        <g id="Line_68">
          <path d="M 1375.364 548.4764 C 1387.9714 485.45823 1412.9324 401.31744 1408.8497 366.82334 C 1404.553 330.52124 1368.0858 349.18493 1347.7069 340.36704" marker-start="url(#FilledArrow_Marker)" stroke="black" stroke-linecap="round" stroke-linejoin="round" stroke-width="1"/>
        </g>
        <g id="Graphic_67">
          <rect x="1343.2019" y="462.33775" width="97.14453" height="27" fill="white"/>
          <text transform="translate(1348.2019 467.33775)" fill="black">
            <tspan font-family="Helvetica" font-size="14" fill="black" x="0" y="14">wac:accessTo</tspan>
          </text>
        </g>
        <g id="Line_66">
          <path d="M 1231.1212 277.22293 C 1257.6189 276.64343 1289.3132 272.41438 1305.2379 279.26677 C 1323.2068 286.99883 1321.108 308.84474 1329.0419 323.6315" marker-start="url(#FilledArrow_Marker)" stroke="black" stroke-linecap="round" stroke-linejoin="round" stroke-width="1"/>
        </g>
        <g id="Graphic_65">
          <rect x="1254.3803" y="262.5386" width="73.80664" height="27" fill="white"/>
          <text transform="translate(1259.3803 267.5386)" fill="black">
            <tspan font-family="Helvetica" font-size="14" fill="black" x="0" y="14">wac:mode</tspan>
          </text>
        </g>
        <g id="Line_43">
          <line x1="1077.5115" y1="334.909" x2="1321.0742" y2="334.909" marker-start="url(#FilledArrow_Marker)" stroke="black" stroke-linecap="round" stroke-linejoin="round" stroke-width="1"/>
        </g>
        <g id="Graphic_11">
          <path d="M 1214.9609 370.485 L 1317.0985 370.485 C 1329.18 370.485 1338.9852 375.861 1338.9852 382.485 C 1338.9852 389.109 1329.18 394.485 1317.0985 394.485 L 1214.9609 394.485 C 1202.8794 394.485 1193.0742 389.109 1193.0742 382.485 C 1193.0742 375.861 1202.8794 370.485 1214.9609 370.485 Z" fill="white"/>
          <path d="M 1214.9609 370.485 L 1317.0985 370.485 C 1329.18 370.485 1338.9852 375.861 1338.9852 382.485 C 1338.9852 389.109 1329.18 394.485 1317.0985 394.485 L 1214.9609 394.485 C 1202.8794 394.485 1193.0742 389.109 1193.0742 382.485 C 1193.0742 375.861 1202.8794 370.485 1214.9609 370.485 Z" stroke="black" stroke-linecap="round" stroke-linejoin="round" stroke-width="1"/>
          <text transform="translate(1212.6653 373.261)" fill="black">
            <tspan font-family="Helvetica Neue" font-size="16" fill="black" x=".34039514" y="15">owl:Restriction</tspan>
          </text>
        </g>
        <g id="Line_10">
          <path d="M 1158.0201 432.74693 C 1127.0056 430.7169 1088.251 434.6436 1071.4631 421.656 C 1052.8402 407.2488 1061.2376 372.0189 1056.1257 347.20407" marker-start="url(#FilledArrow_Marker)" stroke="black" stroke-linecap="round" stroke-linejoin="round" stroke-width="1"/>
        </g>
        <g id="Graphic_9">
          <ellipse cx="1053.5929" cy="334.909" rx="13.518680135863" ry="12.0000191748228" fill="white"/>
          <ellipse cx="1053.5929" cy="334.909" rx="13.518680135863" ry="12.0000191748228" stroke="black" stroke-linecap="round" stroke-linejoin="round" stroke-width="1"/>
        </g>
        <g id="Line_8">
          <path d="M 1183.1742 382.27966 C 1156.8318 382.16253 1126.9088 384.83585 1107.8293 379.05115 C 1086.31 372.5267 1078.5717 355.23886 1063.9451 343.3345" marker-start="url(#FilledArrow_Marker)" stroke="black" stroke-linecap="round" stroke-linejoin="round" stroke-width="1"/>
        </g>
        <g id="Graphic_7">
          <rect x="1103.9037" y="366.82334" width="17.786133" height="27" fill="white"/>
          <text transform="translate(1108.9037 371.82334)" fill="black">
            <tspan font-family="Helvetica" font-size="14" fill="black" x="0" y="14">a</tspan>
          </text>
        </g>
        <g id="Graphic_6">
          <rect x="1153.8289" y="321.409" width="108.82715" height="27" fill="white"/>
          <text transform="translate(1158.8289 326.409)" fill="black">
            <tspan font-family="Helvetica" font-size="14" fill="black" x="0" y="14">wac:agentClass</tspan>
          </text>
        </g>
        <g id="Graphic_5">
          <path d="M 1194.4065 421.656 L 1318.225 421.656 C 1332.8709 421.656 1344.7574 427.032 1344.7574 433.656 C 1344.7574 440.28 1332.8709 445.656 1318.225 445.656 L 1194.4065 445.656 C 1179.7606 445.656 1167.874 440.28 1167.874 433.656 C 1167.874 427.032 1179.7606 421.656 1194.4065 421.656 Z" fill="white"/>
          <path d="M 1194.4065 421.656 L 1318.225 421.656 C 1332.8709 421.656 1344.7574 427.032 1344.7574 433.656 C 1344.7574 440.28 1332.8709 445.656 1318.225 445.656 L 1194.4065 445.656 C 1179.7606 445.656 1167.874 440.28 1167.874 433.656 C 1167.874 427.032 1179.7606 421.656 1194.4065 421.656 Z" stroke="black" stroke-linecap="round" stroke-linejoin="round" stroke-width="1"/>
          <text transform="translate(1190.5624 424.432)" fill="black">
            <tspan font-family="Helvetica Neue" font-size="16" fill="black" x="3.5293646" y="15">:isKnownByMax3</tspan>
          </text>
        </g>
        <g id="Graphic_4">
          <rect x="1025.6469" y="411.6647" width="103.37891" height="27" fill="white"/>
          <text transform="translate(1030.6469 416.6647)" fill="black">
            <tspan font-family="Helvetica" font-size="14" fill="black" x="0" y="14">owl:onProperty</tspan>
          </text>
        </g>
        <g id="Graphic_210">
          <path d="M 1023.0742 32.93504 L 1375.0742 32.93504 L 1375.0742 176.13504 C 1269.4742 158.23504 1128.6742 229.83504 1023.0742 194.03504 Z" fill="white"/>
          <path d="M 1023.0742 32.93504 L 1375.0742 32.93504 L 1375.0742 176.13504 C 1269.4742 158.23504 1128.6742 229.83504 1023.0742 194.03504 Z" stroke="black" stroke-linecap="round" stroke-linejoin="round" stroke-width="1"/>
          <text transform="translate(1028.0742 32.93504)" fill="black">
            <tspan font-family="Helvetica" font-size="17" fill="black" x="0" y="16">/card</tspan>
          </text>
        </g>
        <g id="Group_211">
          <g id="Graphic_220"/>
          <g id="Group_213">
            <g id="Graphic_219">
              <ellipse cx="1074.1266" cy="72.947765" rx="11.3505306370053" ry="10.9014393329366" fill="white"/>
              <ellipse cx="1074.1266" cy="72.947765" rx="11.3505306370053" ry="10.9014393329366" stroke="black" stroke-linecap="round" stroke-linejoin="round" stroke-width="1"/>
            </g>
            <g id="Line_218">
              <line x1="1074.1265" y1="83.85023" x2="1074.1265" y2="116.55418" stroke="black" stroke-linecap="round" stroke-linejoin="round" stroke-width="1"/>
            </g>
            <g id="Line_217">
              <line x1="1074.1264" y1="116.55418" x2="1062.776" y2="149.25805" stroke="black" stroke-linecap="round" stroke-linejoin="round" stroke-width="1"/>
            </g>
            <g id="Line_216">
              <line x1="1074.1265" y1="116.55418" x2="1085.4769" y2="149.25805" stroke="black" stroke-linecap="round" stroke-linejoin="round" stroke-width="1"/>
            </g>
            <g id="Line_215">
              <line x1="1074.1265" y1="94.75123" x2="1051.4247" y2="94.75123" stroke="black" stroke-linecap="round" stroke-linejoin="round" stroke-width="1"/>
            </g>
            <g id="Line_214">
              <line x1="1096.8273" y1="94.75123" x2="1074.1264" y2="94.75123" stroke="black" stroke-linecap="round" stroke-linejoin="round" stroke-width="1"/>
            </g>
          </g>
          <g id="Graphic_212">
            <text transform="translate(1045.0742 152.55428)" fill="black">
              <tspan font-family="Helvetica" font-weight="bold" font-size="12" fill="black" x="17.042751" y="11">#me</tspan>
            </text>
          </g>
        </g>
        <g id="Graphic_223">
          <rect x="1232.4107" y="62.69882" width="84.84191" height="24" fill="white"/>
          <rect x="1232.4107" y="62.69882" width="84.84191" height="24" stroke="black" stroke-linecap="round" stroke-linejoin="round" stroke-width="1"/>
          <text transform="translate(1237.4107 67.69882)" fill="black">
            <tspan font-family="Helvetica" font-size="12" fill="black" x="26.74517" y="11">Bob</tspan>
          </text>
        </g>
        <g id="Line_222">
          <path d="M 1222.1802 76.56978 C 1214.3184 78.03729 1206.727 79.47912 1195.4588 81.27071 C 1179.7172 83.77355 1153.8958 87.55841 1137.4588 89.80493 C 1121.0219 92.05146 1110.3698 93.10263 1096.8273 94.75123" marker-start="url(#FilledArrow_Marker)" stroke="black" stroke-linecap="round" stroke-linejoin="round" stroke-width="1"/>
        </g>
        <g id="Graphic_221">
          <rect x="1127.9731" y="72.46341" width="73" height="27" fill="white"/>
          <text transform="translate(1133.3423 77.46341)" fill="black">
            <tspan font-family="Helvetica" font-size="14" fill="black" x="0" y="14">foaf:name</tspan>
          </text>
        </g>
        <g id="Line_225">
          <path d="M 1065.2271 120.89031 C 1032.3279 135.5164 990.43 140.94595 972.6706 171.06102 C 953.2632 203.9705 946.4547 287.2196 957.6706 314.03084 C 968.8865 340.84207 1012.5414 325.97386 1039.9727 331.94447" marker-start="url(#FilledArrow_Marker)" stroke="black" stroke-linecap="round" stroke-linejoin="round" stroke-width="1"/>
        </g>
        <g id="Graphic_224">
          <rect x="907.5375" y="231.6227" width="92.24316" height="27" fill="white"/>
          <text transform="translate(912.5375 236.6227)" fill="black">
            <tspan font-family="Helvetica" font-size="14" fill="black" x="0" y="14">owl:hasValue</tspan>
          </text>
        </g>
      </g>
      <g id="Line_3">
        <path d="M 392.65828 296.52058 C 413.2865 241.94256 397.5956 170.67692 468.4733 139.16667 C 543.3663 105.87134 742.9261 113.24636 838.1834 105.83333 C 933.4406 98.42031 972.784 98.40011 1040.0742 94.68406" marker-start="url(#FilledArrow_Marker)" stroke="black" stroke-linecap="round" stroke-linejoin="round" stroke-width="1"/>
      </g>
    </g>
  </g>
</svg>
